<?xml version="1.0" standalone="no"?>
<!DOCTYPE svg PUBLIC "-//W3C//DTD SVG 1.1//EN" "http://www.w3.org/Graphics/SVG/1.1/DTD/svg11.dtd" >
<svg xmlns="http://www.w3.org/2000/svg" xmlns:xlink="http://www.w3.org/1999/xlink" version="1.1">
<metadata>
Created by FontForge 20161116 at Mon Feb 14 13:25:43 2000
 By Jimmy Warting
(c)2000 Oliver Conte Design. All rights reserved. This font is intended as freeware and may be copied and distributed freely if a link is included to our internet site www.ocdesign.com
</metadata>
<defs>
<font id="TwyliteZoneBook" horiz-adv-x="468" >
  <font-face 
    font-family="TwyliteZone"
    font-weight="400"
    font-stretch="normal"
    units-per-em="1000"
    panose-1="0 0 4 0 0 0 0 0 0 0"
    ascent="800"
    descent="-200"
    x-height="461"
    cap-height="638"
    bbox="-74 -258 907 755"
    underline-thickness="50"
    underline-position="-125"
    unicode-range="U+0020-F002"
  />
<missing-glyph horiz-adv-x="500" 
d="M63 0v755h375v-755h-375zM125 63h250v630h-250v-630z" />
    <glyph glyph-name=".notdef" horiz-adv-x="500" 
d="M63 0v755h375v-755h-375zM125 63h250v630h-250v-630z" />
    <glyph glyph-name=".null" horiz-adv-x="0" 
 />
    <glyph glyph-name="nonmarkingreturn" horiz-adv-x="265" 
 />
    <glyph glyph-name="space" unicode=" " horiz-adv-x="265" 
 />
    <glyph glyph-name="exclam" unicode="!" horiz-adv-x="199" 
d="M107 290l-36 294q-26 -14 -26 -53q0 -22 15 -130l6 -4zM143 324l2 18l-26 -36zM120 416l-19 18q10 36 20 71q17 56 28 64q-11 36 -49 36q-16 0 -29 -7l35 -294zM103 426l18 -18l-13 -111q47 86 47 233q0 20 -5 32q-10 -8 -47 -136zM137 302l2 11l-24 -19zM139 373
l-31 -82q2 3 26 36zM129 288l1 8l-23 -8h22zM49 30q0 -24 22 -38l10 82q-32 -11 -32 -44zM147 39q0 19 -13.5 32.5t-32.5 14.5l34 -77q12 12 12 30zM118 281l1 7h-22zM74 236l3 -25l24 63zM92 168q4 -5 12 -5q7 0 11 14q4 11 3 19l-11 92zM123 184q5 38 5 48q-7 20 -16 44z
M82 222q2 -24 10 -57l14 120q-12 -31 -24 -63zM83 87l-10 -82q11 -8 26 -8q22 0 36 16l-35 77h-2q-7 0 -15 -3zM119 279l20 -15l1 8zM126 242l2 18l-19 26zM137 254l1 11l-20 15zM58 282l1 -10l31 10h-32zM53 300l2 -12h32zM66 318l2 -16l34 -12zM74 260l2 -15l27 38z
M58 350l4 -27l36 -28zM66 396l-6 4l7 -57q19 -25 40 -54zM74 276l1 -12l30 23z" />
    <glyph glyph-name="quotedbl" unicode="&#x22;" horiz-adv-x="439" 
d="M149 525l2 -1l-1 3zM210 518q2 18 4 52l-39 -100zM177 614q-12 8 -31 8h-6l8 -69zM153 537l19 -18l-9 -70q39 98 39 105q0 33 -21 47l-28 -61v-3zM136 483l26 -67l-12 89l1 2l-9 69q-24 -3 -35 -21l16 -64zM151 516l11 -88l8 69zM188 429l3 2v1zM226 432v2h-29l28 -10
l1 7l-3 -2zM207 472l2 23l-34 -48zM207 440l2 10l-31 -10h29zM215 462l1 14l-32 -25zM107 415h1l-1 1v-1zM133 296l13 6l13 107l-44 -113q2 -22 3 -24q2 -25 20 -31l5 42zM141 259q4 -2 7 -2q14 0 21 14l-23 30zM145 296l2 19l-12 -6zM173 311l-11 96l-13 -107zM129 392
l-11 9l-13 -10l8 -74l44 113zM170 313l-24 -12l-3 -19l24 -30q14 24 14 97q-10 28 -22 60zM187 414l27 -21l2 11zM215 377l2 15l-27 20zM190 366l3 25l-26 35zM97 411h-1l2 -21l13 10zM134 374l28 39l-39 -30zM98 521q0 -18 1 -27l12 -3l-11 -8v-2l61 -46zM123 399l39 30
l-54 -19zM80 509q1 -4 1 -11l11 8zM75 404h1l53 19h-56zM135 443l-55 19l-2 -4l1 -15h56zM135 502l-13 8l-16 64q-8 -13 -8 -35v-17l63 -87zM158 437l-61 46l3 -31l3 4zM321 523l1 -1v3zM382 516q3 26 3 52l-38 -100zM349 612q-12 8 -31 8h-6l8 -69zM325 535l19 -18l-9 -70
q38 95 38 105q0 33 -20 47l-29 -61zM308 481l25 -67l-10 87l-2 2l1 2l-8 68q-25 -2 -36 -20l17 -64zM323 514l10 -88l9 69zM360 427l3 2v1zM398 430v2h-29l28 -10l1 7l-4 -2zM378 469l3 23l-35 -47zM379 438l1 10l-30 -10h29zM387 460l1 14l-32 -25zM279 413zM305 294l12 6
l13 107l-43 -113q2 -25 2 -24q4 -26 21 -31l5 42zM312 257q6 -2 8 -2q12 0 21 14l-23 30zM317 294l2 19l-13 -6zM345 309l-12 96l-13 -107zM301 390l-11 8l-13 -9l8 -74l43 113zM342 311l-25 -12l-2 -19l23 -30q15 26 15 97q-18 50 -23 60zM359 412l27 -21l1 11zM387 375
l2 15l-28 20zM362 364l3 25l-26 35zM268 409l2 -21l13 10zM305 372l28 39l-39 -30zM270 519q0 -18 1 -27l11 -3l-10 -8v-2l61 -47zM294 397l39 30l-53 -19zM252 507q0 -2 1 -6v-6l11 9zM247 402h1l53 19h-56zM307 441l-55 19l-3 -4l2 -15h56zM307 500l-13 8l-16 64
q-10 -15 -9 -35l1 -17l63 -87zM330 435l-61 46l3 -31l3 4z" />
    <glyph glyph-name="numbersign" unicode="#" horiz-adv-x="709" 
d="M570 464l1 49l-87 -49h86zM473 366l14 12h-18q-1 -5 -5 -14l31 -8q0 1 7 22h-3zM182 353l-4 -8l35 9l-14 10q-4 -11 -17 -11zM373 280l-10 61h-9l-10 -61h29zM472 391l1 2l-4 -2h3zM245 362l-35 -9l-29 -53h9l79 45zM444 391h-12l-14 -12zM292 326l-31 -31l-20 15
l-79 -45q13 0 13 -4q0 -19 -21 -63t-21 -64q0 -5 14 -5q16 0 21 15l38 106q6 18 31 18q6 0 18.5 -1.5t17.5 -1.5l32 61h-13zM384 216l-7 39l-17 -49zM329 341l-31 -61h31l10 61h-10zM366 323l10 -62q8 0 8 -5q0 1 -4 -16l6 -38l-23 -10l-17 -47l19 -20q12 2 29 56
q19 63 21 66l-39 76h-10zM485 318l-85 47q-3 -2 -17 -2l60 -61h99q13 0 17.5 11.5t7.5 22.5l-29 7zM591 344l-19 -9l30 -8l1 3zM532 668h-4q-17 0 -22 -15l-9 -26l38 24zM335 154q0 -5 9 -5h14l-19 19q-4 -12 -4 -14zM387 329l39 -76q5 12 13 14q3 1 21 1l-60 61h-13z
M440 391h12q2 1 3 2l5 14zM371 691q0 5 -9 5h-8q-14 0 -19 -15q-12 -32 -14 -41q0 -4 10 -64q40 113 40 115zM460 399h19l20 16l3 10l-36 -10zM611 356l13 -9q1 1 1 3q0 6 -11 6h-3zM610 467q15 0 20 15q5 12 12 36l-46 -51h14zM113 331l-12 30h-9q-15 0 -22 -19l36 -13z
M256 325l20 -15l30 31h-21q-13 -7 -29 -16zM271 369l-19 -5l24 -18l29 17h-22q-13 0 -12 6zM294 453l-74 76h-52l1 -30l73 -14l-21 -16q1 -2 21.5 -1t20.5 -6q0 2 -4 -14l27 -16q3 8 8 21zM260 445l-28 15l-8 -25l30 -8zM228 391h-33q-1 -5 -6 -17l14 -9l18 4q0 2 7 22z
M239 401l6 18l-30 8l-9 -26h33zM301 495l16 -31h26l-10 62q-5 0 -5 5q0 2 2 10l-10 65l-23 -66q-5 -15 -25 -15l6 -15zM370 469h25l32 61h-79l28 -26zM307 485l-17 31l-23 15l-6 15h-48l74 -76q5 14 20 15zM209 501l-73 14v30h-7q-15 0 -20 -15l-14 -40q0 -6 11 -6h85l-3 1z
M465 491q9 0 9 -5q0 -6 -8 -26l42 24q47 27 99 56l-1 -49h16l46 52l1 3q0 7 -12 7h-110q-14 0 -11 11q-46 -48 -71 -73zM92 317l-2 5l-7 -2zM371 489l6 35l-28 26q-7 0 -11 1l10 -62h23zM486 357l-31 8q-2 -7 -8 -12l84 -47l54 26l-75 19h-14q-11 0 -10 6zM212 354l4 8h-23
l-4 -6l-9 6h-68l12 -31zM47 333l-8 -24l44 11zM82 319l2 -5l-9 3l-44 -11l-3 -12q0 -6 11 -6h102l29 53zM157 351l4 5h-13zM583 335l19 9l12 -14q1 3 2.5 8t1.5 7l-13 9h-97zM506 443q4 13 13 38l-42 -24l-8 -24zM428 465q66 66 72 77q2 2 38 106q2 6 2 10q0 5 -9 5l2 -17
l-37 -23l-29 -81q-5 -14 -15 -15q2 0 -25 0l-32 -61q28 0 33 -1z" />
    <glyph glyph-name="dollar" unicode="$" horiz-adv-x="481" 
d="M271 319l38 60q-10 4 -16 7zM73 224q-13 0 -15 -26l-4 -52l39 33q-3 13 -5 27q-6 18 -15 18zM280 420q-12 4 -12 31q0 9 1.5 24.5t1.5 19.5l-10 10q4 8 8 44q3 26 13 23l8 25q-19 0 -19 9q0 -1 1.5 16t1.5 31q0 47 -18 47q-13 0 -13 -22v-57l30 -274zM340 525l17 50
q-28 5 -65 7l-8 -24q27 -1 56 -33zM373 475l28 30q0 8 1 24v23q0 13 -14 18l-26 5l-17 -50q9 -11 28 -50zM283 387l-8 -73l23 67zM328 367q-6 4 -20 10l-38 -60zM257 512l10 -9v41zM411 322q-13 16 -28 27l-39 -21l32 27l-2 1l-86 -34h123zM369 363q-5 4 -27 16l-59 -50z
M393 354q-2 2 -8 6l-31 -27zM378 446q9 0 11 17q1 9 2 27l-28 -31q7 -13 15 -13zM439 247q-5 33 -24 58h-122zM171 314q24 -11 46 -18l46 18h-92zM240 97l6 3l22 204q-13 -30 -29 -86q-3 -23 -2 -62q2 -66 2 -63q0 -9 -12 -9t-30 11l-11 -33q2 0 34 -1q19 -1 19 -31l6 58z
M227 569q9 0 9 -8v-116q-2 -8 -2 -7l32 -93l-30 258q0 -5 -23 -12q-17 -5 -33 -10l9 -33q19 21 38 21zM245 94l2 12l-6 -3zM264 259l29 46l-30 -27q1 -2 1 -19zM271 215l29 86l-29 -45v-41zM112 152l-32 -80q31 -20 84 -27l11 32q-44 26 -63 75zM277 310l106 -91l41 21
q0 8 -1 12zM276 306l91 -141l-28 -44l6 -17l12 -8q67 49 67 128v12l-42 -21zM238 20v-51q0 -24 15 -24q13 0 13 24v66l-22 43q-6 -57 -6 -58zM343 101q2 2 8 6l-13 8zM328 118l6 9l-4 12q-8 -14 -23 -29q-19 -17 -32 -17q-6 0 -6 24l-20 -10l-1 -12l21 -42q0 12 2 13t27 8.5
t46 22.5l-4 13zM111 180l-39 -34q-2 -18 -2 -29q0 -25 13 -32l32 80q0 3 -1.5 8t-2.5 7zM139 357l-18 -27l20 -10h92zM197 284q7 -2 16 -8l30 26zM268 318l-105 91l15 11l-58 25l-1 55l-3 1q-22 -33 -22 -71q0 -64 62 -102l19 26zM236 415q-2 -2 -3 -2q-21 0 -39.5 24.5
t-18.5 46.5t16 41l-9 33q-28 -13 -47 -31l133 -206zM109 458l57 -25l-15 -11l106 -92l-133 206q-10 -10 -19 -22l3 -1zM267 90v145q0 12 6 8l-5 42l-22 -204zM317 253l-16 48l5 -42q8 -4 11 -6zM342 233l-45 70l16 -47q17 -9 29 -23zM335 125l4 -12l28 44l-31 47
q8 -16 8 -37q0 -22 -9 -42zM349 82l-5 17l-6 -10z" />
    <glyph glyph-name="percent" unicode="%" horiz-adv-x="778" 
d="M393 295l3 -3v1zM549 79q-2 13 -2 40l-54 61q-5 -11 -11 -35l46 -98zM441 274l-4 1l3 -2zM403 267l1 2l-2 4zM378 250q2 3 6 8q0 2 1 4v4zM315 217l-18 15q-177 -229 -177 -236q0 -6 17 -6q18 0 34 21l203 265q3 7 8 16zM507 225q5 24 11 37l-43 12q-10 -10 -15 -19z
M417 240l2 -4l1 1zM481 230q-8 -14 -11 -21l54 -61q0 31 5 53zM394 259l2 3l-1 5zM666 207q10 -38 10 -71q0 -91 -32 -131l36 -8q61 51 64 135l-50 67zM599 30q-14 -18 -32 -18q-23 0 -41 35l-20 4l23 -49q18 -6 37 -6q59 0 98 51l-29 -25zM693 216l-20 27l-12 -6
q2 -3 4 -13zM680 233l-73 52q14 -15 21 -40l12 6l21 -27l43 -13q-4 15 -14 34zM718 150q0 1 1 4v4q0 24 -7 45l-43 13zM503 57l23 -49l20 -5q-19 37 -22 86zM463 52q29 -45 70 -59l-23 49zM438 280l-7 -2h5zM448 272h-5l4 -1zM501 39l-25 -38l1 -1l47 -10zM442 182
q-4 -17 -4 -39q0 -53 25 -97l25 38zM381 319l-15 31l-6 -8zM127 595l-27 30q-30 -26 -44 -64l61 -5q3 22 10 39zM563 302q12 0 34 -16l73 -53l10 13q-40 72 -115 72q-30 0 -62 -20h45q2 0 7 2t8 2zM262 418l-5 1l-1 -6zM215 339l-18 -26q20 8 36 21zM150 658l4 18
q-34 -4 -61 -27l26 -30q11 30 31 39zM410 292l26 -16l-21 23zM361 306l31 -9l-26 17zM360 295h38l-31 9zM243 459q0 -4 -1 -12.5t-2 -12.5l5 -1l-6 -5q-2 -13 -6 -25l44 -27q11 15 16 27zM277 497l-47 144l-13 -10q32 -50 26 -144l51 -57q10 23 14 44l-2 4zM170 662
q24 0 41 -26l13 10l47 -144l30 -19l1 -4q5 27 5 48q0 59 -37 104q-40 47 -98 47q-9 0 -14 -1l-3 -18q8 3 15 3zM233 359q15 11 23 24l-43 27q-19 -63 -53 -63q-35 0 -53 64q-13 44 -13 90q0 30 4 54l-61 5q-11 -29 -11 -66q0 -62 34 -110q38 -53 99 -53q21 0 38 7l18 26z
M660 648q-3 3 -22 3q-16 0 -26 -13q-57 -74 -114 -149q-63 -88 -87 -164q25 24 135.5 168t113.5 155zM448 332l3 4l-10 -5zM431 344l-35 -39l9 6q10 12 26 33zM524 260l43 -12q12 28 30 36h-45q-18 -12 -28 -24zM397 256l49 14h-38zM349 272q-80 -45 -85 -60l18 -15z
M360 393l-9 -11l15 -31zM380 221l74 46l-49 -14zM451 433q-25 -32 -51 -67q-7 -52 -9 -62zM396 382l-15 -20l6 -42z" />
    <glyph glyph-name="ampersand" unicode="&#x26;" horiz-adv-x="737" 
d="M411 91q22 22 28 22q4 0 15 -13q6 -8 12 -15l-79 155zM696 351l24 28q-14 -1 -44 -3l-1 -34q14 8 21 9zM500 225l4 3l-9 10h-64l84 -22l-10 11zM513 210l27 -7l27 34h-32zM288 51q-13 -26 -27 -53q45 8 81 31l8 49q-29 -21 -62 -27zM446 253l-52 -13h64zM374 168
q24 -24 24 -30q0 -12 -35 -35l-8 -49q26 14 55 40l-24 149zM478 243l-42 -24l52 13zM497 49l31 48l-122 126l79 -156q5 -5 12 -18zM539 246h32q13 16 39 46l-56 -26q-2 -3 -7 -9.5t-8 -10.5zM515 -11l-17 34q-1 -8 -11 -10l-10 -15zM503 188l14 21l-27 7q-5 -5 -8 -5
q-6 0 -11 10l-85 23l132 -76q-15 15 -15 20zM526 83l-31 -48q3 -3 1 -7l17 -33q69 -2 152 -5l27 24q-65 16 -120 78q-17 19 -37 41q-44 26 -131 76zM487 350v-1l13 13q-13 -2 -13 -12zM679 14q6 0 14 2l2 20q-1 1 -3 1.5t-3 0.5l-27 -24h17zM720 15q0 6 -5 8l-2 -19
q7 3 7 11zM689 347q0 12 -13 12l-4 -1l-24 -27l24 4q17 3 17 12zM472 1l10 16q-9 -2 -19.5 -5t-10.5 -12q0 -12 19 -12q7 0 20.5 1.5t19.5 1.5l-1 2zM506 223l5 3l-1 1zM522 -22h5l-6 2zM560 310q0 -12 -19 -44l56 26q14 12 36 29l1 34q-23 -2 -44 0l-47 -27q17 -4 17 -18z
M123 168l-2 6l-8 -2zM388 173l28 56l-41 -42zM363 383l4 -19q18 6 28 10l-20 19q-7 -7 -12 -10zM381 166l12 74l-28 -56zM409 508l1 -7q5 -36 -31 -70l20 -19q87 32 87 93q0 42 -33 72q-26 -36 -44 -69zM109 235l-14 9h-36l26 -65l17 5v5q-1 3 -1 4q0 21 8 42zM413 513
q21 39 43 69q-46 41 -106 35l-10 -1l4 -22q30 -2 48.5 -26t20.5 -55zM336 213l52 30l-64 -17zM315 240h77l-101 27zM289 400l-47 127l-66 -54l197 -204q-18 37 -36 73q-30 57 -48 58zM393 291l10 60l-24 26zM371 203l63 17h-78zM386 181l41 42l-52 -29zM138 244h-18l14 -9
l2.5 5t1.5 4zM87 179l-26 65h36l-24 14q-31 -31 -39 -64l45 -17zM422 285l-10 11l-23 -45zM416 335l-13 15l-10 -61zM104 169l-17 -4l2 -6l-10 4l-49 -13v-6q0 -41 23 -75l72 41q-20 29 -21 59zM141 103l-72 -42q17 -26 44 -41l38 71q-4 4 -10 12zM463 305l-9 10l-33 -35z
M221 555l47 -127q18 -1 48 -58l36 -74l-14 87q-14 15 -17 22l12 10l-3 19q-14 -10 -25 -10q-15 0 -43 48t-28 67q0 27 21.5 48t47.5 16l-3 22q-57 -3 -99 -32q-49 -34 -49 -87q0 -3 3 -5zM298 73q-12 -3 -23 -3q-55 0 -90 39l-38 -72q36 -21 86 -21q20 0 38 3q13 25 27 54z
M173 464v-3l2 1zM262 316l142 -81l-198 205l-2 -2q4 -48 46 -97l35 -7zM569 350l46 26q-63 3 -64 3q-12 0 -18 -1l-12 -13q1 -9 20 -12q14 -1 28 -3zM57 186q-2 -10 -4 -30l49 13zM122 266q9 18 31 42q26 28 41 28q6 0 45 -44l101 -26l-141 81l22 18l-35 7q9 -9 9 -15
q0 -5 -11 -10q-63 -27 -103 -67l24 -14h17z" />
    <glyph glyph-name="quotesingle" unicode="'" horiz-adv-x="283" 
d="M149 525l2 -1l-1 3zM210 518q2 18 4 52l-39 -100zM177 614q-12 8 -31 8h-6l8 -69zM153 537l19 -18l-9 -70q39 98 39 105q0 33 -21 47l-28 -61v-3zM136 483l26 -67l-12 89l1 2l-9 69q-24 -3 -35 -21l16 -64zM151 516l11 -88l8 69zM188 429l3 2v1zM226 432v2h-29l28 -10
l1 7l-3 -2zM207 472l2 23l-34 -48zM207 440l2 10l-31 -10h29zM215 462l1 14l-32 -25zM107 415h1l-1 1v-1zM133 296l13 6l13 107l-44 -113q2 -22 3 -24q2 -25 20 -31l5 42zM141 259q4 -2 7 -2q14 0 21 14l-23 30zM145 296l2 19l-12 -6zM173 311l-11 96l-13 -107zM129 392
l-11 9l-13 -10l8 -74l44 113zM170 313l-24 -12l-3 -19l24 -30q14 24 14 97q-10 28 -22 60zM187 414l27 -21l2 11zM215 377l2 15l-27 20zM190 366l3 25l-26 35zM97 411h-1l2 -21l13 10zM134 374l28 39l-39 -30zM98 521q0 -18 1 -27l12 -3l-11 -8v-2l61 -46zM123 399l39 30
l-54 -19zM80 509q1 -4 1 -11l11 8zM75 404h1l53 19h-56zM135 443l-55 19l-2 -4l1 -15h56zM135 502l-13 8l-16 64q-8 -13 -8 -35v-17l63 -87zM158 437l-61 46l3 -31l3 4z" />
    <glyph glyph-name="parenleft" unicode="(" horiz-adv-x="358" 
d="M91 237l5 7h-20zM59 244h30q1 12 3 35l-7 2zM83 350l29 -18q3 15 11 45l-51 59q-17 -26 -31 -55l56 -20zM339 -144q11 0 11 9q0 6 -11 11q-20 9 -35 19l2 -29q27 -10 33 -10zM314 577q15 9 26 14t11 11q0 9 -11 9q-4 0 -10 -2l1 -6zM93 246l26 36l6 -2q2 20 6 38l-29 19
l14 11l-56 20q-22 -49 -27 -103q9 -6 40 -19h20zM327 586l-1 6q-51 -12 -117 -59l7 -48q27 31 64 57q3 2 22 14q3 1 7 4q6 9 18 26zM150 440l-25 66q-24 -24 -45 -54l52 -58q7 22 18 46zM213 503l-7 48q-39 -28 -69 -59l26 -66q19 42 50 77zM150 49q-22 52 -31 111
q-14 -3 -37 -36q-18 -25 -27 -45q24 -50 66 -95q0 7 29 65zM153 33l-29 -65q26 -28 70 -60l7 47q-29 33 -48 78zM56 120q6 -17 13 -32l42 67zM209 -44l-7 -47q45 -32 97 -53l-3 29q-55 32 -87 71zM128 167l-3 18l-20 -32zM117 244h-30l-6 -7l-15 7h-41v-12q0 -28 4 -49
l88 26v35zM105 180v11q-1 7 -1 10l-89 -25q5 -33 15 -63q22 12 55 35q7 7 20 32zM32 263v-9q-1 -7 -1 -10h41z" />
    <glyph glyph-name="parenright" unicode=")" horiz-adv-x="358" 
d="M-2 597q-11 0 -11 -10q0 -7 11 -11q8 -3 24 -13l-2 28q-15 6 -22 6zM216 175l24 -165l-44 -20l19 -39q44 49 66 100l-65 140v-16zM238 228l93 -27v28h-93v-1zM237 33l-24 165q-3 -54 -16 -102q-5 -13 -12 -39q-2 -10 -18 -127q21 19 45 44l-20 39zM283 73q10 23 18 50
l-83 94q-1 -2 65 -144zM-15 -139q0 -10 11 -10q13 0 42 13l28 48q-22 -16 -70 -40q-11 -6 -11 -11zM211 236v-1l90 -57q3 15 3 31zM234 207l82 -94q4 13 8 39l-90 57v-2zM222 255l78 88q-8 24 -18 44zM185 386l-19 132q-70 61 -147 88l1 -27q28 -15 47 -31l1 1v-2
q83 -63 117 -161zM58 557l1 -1zM40 -131q67 28 124 76l19 127q-31 -85 -91 -138q-3 -2 -9 -6.5t-8.5 -6t-6.5 -5.5zM328 250v1l-3 -2zM211 263l17 116l-24 24l17 52q-19 24 -52 52q9 -59 20 -132l9 -33q10 -42 13 -79zM228 385l-17 -117q0 -1 1 -6v-6l60 129q-20 39 -50 75
l-18 -52zM237 240h93v10l-3 -1l3 2q0 6 -2 16l-91 -26v-1zM216 240l92 26q-1 5 -2.5 15t-2.5 15l-87 -55v-1zM232 253l86 55q-3 16 -9 35l-77 -88v-2z" />
    <glyph glyph-name="asterisk" unicode="*" horiz-adv-x="360" 
d="M169 578l1 -1v3zM208 538q-3 0 -5 3l-8 -20zM159 529q-2 -1 -6 -1l14 -18zM197 462q1 2 4 4l-11 13zM276 553l-106 -74l19 6q6 9 31 11q29 3 34.5 6t19.5 10q6 2 27 7q7 8 7 20q0 7 -3 13l-29 -40v41zM269 514q37 5 48 18q-31 -7 -48 -18zM171 476q2 0 4 -2l6 15z
M150 350l14 6l13 103l-6 -15q2 -4 2 -7q0 -5 -14.5 -43t-14.5 -51q0 -20 14 -28l3 23zM168 594v-3l20 -20l-9 -65l9 19q-2 2 -2 7q0 8 14.5 44.5t14.5 49.5q0 20 -14 28q-11 -21 -33 -60zM159 564l12 -85l8 65zM207 663q-9 5 -21 5q-11 0 -21 -5l8 -60q13 25 34 60zM288 564
l-1 -41l30 40q-10 20 -30 20q-21 0 -52.5 -39.5t-39.5 -36.5l-13 -17zM327 454zM322 420q2 8 2 12q0 5 -2 13l-20 6zM186 391l-12 92l-14 -103zM329 454h-1q-12 9 -47 13q-38 5 -50 10v0q-6 3 -9 7h-18l94 -30l13 7l9 -13l19 -7q-2 7 -10 13zM280 457l-30 -15l-38 27
q1 -1 36 -43q23 -28 43 -28q21 0 30 21l-20 31zM309 460l-13 -7l22 -7zM214 458q1 1 3 1q3 0 7 -2l-21 14zM253 438l-94 30l65 -45zM194 490l-19 -6h19q-1 1 -1 2v1q0 1 1 2v1zM218 480zM168 593l-2 1l1 2l-8 60q-13 -6 -13 -27q0 -12 14 -52t14 -41q0 -7 -3 -9l8 -19z
M106 466l3 7l-11 -2l-1 -2l-2 2q-9 -2 -28 -7l4 -9zM69 450l-2 4l-4 -2zM51 450l-4 9q-7 -2 -11 -6l10 -4zM223 357l-15 45q-12 35 -11 41l-7 18l12 -91l-26 -12l-2 -19l24 -27q27 5 27 32v2l-8 2zM163 321q8 -5 18 -5h4q2 0 5 1l-24 27zM97 469l1 2h-3zM58 403q8 -5 17 -5
q1 0 2 1h1l10 25zM43 453q-6 -3 -8 -10l18 6zM72 410l-10 -26q18 2 36 23q14 17 28 35l-4 3zM79 457l-35 -11l1 -4l-5 3l-19 -6q-3 -7 -3 -14q0 -18 15 -28l30 21zM100 469q-10 -2 -15 -2l-2 -7l20 7zM163 352l3 19l-14 -6zM163 513l-14 17q-14 2 -38 37l-12 -9zM114 538
l12 9l-38 9v27q-6 3 -12 3q-13 0 -23 -9.5t-10 -23.5q0 -31 54 -38q60 -9 65 -17l17 -5zM86 452l-15 -39l50 35l-14 10zM108 566q-21 30 -38 36v-27zM149 473h16l-17 5q1 -1 1 -3v-2zM122 442l40 28l-54 -17zM115 440l4 -3q15 18 24 18h2l10 13zM210 375l7 -2q0 4 -2 10z
M115 472l3 -2l54 17h-16q-3 -10 -41 -15z" />
    <glyph glyph-name="plus" unicode="+" horiz-adv-x="632" 
d="M347 297v31l-31 -66zM330 419l-16 -105q2 4 31 66v160l-50 -88zM394 320h-21v3l-31 -35zM435 292l-34 -29h10l67 33h-91l-51 -33zM257 364v-41l40 -45zM278 508h-5v-155q26 -59 40 -86zM330 365l-35 33q54 95 50 102h-66l35 -241zM413 337l-99 -29h65zM579 218v18
l-16 -18h16zM413 253h-10l-13 -11zM499 251l54 -39h24l15 18v53h-96q-31 -15 -67 -32h70zM495 220h4l-1 1zM423 251l-23 -12l14 12h-65q28 -9 134 -39q47 0 48 2l1 -2h16l-55 39h-70zM273 72v-69h4l8 56zM280 -5h59l-51 56zM258 179v-41l40 86zM336 121l-22 146l-24 -167z
M299 226l-40 -86v-88l16 7zM279 47l-15 -8v-2l12 -14zM357 232l61 -39h73zM360 213h27l-61 38zM356 178v28h3l-34 39zM331 82l-46 -21l-3 -23l51 -56h8v180l-31 67zM169 226l23 33h-72zM268 309v-13h-11l52 -33zM228 196h21v-7l40 45zM146 272l20 29l102 -29l-52 33h-190
l49 -33h71zM204 199h15l62 38l-93 -26zM187 222l33 9l-21 17zM193 265h121l-101 29zM97 262l-49 32h-6v-71h44l-16 39h27zM140 208h7l1 2zM176 219l-33 -10l-1 -2h50zM162 237l21 -16l92 26h-121l-23 -33l-49 33h-27l16 -38h70q2 0 4 1t4 1z" />
    <glyph glyph-name="comma" unicode="," horiz-adv-x="265" 
d="M171 4l1 30l-33 -42q1 -1 1.5 -3t0.5 -3l11 7l-11 -9v-2q3 2 30 22zM152 -33l30 -18q1 2 2.5 7t1.5 8l-13 9h-21v-6zM103 -109l7 3l2 6zM75 -132q0 -4 2 -6l1 14q-3 -3 -3 -8zM178 7h-2v-4zM102 -104l7 -7l3 13q-4 -2 -10 -6zM140 -14v-3l12 10zM74 74h2l9 6l-2 4
q-3 -3 -9 -10zM101 86q-10 -4 -14 -7l1 -3zM111 24l-1 2l-18 5l-1 37l-11 1q-10 -6 -10 -25q0 -38 41 -38h1l-10 12zM74 71l-0.5 -1.5t-1.5 -2.5l5 4h-3zM112 -96l13 5l1 17q-4 -6 -10 -14l-2 -2q0 -1 -0.5 -3t-1.5 -3zM118 34l5 -24h3l-2 33l-11 10l9 15l-1 22q-1 0 -2 1
h-3q-5 0 -11 -2l1 -48zM134 81q-4 3 -12 3l2 -22zM112 -100l-3 -13l9 -10l4 4l2 25zM146 -91l-7 32l-3 -9q-1 -1 -1 -2l2 -25l-10 -4l-2 -25q3 2 8 8h-3zM144 -84l-16 -25h3q10 10 15 16zM104 -137q6 4 14 10l-9 9zM106 27l-8 -6l9 -12q5 0 7 1zM97 -113q-7 -6 -22 -17
l-1 -15q3 -3 7 -3q7 0 19 9l5 19zM111 24l3 -1l-2 -1l7 -18q1 0 3 1h2l-6 23l-11 8l-2 48q-4 0 -15 -11zM143 -30v-7l14 -19l16 8v1zM143 -40v-4q-1 -3 -1 -4l12 -29l-7 -12l2 -8q14 18 24 45l-15 -7zM171 0v4q-23 -15 -30 -22v-2h21l13 -9q4 22 3 34v1l-5 -2zM180 7v6
q-1 4 -1 5l-5 -13zM141 -50q0 -1 -0.5 -3.5t-1.5 -3.5v-2l7 -31l7 11zM126 -102l9 4l-1 25q-3 -4 -8 -29zM142 3q2 -2 2 -4l33 42v-30l1 1q1 1 5 13q0 15 -8 31q-1 -1 -9.5 -10l-8.5 -9q-5 -12 -15 -34zM112 21l1 -2l2 2h-3zM115 46l11 -10l-2 26zM125 40l3 -33q1 0 3 -1
l2 27zM127 44l7 -7l-2 -26q1 0 2 -0.5t1 -1.5l16 73q-7 6 -16 7l-10 -19zM141 6q5 12 15 34q5 6 18 19q-8 15 -19 23l-16 -73zM78 72h12l1 -38l17 -4l-21 49z" />
    <glyph glyph-name="hyphen" unicode="-" horiz-adv-x="419" 
d="M123 311l8 11l70 -11l-80 27l5 4l-37 7v16q-18 3 -19 3q-17 0 -30 -39q72 -21 83 -18zM143 377h-43l93 -57l-33 38q-1 1 -4 3.5t-7 8t-6 7.5zM213 359l-8 8l5 10h-23l15 -57zM205 315l-15 56h-35q4 -6 12 -15q3 -1 5 -4zM128 315h78l-71 11zM88 349l37 -7l-5 -3l80 -27
l-94 57l-32 1q-6 -1 -5 -1l19 -3v-17zM213 350l-11 -39l49 57h-41l-5 -10zM271 313l11 9l-69 -11h101l15 -11l37 7q6 15 9 31q-17 -2 -104 -25zM337 359l-131 -44l69 11l-11 -9q35 11 104 24q3 9 3 18v4l-34 -18v14zM288 371h-33l-49 -57q70 37 82 57zM309 318h-101l147 -23
l6 18l-37 -6zM202 311l131 44v-14l34 18q-2 9 -45 9h-38q-12 -20 -82 -57zM114 308l2 3h-14zM158 259h29l14 50zM204 308l44 -50h19l6 9zM190 253h28l-14 50zM217 260h29l-43 50zM354 294l-147 23l80 -27l15 8l43 -20q6 8 9 16zM288 292l-79 26l68 -41l-5 -9h24q16 -1 24 -1
q15 0 26 13l-42 19zM141 297l6 -4l44 15l-174 -27q-2 -8 -2 -11q0 -12 29 -12q7 0 50 16t47 23zM168 292l36 21l-45 -15zM135 289l19 6l-6 4zM117 311l-2 -3q2 0 -12 3h-61l6 -14l-23 3q-2 -4 -4 -16l174 27h-78zM166 289l-9 7q-21 -1 -55 -35h56l43 50zM53 261h47l37 28z
M41 311h61l-69 18q-6 -16 -9 -29l23 -3z" />
    <glyph glyph-name="hyphen" unicode="&#x2010;" horiz-adv-x="419" 
d="M123 311l8 11l70 -11l-80 27l5 4l-37 7v16q-18 3 -19 3q-17 0 -30 -39q72 -21 83 -18zM143 377h-43l93 -57l-33 38q-1 1 -4 3.5t-7 8t-6 7.5zM213 359l-8 8l5 10h-23l15 -57zM205 315l-15 56h-35q4 -6 12 -15q3 -1 5 -4zM128 315h78l-71 11zM88 349l37 -7l-5 -3l80 -27
l-94 57l-32 1q-6 -1 -5 -1l19 -3v-17zM213 350l-11 -39l49 57h-41l-5 -10zM271 313l11 9l-69 -11h101l15 -11l37 7q6 15 9 31q-17 -2 -104 -25zM337 359l-131 -44l69 11l-11 -9q35 11 104 24q3 9 3 18v4l-34 -18v14zM288 371h-33l-49 -57q70 37 82 57zM309 318h-101l147 -23
l6 18l-37 -6zM202 311l131 44v-14l34 18q-2 9 -45 9h-38q-12 -20 -82 -57zM114 308l2 3h-14zM158 259h29l14 50zM204 308l44 -50h19l6 9zM190 253h28l-14 50zM217 260h29l-43 50zM354 294l-147 23l80 -27l15 8l43 -20q6 8 9 16zM288 292l-79 26l68 -41l-5 -9h24q16 -1 24 -1
q15 0 26 13l-42 19zM141 297l6 -4l44 15l-174 -27q-2 -8 -2 -11q0 -12 29 -12q7 0 50 16t47 23zM168 292l36 21l-45 -15zM135 289l19 6l-6 4zM117 311l-2 -3q2 0 -12 3h-61l6 -14l-23 3q-2 -4 -4 -16l174 27h-78zM166 289l-9 7q-21 -1 -55 -35h56l43 50zM53 261h47l37 28z
M41 311h61l-69 18q-6 -16 -9 -29l23 -3z" />
    <glyph glyph-name="period" unicode="." horiz-adv-x="238" 
d="M133 61l-5 11l2 -13zM158 76h10q6 6 22 14l1 16l-50 -30l26 7zM165 71h11l11 -8v22q-10 -6 -22 -14zM160 71l-8 -5l24 -7l6 3v1l-11 8h-11zM129 53l-2 13l-3 -17zM136 62l-7 9l5 -11zM154 80l-26 -8h17zM190 62l-1 1v-1h1zM146 65l-13 4l11 -6zM142 62l-10 6l8 -8z
M155 70h-17l13 -4zM183 67l-5 -3l3 -2zM124 47v-2l5 3v3zM122 28l12 5l-3 22l-6 -4zM180 58l3 -1l2 4l-3 2l-1 -1zM115 39l9 5v2zM178 51l3 7h-2zM196 76l-4 -10l5 2v4q-1 3 -1 4zM198 57q1 3 1 9l1 1l-1 2l-5 -3l-2 -5zM120 42l-9 -5l9 7l3 17q-2 -3 -13 -26t-11 -25l17 8z
M149 31l7 11l-16 17l-4 -2zM145 66l-3 -2l3 -2l5 3zM148 60l16 -10l13 7l-24 6zM171 60l6 -1v4zM130 58l1 -3l3 3l-1 2zM163 70h-9l-5 -4l6 -1zM138 51l1 -3l4 3l-2 2zM142 57l2 -3l4 3l-3 2zM88 61l-12 -3l3 -9zM123 110l5 -36l4 27zM123 114l10 -9l-4 -27l25 52
q-14 6 -23 6q-5 0 -11 -2zM105 112h4l-2 -2l4 -2l12 -26l-5 36l-17 17l14 2v2q-8 0 -20 -4l-1 -16zM103 137l18 -17l-3 20zM129 140q-1 0 -2 1h-2l-2 -1h-4v-2zM110 108h-4l2 -1zM85 76h32l-27 7zM108 103l-7 -1l4 -4l5 4zM104 108l-5 -4l22 -24l-12 26zM90 100l30 -19
l-22 25zM121 65l-13 -14l-5 3l-28 -17l9 -20l-17 15q-1 0 -1 -2q8 -13 21 -20l11 5q13 30 23 50zM96 110l8 2l-12 7l2 16q-5 -2 -13 -8zM60 31v-1l1 2zM103 21l-10 -5q2 0 4.5 -1.5t3.5 -2.5zM63 54h-3q1 -3 3 -7v7zM92 74l5 7l27 -7l-30 18l7 6l-3 4l-16 -3l-1 19
q-13 -11 -18 -23l28 -21h1zM55 88q-3 -9 -3 -19q0 -5 2 -15l2 1zM97 106l-15 17l-1 -1v-19zM65 58l-6 14h25l-27 22q-1 -1 -2 -5v-34zM61 32zM168 116q-4 4 -14 10l-24 -52q12 14 38 42zM87 21l-9 21l-8 -5zM132 75l49 30v-17l7 2q-4 15 -18 27q-6 -7 -18.5 -21t-19.5 -21z
M110 55l14 15l-18 -11zM183 64l1 -1l5 3l5 10q0 2 -1 5.5t-2 5.5l-8 -2v-21zM192 59l-1 -4l7 -2v1zM133 5q13 2 24 7l-9 18zM135 52l-4 -2l4 -22l-12 -5l-4 -21h4q3 -1 4 -1t3 1h2l16 24zM183 50v7l-6 2l-13 -7l-16 10l-4 -2l16 -18l-7 -11l9 -17q25 13 31 40l-7 2zM95 72
l8 -7l24 7h-32zM72 38l9 6l-2 4zM77 55l-9 -12l2 -5l28 17l-6 5zM109 61l18 11l-24 -7zM87 72zM99 12l-2 -9q12 -4 17 -4l3 21zM90 72h-26l6 -14l13 3zM99 66l-8 6l-7 -11zM65 35l7 10l-4 9l-10 -3q0 -10 7 -16zM62 37l2 -4l1 1z" />
    <glyph glyph-name="slash" unicode="/" horiz-adv-x="416" 
d="M-11 -94q0 -14 34 -14h3l36 150q-12 -12 -31 -38q-5 -7 -22 -46q-20 -44 -20 -52zM172 101q3 6 8 17q1 5 1 20zM120 73l-20 15q-4 -4 -32 -38t-29 -36q-10 -23 -21 -73q-8 -39 -16 -77q32 0 42 22q32 70 65 140q50 111 51 135zM213 188l1 3h-7zM214 203l3 5l-10 -5h7z
M184 163q1 1 3 6v7q-1 4 -1 7zM125 118l-30 23l-3 -1q-14 -22 -29 -96zM216 154l5 -6l1 2zM205 163l1 3l-5 5zM198 158l1 3l-4 8zM196 138l1 4l-2 11zM196 197l6 14l-16 -19zM176 88l40 88l-60 -73zM121 222l-14 -31h69zM196 204q12 8 45 82q21 46 41 93q-13 -8 -86 -175z
M63 125l-2 1l-1 -3zM177 191h-70l-21 -48l1 -1zM59 87l-48 -107q14 21 31 38q8 31 17 69zM101 267l-11 -24l56 -30zM169 97l60 72l-90 -49zM141 278l-9 -22l45 -55zM276 495l-76 -312q50 103 99 206q81 171 82 186l-3 -12q18 36 18 45q0 11 -33 11q-34 0 -41 -12l11 -75z
M198 378l-7 7l-15 -32q0 10 10 -133zM186 192l75 312l57 37l-11 75q-27 -49 -61 -128q-28 -65 -56 -131l8 -7zM158 298l-11 -24l35 -77zM167 357l-14 -32l24 -101z" />
    <glyph glyph-name="zero" unicode="0" horiz-adv-x="507" 
d="M259 60q-14 0 -20 2l-2 -22q12 -2 18 -2h7q3 1 8 1.5t7 0.5l-14 20h-4zM333 56q-28 -47 -71 -48l14 -21q44 5 80 27l-13 38zM375 33q17 12 27 20l-40 17zM61 147q11 -21 24 -38l26 80zM181 76q-6 -15 -10 -40q28 -14 58 -17l2 22q-28 7 -50 35zM134 252l-2 22l-93 -36
q12 -45 29 -77l50 42zM189 99q-32 42 -44 124l-20 -17l-27 -80q36 -46 81 -67q4 25 10 40zM87 174l20 17q-1 10 -4 31zM444 250l-53 -27l-2 2q-7 -74 -30 -121l5 -14l40 -17q57 52 78 143l-12 23zM352 83l-5 14q-1 -3 -5 -9zM62 319l31 -27l5 7v20h-36zM172 605l-56 -45
l38 -59q10 40 26 66zM482 241l12 -23q2 7 4 17zM376 419l69 59l-1 -66l24 37q-12 48 -38 90l-61 -65q5 -24 7 -55zM451 483l-69 -58q3 -28 3 -57q59 40 97 45q-2 13 -8 41l-25 -37zM410 361q1 -10 1 -30h25l70 -50q6 8 6 59q0 39 -5 65q-38 -4 -97 -44zM347 549
q14 -38 20 -74l61 66q-22 33 -50 58l-18 -12zM307 636q28 -17 47 -60l13 38l18 12q-30 23 -63 35q-6 -9 -15 -25zM404 212l2 -2l53 27l-52 20zM471 248l26 -10l-10 18zM411 322h-26q0 -27 -1 -40l53 -20l16 8l10 -19l16 -6q4 22 5 33l-3 -5zM166 621l8 -38q23 38 57 45
l-2 22q-68 -11 -122 -70l3 -4zM108 329v8q0 65 6 108l-21 7l-2 73l-32 8q-42 -65 -50 -150l62 -54h37zM68 327h32l-62 54q-3 -22 -3 -45q0 -24 3 -47l56 -25zM255 621q22 0 41 -11q1 3 15 24q-26 8 -50 8q-17 0 -26 -2l3 -21q5 2 17 2zM97 474l21 -6q6 38 11 56l-39 59
l-8 -6l1 6q-14 -18 -20 -28l33 -8zM90 298l-5 -8l-32 27h-31l25 -63l-56 25q4 -32 8 -47l93 36q0 5 -0.5 15t-1.5 15zM94 593l-3 4q-2 -2 -5 -11z" />
    <glyph glyph-name="one" unicode="1" horiz-adv-x="390" 
d="M347 28l-3 -3zM176 471l4 -4l-1 13zM179 469q1 -13 1 -12l22 -21l-10 -133q2 7 30 128q27 115 27 117v100q0 20 -8 22l6 -24q-28 -25 -45 -83q-11 -47 -23 -94zM171 417l12 -154l10 133zM45 21q0 -11 12 -13l7 26q-19 -2 -19 -13zM123 568h1v1zM249 618l-6 24q-1 0 -2 1
h-2q-2 0 -33 -15t-37 -17l13 -170q10 44 34 127q0 6 33 50zM283 318v4l-28 -23zM269 282v26l-29 -19l29 24v2l-58 -33h58zM239 229v32h-58zM258 431v116l-57 -245q4 8 57 129zM37 558q0 -13 12 -13q22 5 21 5l-11 26q-22 -7 -22 -18zM267 326v40l-57 -72zM254 352v57
l-57 -129zM142 382v-44l44 -55zM231 56l10 16l-41 176l14 -186l-29 -13l-3 -39l4 -9q48 0 72 -1l-9 40zM189 271l-45 -25v-30zM262 2h19q12 -1 19 -1l-48 42zM160 35l17 8l14 198l-58 -247q27 0 40 1l1 8q-6 15 -14 32zM179 241l-33 -74l-11 9v-76q0 -48 -7 -60
q-11 -21 -53 -21q-12 0 -18 -1l-6 -27h9q11 -1 31 0q23 2 30 2q20 83 58 248zM122 572l1 1q28 0 28 -88q0 -18 -1.5 -41.5t-1.5 -22.5l13 -9l31 -129l-12 154l-3 4q0 1 1 4.5t1 4.5l-12 170q-27 -10 -81 -26l-4 -31q14 4 40 9zM259 135v57l-57 72zM207 257l58 -72v39z
M235 98l17 26v20l-58 129zM245 62l47 -42q10 -1 30 -1q28 0 28 14t-42 14q-33 0 -45 21q-8 15 -9 52l-17 -26zM174 2h5l-4 9zM119 346v-30l45 -25zM121 299v-25h45zM163 404l-14 9v-39q21 -46 44 -99zM86 589q-9 -3 -29 -9l12 -26l13 4zM195 76l-14 186l-14 -199zM174 6
l3 39l-17 -7zM136 178l11 -9l33 74l-44 -55v-10zM249 38l-7 32l-11 -16zM133 265v-26l44 26h-44z" />
    <glyph glyph-name="two" unicode="2" horiz-adv-x="513" 
d="M285 231l11 9l-37 16zM253 316l3 -8l-1 10zM229 -12l4 38l-21 -9zM465 18l-19 -16q16 2 19 16zM330 21l-12 39l-16 -24zM314 76l15 22h-22zM453 145q0 19 -11 19q-4 0 -8 -4l19 -39v24zM308 194l8 7l-27 25zM268 243l-12 38l4 -44zM260 236l-4 44l-5 -52zM240 26l37 17
l-2 25h-31zM256 257l-21 -65l16 13zM35 504q0 -12 10 -12q8 0 21 17l18 24l-16 26q-33 -41 -33 -55zM272 212l7 6l-19 32zM46 18q0 -13 20 -13h15l30 97q-65 -71 -65 -84zM332 257h-1l-3 -2zM249 254l-15 -6q-2 -3 -6 -7.5t-12.5 -14.5t-12.5 -15zM216 260l-2 -3h9zM175 163
l17 -12l42 70q-22 -18 -59 -58zM204 239l-5 -6l15 6h-10zM243 272l-2 -1l6 -5zM236 268l-2 -2l7 -3zM213 26l21 10l4 41h-33q-12 -34 -27 -87h51l1 8zM332 17h41l-49 25zM205 99q-47 0 -29 -1q-23 1 -23 10q0 7 36 40q30 28 44 38l20 65l-42 -70l-17 13q-76 -90 -76 -86
l-30 -96h90q10 30 27 87zM344 79l-14 -22l12 -40q4 -1 49 -25h62l18 16l1 5v83q-9 18 -20 39q-3 -4 -7 -14q-13 -43 -59 -43h-20q-14 1 -22 1zM309 15l15 25l-7 22h-33l3 -25l-37 -16l-4 -38l5 -8h94l-8 26zM229 -18h6l-5 7zM252 267l-1 -2l4 -6zM224 575l-3 37
q-56 -10 -98 -40l-7 -45q47 47 108 48zM337 314l-81 -34h40zM332 255l2 2h-40l38 -16l19 16h-16zM354 270l34 30l-50 -30h16zM290 272l81 34l-41 -34h1q70 36 113 91l1 53zM257 294l-1 -12l6 18zM256 300l28 48q-5 -7 -16 -22q-1 -1 -4.5 -7t-7.5 -19zM121 571
q-19 -13 -34 -31l15 -25q2 2 5.5 6t5.5 6zM232 606q37 0 65 -18l34 50q-34 8 -64 8q-22 0 -41 -4l4 -36h2zM255 312l1 -10l1 13zM274 287l154 144l-1 -53q45 59 45 118q0 39 -23 71q-13 -35 -28 -73q-9 -15 -32 -38l-36 -36q-4 -4 -6 -11q-24 -40 -73 -122zM348 548l-3 -6
q10 -24 10 -54q0 -36 -14 -70q4 12 35 42q34 34 40 43q4 4 27 73q-15 23 -44 40l6 -30zM348 550l2 7l58 37l-6 31q-29 17 -61 24l-33 -50q28 -17 40 -49z" />
    <glyph glyph-name="three" unicode="3" horiz-adv-x="504" 
d="M387 195h-23q9 -24 9 -50l43 -21l8 4l5 -11l17 -8q15 36 18 65l-15 -23zM458 103l13 -6l-5 10zM450 326l-2 1v-4zM360 242l5 3l-4 -4l4 -6q68 49 94 50q-10 18 -21 28l-2 -3v5q-11 11 -28 23l-68 -73q14 -12 20 -23zM363 243l1 -1l4 4zM354 225q8 -11 15 -30h22l63 -44
q15 23 15 40q0 48 -21 84q-26 -1 -94 -50zM78 499q0 -13 12 -13q7 0 18 19l-14 26q-16 -21 -16 -32zM316 -64l10 -7q6 3 10 7l-6 22zM321 286q12 -8 17 -13l68 73q-19 13 -43 21q-2 -1 -42 -81zM212 -64q-5 0 -15 2q-3 -11 -9 -32q25 3 49 12l-10 20q-10 -2 -15 -2zM46 -42
l28 30q-25 -5 -28 -30zM414 124l-47 -23q-6 -31 -21 -56l1 -2l-26 -41l6 -23q73 47 110 116l-10 23zM394 117q0 -12 -4 -38l47 24l-44 21q1 -2 1 -7zM433 115l10 -24q2 3 4.5 8l3.5 7zM231 -56l11 -20l2 1l2 23q-5 -2 -15 -4zM329 -31l-1 7q-33 -35 -72 -46l-2 -23
q39 12 71 33l-10 7zM199 -47q-20 4 -39 25q-22 23 -34 28l-22 -80q24 -9 49 -9q12 0 38 4q3 10 8 32zM125 567l5 31q-26 -14 -46 -37l14 -26q11 20 27 32zM212 606q11 0 21 -3l-3 34q-49 -3 -93 -28l-5 -31q36 28 80 28zM297 556q0 -1 43 68v2q-35 16 -82 16q-14 0 -21 -1
l3 -34q43 -10 57 -51zM294 524q5 -17 5 -29q0 -28 -23 -59t-23 -43q0 -9 1 -13l2 -2q39 19 69 40l22 78l47 31q-6 44 -57 66l1 -2q-44 -59 -44 -67zM328 -12l26 41l-1 2q-12 -19 -27 -36zM205 317l-30 58q-15 -11 -34 -22l40 -19l-18 -14l4 -4q16 3 38 1zM325 407
q69 46 69 98v10l-48 -31zM189 315l-40 19l-40 -24q-30 -20 -30 -29q0 -11 11 -11q2 0 27 11q30 13 58 16l-4 4zM319 297q20 40 43 81q-12 4 -36 8l-22 -81q5 -2 15 -8zM230 334l-12 45l-20 13l-3 14q-8 -7 -19 -13l30 -57q4 0 12 -0.5t12 -1.5zM252 401l-2 3v-4zM239 359h1
l-1 2v-2zM259 411q-6 -6 -9 -8l1 -16zM264 381l18 -17l-5 -59q5 -1 14 -6l22 81q-14 2 -22 2h-6q-14 0 -21 -1zM86 -11q-5 0 -13 -2l-28 -30v-5q0 -31 37 -47l22 80q-8 4 -18 4zM249 411l-1 12l-3 -9zM259 395h-9l7 -71q3 0 8 -1.5t7 -2.5l5 58zM237 381l-1 1l-1 -1v2l1 -1
l13 6v4l-4 3q0 2 3 9q0 6 -2 16q-17 -16 -43 -33l2 -14l20 -13l13 -45q12 -2 18 -4l-6 71z" />
    <glyph glyph-name="four" unicode="4" horiz-adv-x="541" 
d="M479 204q13 0 13 15l-30 -15h17zM234 208l9 -7l7 7h-16zM430 299l14 8v4l-15 -12h1zM410 291l2 2h-41l56 -25v25h-14zM416 293h-1l-2 -2zM414 294v8l-15 -8h15zM183 232l-2 7h-13zM492 -4q0 13 -33 13l32 -17q1 1 1 4zM415 412v60q0 11 -5 13l-52 -169zM495 230l16 -7
q-1 7 -12 7h-4zM434 344v29l-56 -53zM406 347v42l-56 -96zM424 300l15 13v12l-56 -25h41zM299 211l-20 15l-28 -27q10 0 22 1h16q11 0 14 -5.5t3 -27.5l37 120zM414 55q-3 10 -3 34l-16 -23zM401 87l-19 190l-20 -207zM324 37l4 41l-22 -11zM264 27q-12 -3 -23 -3
q-33 0 -33 -15q0 -12 19 -12h6h12q7 1 11 1q3 13 8 29zM140 224l3 -7q-8 7 -41 7q-29 -1 -29 7l7 14l-24 11q-27 -32 -27 -44q0 -15 7 -18.5t24 -3.5h46l78 34h-44zM181 220l-78 -34h80l10 34h-12zM265 234h-39l-11 -34h30l29 27zM323 16h9l-8 13zM304 47l22 10l21 207
q-12 -34 -24 -69q-16 -45 -16 -69q0 19 3 -40q1 -23 -5 -35q-9 -16 -31 -21q-5 -16 -8 -28q9 1 27.5 1.5t27.5 0.5l1 13zM490 232q-3 3 -16 7q-15 2 -32 0q-21 -2 -20 -2q-15 0 -15 31l-57 24l93 -87h17l31 15v5zM409 105v85l-56 97zM429 171q1 9 15 10q-12 -1 20 -1l-92 88
zM122 328l-18 17l-53 -65l25 -10q14 20 46 58zM417 33l-19 11l15 23q-1 12 -25 91q-16 49 -31 97l18 -189l-38 -18l-4 -40l7 -13q50 0 98 -3l-8 28q-10 5 -13 13zM292 238l-8 -7l20 -15l44 76l-37 -36q0 -18 -19 -18zM433 24q6 -1 17 -1h6q17 0 20 8l-33 17h-3l-15 3z
M334 298l37 -16l-37 35v-19zM349 310l37 -35l-37 63v-28zM299 456l37 -119l-15 148q-23 -9 -23 -21q0 -4 1 -8zM292 390l38 -63l-38 119v-56zM335 281h37l-37 16v-16zM279 226l37 36l-37 -16v-20zM318 274l37 16h-37v-16zM427 699q-11 -3 -53 -55l-46 -58l5 -45q19 14 31 43
q9 24 19 48q15 23 44 67zM268 496l-7 37l-25 -30l15 -26zM360 328l53 169h-3q3 0 -53 -16l17 -17zM325 545l-5 45l-47 -58l7 -37zM240 478l-15 26l-32 -38l27 -10zM350 297l13 136l-17 17l-11 -4zM361 548q27 31 55 62q48 55 48 59q0 7 -23 7q-9 0 -13 -1q-51 -60 -67 -127z
M235 422l-27 10l-70 -85l18 -16q26 31 79 91z" />
    <glyph glyph-name="five" unicode="5" horiz-adv-x="510" 
d="M353 184l41 21l-45 22q6 -19 4 -43zM206 -35q-22 -11 -55 -22l-6 -27q14 3 59 17zM425 191l13 -7l-5 11zM306 309l9 -6l29 24zM58 -46l-7 -24q1 -1 4 -1q30 0 92 15l6 28q-22 -7 -95 -18zM219 6zM392 207l-41 -21q-3 -65 -51 -116l8 -29l14 -10q78 49 109 112l-26 57z
M326 -18l9 6l-13 9zM424 187l25 -58q10 23 14 38zM40 -59q0 -9 12 -11l7 24q-19 -2 -19 -13zM282 19q-30 -26 -66 -42v-1l14 -25q37 14 79 38l-5 15zM217 -18q3 1 8.5 3t7.5 3l-13 25zM394 281h-45q24 -22 30 -52l45 -22l8 4l5 -10l39 -20q7 30 7 50q0 14 -4 38l-21 -34z
M310 33l-8 30q-10 -10 -15 -14zM166 542l54 4l-8 92l-70 -7q-21 -2 -28 -17l-10 -36l50 40zM255 355l7 -3l28 102q-4 1 -12.5 3t-13.5 3zM165 535l-12 75l-50 -40l-3 -10l19 -36q6 8 46 11zM227 464l9 -108l7 -2l9 105q-4 1 -12.5 2.5t-12.5 2.5zM250 575q19 77 38 96
l-71 -7l8 -91zM171 482l20 -14l27 -98l9 -2l-10 108zM250 545l65 4l11 37l58 38l-4 25l-93 -8q-18 -19 -37 -96zM326 590l-10 -37q21 1 43 2q31 3 38 16q3 6 10 35t7 36q0 12 -17 12q-6 0 -16 -2l3 -25zM326 296q7 -5 19 -15h45l63 -46l21 34q-9 51 -46 88q-5 0 -49 -28
q-27 -16 -53 -33zM271 312l78 83q-17 9 -39 17l-49 -96zM293 306l37 18l-28 -24l3 -1q26 17 52 33q45 28 49 28q-20 20 -52 37l-77 -83q3 -1 8.5 -3.5t7.5 -4.5zM275 344l50 96l-30 9l-28 -102zM140 479l57 -109l13 -4l-27 98q-18 13 -43 15zM91 517q3 12 12 31l-18 37
l-16 -52l22 -11v-5zM165 398l-56 27v24q-5 3 -5 13q0 4 2 12.5t2 12.5v4l-23 11q-11 -32 -21 -65q-15 -46 -15 -65t22 -21q79 -6 120 -14l-44 47zM157 444q-21 2 -51 8v-24l57 -26l-19 -15l44 -47q9 -1 25 -6z" />
    <glyph glyph-name="six" unicode="6" horiz-adv-x="543" 
d="M290 354l-4 36q-7 -1 -20 -5l8 -29q6 0 16 -2zM410 89l-8 13q-6 -29 -16 -50zM478 690q0 9 -9 9t-23 -4l4 -24q23 8 27 13q1 2 1 6zM268 374l-8 28q-16 -6 -23 -9l12 -21q7 2 19 2zM406 329l-34 -15q3 -3 6 -9zM199 345q0 -8 8 -8q7 0 19 9l-15 15q-12 -12 -12 -16z
M141 282l3 -3v3h-3zM125 119l4 4l-1 4zM270 6l1 12q-2 0 -10 2zM346 44l29 -16l-12 41q-2 -4 -8 -12t-9 -13zM118 310q3 62 32 125l-21 8l-1 70l-8 3q-59 -62 -82 -136l77 -70h3zM162 160q-10 33 -14 57l-86 -37q14 -47 42 -80q60 53 58 60zM84 73q13 -17 30 -31l26 83z
M221 491l-13 63q-21 -16 -46 -39l35 -59q8 14 24 35zM88 282h38l-77 70q-14 -42 -14 -94v-3l78 -34zM131 441l21 -8q14 28 22 41l-35 59q-12 -12 -18 -19l9 -3zM237 378q-16 -7 -25 -16l15 -14q13 8 23 10zM110 278l-3 3h-37l25 -61l-79 34q2 -38 12 -74l85 37q-4 30 -3 61z
M250 2q-20 7 -34 18l-11 -35q20 -5 49 -5h4l1 8zM487 181l-55 -27l-17 16v-10q0 -25 -4 -45l7 -13q-10 -14 -27 -43l13 -41l3 -2q91 51 102 151l-2 6zM483 201l3 -6v4zM374 32q1 0 2 1h1l-4 2zM269 -7h1h3q1 1 2 1l-5 8zM339 66l4 6q-31 -36 -69 -30l-1 -12l5 -8q47 1 91 25
v3zM159 151q-3 -1 -29 -87q36 -30 83 -41l11 35q-40 31 -65 93zM269 572l-5 47q-31 -20 -56 -39l12 -64q21 28 49 56zM393 324l34 14l-28 -24l2 -3l74 44q-17 19 -41 34l-53 -50q8 -7 12 -15zM400 274h61l50 -35q-7 49 -41 89l-75 -43zM364 281q5 -11 11 -33l78 -34l12 7
l8 -15l3 -2q1 6 1 17q0 8 -2 24l-50 36h-61zM384 199l17 -16l55 27l-78 34q4 -15 6 -45zM292 374q5 -1 13 -4l5 43q-7 0 -21 -3zM489 199l20 -9l-8 15zM342 624q36 26 110 54l-4 23q-26 -6 -74 -26q-32 -45 -32 -51zM329 621q0 5 32 50q-52 -24 -90 -47l5 -47q25 25 53 44z
M356 338l53 50q-15 8 -33 13l-31 -52q6 -5 11 -11zM349 371l31 52q-9 3 -27 5l-15 -49q6 -3 11 -8zM308 395l-4 -43q8 -4 11 -6l15 49q-2 0 -6 1h-6h-5h-2q-2 -1 -3 -1z" />
    <glyph glyph-name="seven" unicode="7" horiz-adv-x="553" 
d="M285 93l21 48l-17 -8zM279 40h1l-1 1v-1zM412 374l-8 -20l37 32zM263 104l24 10l6 62q-25 -54 -49 -108q-41 -91 -41 -102q0 -7 16 -7q14 0 28 27l16 40q20 44 20 48zM340 255l14 -43q8 20 13 30l-19 31zM359 321l-7 -14l24 -22l12 25zM340 297l19 -31l12 24l-24 22z
M284 86l17 8q1 3 20 47q0 2 -6 62q-10 -20 -25 -55q-2 -22 -6 -62zM386 352h35l13 29zM323 228q0 -4 6 -61l19 45l-14 43q-6 -11 -11 -27zM391 311l28 -11l14 29h-35zM290 515q0 2 1 3.5t1 3.5l-9 88h-63l20 -95h50zM141 625l20 16h-23l-2 -9zM202 523h35l-20 95h-43
l-21 -17zM141 602l7 5l-5 8zM136 625l-7 -6l2 13l-5 9h-39q-31 0 -31 -17q0 -12 1 -18l86 -26v-35q7 0 21 1h20zM380 373l28 12q-11 -9 -21 -18q-18 -15 -18 -18l48 28l51 105q-26 -21 -66 -60q-19 -36 -22 -49zM135 640h-7l5 -9zM41 603q0 -16 4 -37q5 -30 13 -30
q13 0 36.5 2.5t32.5 2.5v35zM451 555q19 18 51 55q4 4 17 43q-31 -2 -94 -2l-31 -94q53 0 57 -2zM431 524q6 -2 6 -7q0 -8 -17 -46q-9 -21 -18 -41q11 10 33 29.5t33 29.5q3 4 30.5 61t27.5 61q0 12 -15 12q-8 0 -12 -1q-3 -22 -27 -54q-20 -28 -41 -44zM283 79l4 40
l-23 -11zM324 639h-44l9 -88zM290 516h3l-1 6zM295 522h73l31 94h-69l-35 -88v-6z" />
    <glyph glyph-name="eight" unicode="8" horiz-adv-x="586" 
d="M307 300l15 40l-25 -37zM354 334l5 43l-14 -40zM354 320l-5 47l-5 -44q6 -2 10 -3zM384 331l7 6h-49l159 -60l16 8l11 -19l13 -5q-21 48 -65 70q-5 3 -12 6h-69q-5 -2 -11 -6zM467 343q-21 11 -39 17l-30 -17h69zM486 274l27 -11l-10 19zM425 249l54 27l-159 61zM424 337
h-4l-7 -6zM399 343l30 17l-9 3l-25 -20h4zM212 285l-10 8l-26 -10l-26 -76l9 7q14 44 53 71zM391 304l-42 63l18 -53q4 -1 12 -4.5t12 -5.5zM369 338l25 20q-3 2 -9 4l-65 -24h49zM350 251l-19 52l5 -47q5 -2 14 -5zM203 310l-6 -1l-7 -19l27 10zM335 344l65 24l-3 2
q1 4 8 6q72 20 103 62l1 51zM143 603l-4 6l-3 -2l-2 -11zM83 137q10 -35 41 -61l45 133zM105 270q-2 -2 -6 -4l9 -4zM155 275q-28 -11 -85 -33q-12 -5 -22 -36q-9 -26 -9 -43q0 -16 5 -36l86 72zM135 498l36 -11q-15 23 -15 51q0 12 3 22l-31 47l-8 -7l2 12q-15 -12 -28 -30
l40 -10zM308 346l-105 89l9 7l-15 17l-36 11l-2 74l-39 10q-25 -36 -25 -79q0 -88 96 -128l24 35zM302 344l-93 35l-24 -35h117zM176 304q-36 -9 -66 -30l3 -8l-9 4q-7 -5 -20 -18l85 33zM479 276l-54 -27l-105 88q14 -22 42 -64q21 -14 41 -29q31 -25 31 -74q0 -36 -17 -63
l56 -23q58 45 58 118q0 16 -25 64zM512 263l23 -42q-4 22 -10 37zM417 58l14 -39q31 13 53 31l-56 23q-3 -5 -11 -15zM138 150q0 23 7 41l-10 -7l-44 -134q35 -29 92 -45l8 36q-53 36 -53 109zM332 12l14 -21q41 6 76 21l-14 40q-29 -34 -76 -40zM229 71l-8 -35q38 -9 63 -9
l3 23q-33 3 -58 21zM304 43q-3 0 -8 1h-9l-3 -23h12q26 0 46 4l-14 20q-16 -2 -24 -2zM213 318q0 -1 -26 -10l14 -11l93 36h-116q35 -14 35 -15zM253 437l42 -64l-19 55q-16 6 -23 9zM334 427l20 -55l-6 50q-4 2 -14 5zM343 417l6 -50l5 47q-2 1 -5.5 2t-5.5 1zM212 281
q20 13 30 13q6 0 14 -2l39 32l-93 -36zM186 464l-9 -7l105 -88l-42 64q-31 11 -54 31zM329 389l-5 -47l15 44q-6 2 -10 3zM184 640q-24 -10 -47 -28l4 -7zM330 336l25 37l-39 -33q8 -2 14 -4zM286 641l-3 21q-34 -2 -65 -12l8 -33q25 21 60 24zM305 649q20 0 39 -6
q7 21 11 25q-11 2 -34 2h-8q-14 0 -22 -1l3 -21q1 0 5 1h6zM176 577q8 32 34 54l-7 33q-16 -6 -58 -41zM429 494q-1 -33 -23 -71q-26 -44 -56 -40l-28 -42l173 145l-1 -50q19 27 19 57q0 39 -24 69q0 -3 -28 -33q-31 -33 -32 -35zM347 394l-16 -44l28 42q-4 0 -12 2z
M408 577q33 -37 28 -71q61 61 61 67q-23 28 -61 45l-17 -11zM354 638q34 -11 58 -36l10 30l18 11q-38 16 -75 20q-4 -11 -11 -25z" />
    <glyph glyph-name="nine" unicode="9" horiz-adv-x="508" 
d="M183 72q-57 -42 -114 -66l-8 -28q47 13 107 44q6 18 15 50zM224 22l3 41q-30 -28 -47 -40q-6 -17 -15 -51q16 8 45 24l-9 15zM348 312v1l-22 -18h1l19 12q2 1 2 5zM330 296l-20 -12h6q11 6 14 12zM111 283l-5 -7q34 -17 65 -17q25 11 53 24h-113zM111 284q4 -3 12 -7l4 7
h-16zM162 323l87 -38l-11 11q-40 4 -69 40q-26 31 -34 73l-24 9l-1 69l-54 20q-17 -36 -17 -76q0 -96 80 -146h17zM246 304l24 23l-53 -23q4 -1 12 -1q11 0 17 1zM313 283l1 1zM203 40l9 -15q8 4 11 6l2 20zM311 158q-5 -8 -17 -24l20 -65q20 14 30 31zM347 189l-31 30
q-10 -16 -16 -24l34 -58l-10 -15q50 43 81 93l-4 2zM88 442l23 -9q-4 20 -4 44q0 12 2 34l-30 53l-6 -4l2 11l-7 12q-23 -23 -35 -51l54 -21zM38 -18q0 -10 12 -10q2 0 8 2l8 27q-2 -1 -6.5 -3t-7.5 -3q-14 -4 -14 -13zM263 130l6 -54l-39 -18l-2 -19q39 22 76 51l-20 65
q-12 -16 -21 -25zM434 202l4 -1q3 3 4 5zM153 592l-55 -45l30 -54q7 46 29 78zM79 565l6 4l-4 6zM203 223q3 0 11 2l13 21zM157 327h113l-87 39zM232 250q2 1 7 1l6 21zM258 281l-2 18l-2 -19q2 0 4 1zM287 299l-25 11l15 -15q3 2 10 4zM277 588q27 -16 49 -50l6 21l35 23
q-32 24 -72 35q0 -1 -9 -14t-9 -15zM257 273l-5 18l2 -19q1 0 3 1zM239 252l-6 -20h4zM285 311l-15 15l9 -16q1 0 3 1h3zM275 302l-9 16l5 -17zM317 219l31 -31l54 28l-71 31q-4 -10 -14 -28zM415 445l-48 -46q1 -30 -8 -71q51 38 100 44q1 7 1 20q0 29 -6 56l-40 -66z
M378 318q-6 -26 -11 -38h29l51 -37q26 56 31 120q-55 -8 -100 -45zM381 268q-4 -12 -14 -36l71 -31l7 4q7 10 15 27l-50 36h-29zM350 576q21 -36 31 -82q54 47 55 76q-19 29 -45 49l-35 -22zM229 77l-4 -42l38 18l-5 54q-12 -15 -29 -30zM375 473q6 -30 6 -61l48 46l-1 -62
l40 65q-10 46 -37 88q-1 -29 -56 -76zM235 645q23 0 46 -13q0 1 18 28q-24 7 -53 7q-9 0 -25 -2l2 -20h12zM240 301l11 -11l-6 11h-5zM260 330l6 -11l-3 11h-3zM232 340l3 -11l-1 11h-2zM84 601q-4 -3 -12 -11l8 -13zM267 334l1 -11l1 11h-2zM348 284h-6l-1 -1l1 1h-40
l25 -11q7 3 21 11zM100 544l56 45l4 -21q22 30 57 36l-2 20q-66 -6 -114 -50l-4 -24zM325 309q0 5 -5 7l-57 -25h41zM318 318q-3 0 -20 -6.5t-22 -7.5l-12 -12l56 25q0 1 -2 1zM270 331l-4 -11l7 11h-3zM261 319l-1 -11l4 11h-3zM274 334l-6 -11l12 12q-2 -1 -6 -1z" />
    <glyph glyph-name="colon" unicode=":" horiz-adv-x="265" 
d="M143 51l-5 11l2 -13zM168 66h10q6 6 22 14l1 16l-50 -30l26 7zM175 61h11l11 -8v22q-10 -6 -22 -14zM170 61l-8 -5l24 -7l6 3v1l-11 8h-11zM139 43l-2 13l-3 -17zM146 52l-7 9l5 -11zM164 70l-26 -8h17zM200 52l-1 1v-1h1zM156 55l-13 4l11 -6zM152 52l-10 6l8 -8z
M165 60h-17l13 -4zM193 57l-5 -3l3 -2zM134 37v-2l5 3v3zM132 18l12 5l-3 22l-6 -4zM190 48l3 -1l2 4l-3 2l-1 -1zM125 29l9 5v2zM188 41l3 7h-2zM206 66l-4 -10l5 2v4q-1 3 -1 4zM208 47q1 3 1 9l1 1l-1 2l-5 -3l-2 -5zM130 32l-9 -5l9 7l3 17q-2 -3 -13 -26t-11 -25l17 8z
M159 21l7 11l-16 17l-4 -2zM155 56l-3 -2l3 -2l5 3zM158 50l16 -10l13 7l-24 6zM181 50l6 -1v4zM140 48l1 -3l3 3l-1 2zM173 60h-9l-5 -4l6 -1zM148 41l1 -3l4 3l-2 2zM152 47l2 -3l4 3l-3 2zM98 51l-12 -3l3 -9zM133 100l5 -36l4 27zM133 104l10 -9l-4 -27l25 52
q-14 6 -23 6q-5 0 -11 -2zM115 102h4l-2 -2l4 -2l12 -26l-5 36l-17 17l14 2v2q-8 0 -20 -4l-1 -16zM113 127l18 -17l-3 20zM139 130q-1 0 -2 1h-2l-2 -1h-4v-2zM120 98h-4l2 -1zM95 66h32l-27 7zM118 93l-7 -1l4 -4l5 4zM114 98l-5 -4l22 -24l-12 26zM100 90l30 -19l-22 25z
M131 55l-13 -14l-5 3l-28 -17l9 -20l-17 15q-1 0 -1 -2q8 -13 21 -20l11 5q13 30 23 50zM106 100l8 2l-12 7l2 16q-5 -2 -13 -8zM70 21v-1l1 2zM113 11l-10 -5q2 0 4.5 -1.5t3.5 -2.5zM73 44h-3q1 -3 3 -7v7zM102 64l5 7l27 -7l-30 18l7 6l-3 4l-16 -3l-1 19
q-13 -11 -18 -23l28 -21h1zM65 78q-3 -9 -3 -19q0 -5 2 -15l2 1zM107 96l-15 17l-1 -1v-19zM75 48l-6 14h25l-27 22q-1 -1 -2 -5v-34zM71 22zM178 106q-4 4 -14 10l-24 -52q12 14 38 42zM97 11l-9 21l-8 -5zM142 65l49 30v-17l7 2q-4 15 -18 27q-6 -7 -18.5 -21t-19.5 -21z
M120 45l14 15l-18 -11zM193 54l1 -1l5 3l5 10q0 2 -1 5.5t-2 5.5l-8 -2v-21zM202 49l-1 -4l7 -2v1zM143 -5q13 2 24 7l-9 18zM145 42l-4 -2l4 -22l-12 -5l-4 -21q2 0 4 -1h4h3q1 1 2 1l16 24zM193 40v7l-6 2l-13 -7l-16 10l-4 -2l16 -18l-7 -11l9 -17q25 13 31 40l-7 2z
M105 62l8 -7l24 7h-32zM82 28l9 6l-2 4zM87 45l-9 -12l2 -5l28 17l-6 5zM119 51l18 11l-24 -7zM97 62zM109 2l-2 -9q12 -4 17 -4l3 21zM100 62h-26l6 -14l13 3zM109 56l-8 6l-7 -11zM75 25l7 10l-4 9l-10 -3q0 -10 7 -16zM72 27l2 -4l1 1zM133 381l-5 11l2 -13zM158 396h10
q6 6 22 14l1 16l-50 -30l26 7zM165 391h11l11 -8v22q-10 -6 -22 -14zM160 391l-8 -5l24 -7l6 3v1l-11 8h-11zM129 373l-2 13l-3 -17zM136 382l-7 9l5 -11zM154 400l-26 -8h17zM190 382l-1 1v-1h1zM146 385l-13 4l11 -6zM142 382l-10 6l8 -8zM155 390h-17l13 -4zM183 387
l-5 -3l3 -2zM124 367v-2l5 3v3zM122 348l12 5l-3 22l-6 -4zM180 378l3 -1l2 4l-3 2l-1 -1zM115 359l9 5v2zM178 371l3 7h-2zM196 396l-4 -10l5 2v4q-1 3 -1 4zM198 377q1 3 1 9l1 1l-1 2l-5 -3l-2 -5zM120 362l-9 -5l9 7l3 17q-2 -3 -13 -26t-11 -25l17 8zM149 351l7 11
l-16 17l-4 -2zM145 386l-3 -2l3 -2l5 3zM148 380l16 -10l13 7l-24 6zM171 380l6 -1v4zM130 378l1 -3l3 3l-1 2zM163 390h-9l-5 -4l6 -1zM138 371l1 -3l4 3l-2 2zM142 377l2 -3l4 3l-3 2zM88 381l-12 -3l3 -9zM123 430l5 -36l4 27zM123 434l10 -9l-4 -27l25 52q-14 6 -23 6
q-5 0 -11 -2zM105 432h4l-2 -2l4 -2l12 -26l-5 36l-17 17l14 2v2q-8 0 -20 -4l-1 -16zM103 457l18 -17l-3 20zM129 460q-1 0 -2 1h-2l-2 -1h-4v-2zM110 428h-4l2 -1zM85 396h32l-27 7zM108 423l-7 -1l4 -4l5 4zM104 428l-5 -4l22 -24l-12 26zM90 420l30 -19l-22 25zM121 385
l-13 -14l-5 3l-28 -17l9 -20l-17 15q-1 0 -1 -2q8 -13 21 -20l11 5q13 30 23 50zM96 430l8 2l-12 7l2 16q-5 -2 -13 -8zM60 351v-1l1 2zM103 341l-10 -5q2 0 4.5 -1.5t3.5 -2.5zM63 374h-3q1 -3 3 -7v7zM92 394l5 7l27 -7l-30 18l7 6l-3 4l-16 -3l-1 19q-13 -11 -18 -23
l28 -21h1zM55 408q-3 -9 -3 -19q0 -5 2 -15l2 1zM97 426l-15 17l-1 -1v-19zM65 378l-6 14h25l-27 22q-1 -1 -2 -5v-34zM61 352zM168 436q-4 4 -14 10l-24 -52q12 14 38 42zM87 341l-9 21l-8 -5zM132 395l49 30v-17l7 2q-4 15 -18 27q-6 -7 -18.5 -21t-19.5 -21zM110 375
l14 15l-18 -11zM183 384l1 -1l5 3l5 10q0 2 -1 5.5t-2 5.5l-8 -2v-21zM192 379l-1 -4l7 -2v1zM133 325q13 2 24 7l-9 18zM135 372l-4 -2l4 -22l-12 -5l-4 -21h4q3 -1 4 -1t3 1h2l16 24zM183 370v7l-6 2l-13 -7l-16 10l-4 -2l16 -18l-7 -11l9 -17q25 13 31 40l-7 2zM95 392
l8 -7l24 7h-32zM72 358l9 6l-2 4zM77 375l-9 -12l2 -5l28 17l-6 5zM109 381l18 11l-24 -7zM87 392zM99 332l-2 -9q12 -4 17 -4l3 21zM90 392h-26l6 -14l13 3zM99 386l-8 6l-7 -11zM65 355l7 10l-4 9l-10 -3q0 -10 7 -16zM62 357l2 -4l1 1z" />
    <glyph glyph-name="semicolon" unicode=";" horiz-adv-x="265" 
d="M133 381l-5 11l2 -13zM158 396h10q6 6 22 14l1 16l-50 -30l26 7zM165 391h11l11 -8v22q-10 -6 -22 -14zM160 391l-8 -5l24 -7l6 3v1l-11 8h-11zM129 373l-2 13l-3 -17zM136 382l-7 9l5 -11zM154 400l-26 -8h17zM190 382l-1 1v-1h1zM146 385l-13 4l11 -6zM142 382l-10 6
l8 -8zM155 390h-17l13 -4zM183 387l-5 -3l3 -2zM124 367v-2l5 3v3zM122 348l12 5l-3 22l-6 -4zM180 378l3 -1l2 4l-3 2l-1 -1zM115 359l9 5v2zM178 371l3 7h-2zM196 396l-4 -10l5 2v4q-1 3 -1 4zM198 377q1 3 1 9l1 1l-1 2l-5 -3l-2 -5zM120 362l-9 -5l9 7l3 17
q-2 -3 -13 -26t-11 -25l17 8zM149 351l7 11l-16 17l-4 -2zM145 386l-3 -2l3 -2l5 3zM148 380l16 -10l13 7l-24 6zM171 380l6 -1v4zM130 378l1 -3l3 3l-1 2zM163 390h-9l-5 -4l6 -1zM138 371l1 -3l4 3l-2 2zM142 377l2 -3l4 3l-3 2zM88 381l-12 -3l3 -9zM123 430l5 -36l4 27z
M123 434l10 -9l-4 -27l25 52q-14 6 -23 6q-5 0 -11 -2zM105 432h4l-2 -2l4 -2l12 -26l-5 36l-17 17l14 2v2q-8 0 -20 -4l-1 -16zM103 457l18 -17l-3 20zM129 460q-1 0 -2 1h-2l-2 -1h-4v-2zM110 428h-4l2 -1zM85 396h32l-27 7zM108 423l-7 -1l4 -4l5 4zM104 428l-5 -4
l22 -24l-12 26zM90 420l30 -19l-22 25zM121 385l-13 -14l-5 3l-28 -17l9 -20l-17 15q-1 0 -1 -2q8 -13 21 -20l11 5q13 30 23 50zM96 430l8 2l-12 7l2 16q-5 -2 -13 -8zM60 351v-1l1 2zM103 341l-10 -5q2 0 4.5 -1.5t3.5 -2.5zM63 374h-3q1 -3 3 -7v7zM92 394l5 7l27 -7
l-30 18l7 6l-3 4l-16 -3l-1 19q-13 -11 -18 -23l28 -21h1zM55 408q-3 -9 -3 -19q0 -5 2 -15l2 1zM97 426l-15 17l-1 -1v-19zM65 378l-6 14h25l-27 22q-1 -1 -2 -5v-34zM61 352zM168 436q-4 4 -14 10l-24 -52q12 14 38 42zM87 341l-9 21l-8 -5zM132 395l49 30v-17l7 2
q-4 15 -18 27q-6 -7 -18.5 -21t-19.5 -21zM110 375l14 15l-18 -11zM183 384l1 -1l5 3l5 10q0 2 -1 5.5t-2 5.5l-8 -2v-21zM192 379l-1 -4l7 -2v1zM133 325q13 2 24 7l-9 18zM135 372l-4 -2l4 -22l-12 -5l-4 -21h4q3 -1 4 -1t3 1h2l16 24zM183 370v7l-6 2l-13 -7l-16 10
l-4 -2l16 -18l-7 -11l9 -17q25 13 31 40l-7 2zM95 392l8 -7l24 7h-32zM72 358l9 6l-2 4zM77 375l-9 -12l2 -5l28 17l-6 5zM109 381l18 11l-24 -7zM87 392zM99 332l-2 -9q12 -4 17 -4l3 21zM90 392h-26l6 -14l13 3zM99 386l-8 6l-7 -11zM65 355l7 10l-4 9l-10 -3q0 -10 7 -16
zM62 357l2 -4l1 1zM171 4l1 30l-33 -42q1 -1 1.5 -3t0.5 -3l11 7l-11 -9v-2q3 2 30 22zM152 -33l30 -18q1 2 2.5 7t1.5 8l-13 9h-21v-6zM103 -109l7 3l2 6zM75 -132q0 -4 2 -6l1 14q-3 -3 -3 -8zM178 7h-2v-4zM102 -104l7 -7l3 13q-4 -2 -10 -6zM140 -14v-3l12 10zM74 74h2
l9 6l-2 4q-3 -3 -9 -10zM101 86q-10 -4 -14 -7l1 -3zM111 24l-1 2l-18 5l-1 37l-11 1q-10 -6 -10 -25q0 -38 41 -38h1l-10 12zM74 71l-0.5 -1.5t-1.5 -2.5l5 4h-3zM112 -96l13 5l1 17q-4 -6 -10 -14l-2 -2q0 -1 -0.5 -3t-1.5 -3zM118 34l5 -24h3l-2 33l-11 10l9 15l-1 22
q-1 0 -2 1h-3q-5 0 -11 -2l1 -48zM134 81q-4 3 -12 3l2 -22zM112 -100l-3 -13l9 -10l4 4l2 25zM146 -91l-7 32l-3 -9q-1 -1 -1 -2l2 -25l-10 -4l-2 -25q3 2 8 8h-3zM144 -84l-16 -25h3q10 10 15 16zM104 -137q6 4 14 10l-9 9zM106 27l-8 -6l9 -12q5 0 7 1zM97 -113
q-7 -6 -22 -17l-1 -15q3 -3 7 -3q7 0 19 9l5 19zM111 24l3 -1l-2 -1l7 -18q1 0 3 1h2l-6 23l-11 8l-2 48q-4 0 -15 -11zM143 -30v-7l14 -19l16 8v1zM143 -40v-4q-1 -3 -1 -4l12 -29l-7 -12l2 -8q14 18 24 45l-15 -7zM171 0v4q-23 -15 -30 -22v-2h21l13 -9q4 22 3 34v1l-5 -2
zM180 7v6q-1 4 -1 5l-5 -13zM141 -50q0 -1 -0.5 -3.5t-1.5 -3.5v-2l7 -31l7 11zM126 -102l9 4l-1 25q-3 -4 -8 -29zM142 3q2 -2 2 -4l33 42v-30l1 1q1 1 5 13q0 15 -8 31q-1 -1 -9.5 -10l-8.5 -9q-5 -12 -15 -34zM112 21l1 -2l2 2h-3zM115 46l11 -10l-2 26zM125 40l3 -33
q1 0 3 -1l2 27zM127 44l7 -7l-2 -26q1 0 2 -0.5t1 -1.5l16 73q-7 6 -16 7l-10 -19zM141 6q5 12 15 34q5 6 18 19q-8 15 -19 23l-16 -73zM78 72h12l1 -38l17 -4l-21 49z" />
    <glyph glyph-name="less" unicode="&#x3c;" horiz-adv-x="600" 
 />
    <glyph glyph-name="equal" unicode="=" horiz-adv-x="611" 
d="M303 364l7 34l-30 29l9 9h-18l15 -72h17zM251 387h18l-16 72h-59l6 -9q4 -8 9 -17q1 -2 14 -11q5 -2 7 -4q7 -11 21 -31zM315 418l-8 -34h18l50 72h-82l-8 -10zM238 372h23q-7 12 -21 31q-5 5 -15 10q-5 2 -15 22l-5 10h-62zM397 365h101v43zM94 239q-24 -10 -51 -21v-51
h30l51 72h-30zM47 241v-22l51 22h-51zM566 381v26l-36 -35q24 8 36 9zM399 174l-20 28l-16 -26zM355 371q51 31 81 72h-55l-50 -72h24zM525 371l-16 -4h11zM344 363h40q53 21 101 42l-1 -42q2 -1 3 0q27 6 53 38v34h-114q-30 -39 -82 -72zM262 177l2 7l-7 -3zM375 210l18 28
h-37zM398 180l95 -7l47 41l-4 -51h11v73h-151l-18 -28zM177 395l-64 6l-1 42h-84v-73h158l-26 12zM488 175l-95 7l12 -17h126l4 51zM518 366h41v13q-17 -2 -36 -8zM369 167l16 26l-19 28h-39l3 -17l-48 -21l-1 -8l35 -27h100l-11 17zM212 229h-109l-51 -72h121q-1 24 39 72z
M318 218l-4 16h-36l-9 -38zM142 440h-19l1 -41l64 -7l-17 -13q2 -1 26 -11h40zM261 152h42l-36 27zM261 199l7 3l8 39h-39q-12 -16 -34 -49q-2 -11 -6 -24h63l6 27z" />
    <glyph glyph-name="greater" unicode="&#x3e;" horiz-adv-x="600" 
 />
    <glyph glyph-name="question" unicode="?" horiz-adv-x="316" 
d="M101 176q12 0 12 28l-18 -27q2 -1 6 -1zM115 81q-12 4 -20 4t-21 -5q-16 -6 -17 -13l-9 -48q12 -33 47 -33h2q6 32 18 95zM83 157l17 27v2l-22 17q0 2 -5 -24q0 -18 10 -22zM105 197q0 25 5 36l-34 -24l3 -20l5 25zM141 17q16 14 16 34q0 4 -2 12l-11 -5zM131 397
l22 -113l1 1l-8 124zM144 74l1 24q-7 10 -19 15q-5 -32 -18 -94q18 0 33 13l-12 35zM144 42l11 5q-3 11 -10 20zM135 285l-45 32l-26 -37l-2 4v-4h67zM49 54q0 2 3 -16l10 48q-13 -15 -13 -32zM87 579zM129 67l12 -35l3 42zM120 270h-66l8 -50l35 25v1q2 2 5 7q7 8 18 17z
M135 600l-3 43q-14 2 -21 2h-8q-14 0 -28 -3l-12 -95q17 1 38 21q30 29 34 32zM156 422l-9 -8l7 -123l1 1l8 123zM149 303l-21 113l-16 -12l36 -102zM93 367l55 -85l2 1l-37 102l-10 -8l2 -1zM85 321l45 -33l2 2l-54 85l12 9l-3 2q-36 -28 -36 -54q0 -44 8 -48zM58 570
l12 95q-46 -7 -46 -47q0 -43 28 -47v0h2q1 -1 2 -1h2zM270 448l-83 -128q98 84 107 146l-25 -56zM163 293q11 5 92 137v-39q9 21 18 43t9 44q0 36 -16 71l-14 -84q-41 -41 -44 -47q0 -1 -45 -125zM157 422l7 -7l-6 -121l30 158q-16 -18 -31 -30zM196 611q20 -17 27 -49
l24 15l-2 20q-20 23 -42 37l1 -9zM219 544q3 -12 3 -26q0 -40 -34 -77l-30 -158l3 3l32 94q25 59 56 78l15 83q-11 23 -24 38l2 -20zM166 608q15 0 26 -11l9 13l-2 9q-28 18 -65 23l3 -43q12 9 29 9z" />
    <glyph glyph-name="at" unicode="@" horiz-adv-x="618" 
d="M276 382l-28 32q-14 -14 -23 -27l38 -25q8 14 13 20zM356 481v3l-21 21q-9 0 -13 -1l4 -29q14 8 30 6zM288 442q13 13 24 18l-4 29q-21 -4 -40 -17l10 -7zM216 280v1h-1zM283 424l-10 23l-10 7q-6 -3 -23 -18l27 -32q10 14 16 20zM199 316h-15q-7 -18 -8 -34zM436 86
q18 12 26 19l-34 8l-3 -1zM179 361l26 -7q6 14 10 20l-38 25q-24 -30 -35 -68h15zM359 449q17 -3 26 -17l9 21q-20 20 -53 20h-3l22 -21zM177 269l35 11l-23 18zM165 316h39q3 7 9 23l-26 7zM419 189q-24 0 -24 28q0 1 3 22l-42 49l-5 -13l51 -114h8l19 30q-6 -2 -10 -2z
M556 461l-12 -8q8 -16 11 -32zM433 183l-19 -30q77 6 124 94l-28 9q-33 -62 -77 -73zM336 62l23 -26q41 9 78 33l-11 26q-45 -29 -90 -33zM409 405q19 23 57 66q-12 -2 -36 -2l-7 -28q-6 9 -14 17l-10 -21q10 -15 10 -32zM515 143l-29 6q-17 -14 -53 -42l35 -8q1 1 47 44z
M558 267l-13 -7l-3 -5l28 -9l1 2zM416 410q0 -7 -10 -32l63 40l16 60l-12 -2zM419 341l57 17l11 40l-63 -41zM422 317l11 5l5 16l-26 -21h10zM383 320h33l25 21l2 6l-57 -17zM414 296l25 12h-10zM514 434l12 8l-1 -41q0 -3 2 -11t2 -11l26 32q-14 57 -54 94l-22 -23
q22 -19 35 -48zM516 268l13 7l13 -19q3 5 7 15l-24 17q-1 -3 -4 -9.5t-5 -10.5zM564 384l30 9q-1 10 -5 28l-25 -33v-4zM580 352q0 -37 -12 -70l24 -17q19 44 19 90v10q-1 7 -1 10l-31 -8q1 -5 1 -15zM451 549q32 -14 55 -36l21 23q-25 23 -57 37l-11 -7zM237 515l-9 29
q-32 -13 -60 -35l20 -24q23 19 49 30zM353 541q5 10 16 28q-10 1 -31 1q-19 0 -40 -3l5 -28q27 3 50 2zM363 557q39 -2 71 -16l8 18l11 7q-32 14 -74 19q-2 -2 -16 -28zM296 576l-4 28q-37 -5 -70 -18l9 -29q35 15 65 19zM166 291l23 -18h1q3 10 9 28h-39l-24 -34
q0 -4 -1 -10l19 6zM356 172l5 7h1q2 -58 49 -59l-52 113q-4 -12 -9 -22zM314 184l-5 -32q22 17 34 34l-5 39q-13 -28 -24 -41zM446 242l-45 29l-4 -9l42 -50q1 5 3.5 15t3.5 15zM391 304l14 12h-33l-3 -9l49 -15l7 24h-10q-11 -6 -24 -12zM451 318h9l2 6zM402 270l46 -29
l6 23l-49 15zM221 55l-8 -31q33 -11 67 -12l4 30q-34 2 -63 13zM255 143l-12 -26q26 1 51 20l4 32q-19 -25 -43 -26zM291 22l-4 -30q1 0 5 -1h6q23 0 51 5l-23 26q-17 -1 -35 0zM266 183q-45 0 -38 64l-45 -29q18 -61 71 -61h5l11 26h-4zM167 265q-1 -4 -1 -13v-4
q0 -12 1 -18l18 40zM220 281l-1 1l-35 -11l-18 -40l3 -15l44 28q1 13 7 37zM57 258l-37 15q1 -15 7 -41l33 10q-2 10 -3 16zM149 484q11 12 21 21l-20 24q-1 0 -11 -8l9 -1zM51 294q0 17 6 47l-33 23q-8 -34 -8 -63q0 -12 1 -18l37 -15q-3 14 -3 26zM106 115l-15 -34
q44 -44 96 -61l7 31q-52 20 -88 64zM161 470l-1 36l-9 1q-65 -56 -87 -140l33 -23q18 75 64 126zM87 243l-33 -10q9 -41 30 -73l28 18q-18 33 -25 65zM113 173l-28 -19q13 -21 32 -42l15 34q-9 10 -19 27z" />
    <glyph glyph-name="A" unicode="A" horiz-adv-x="611" 
d="M328 268l-9 -10l16 10h-7zM387 295q0 -4 -4.5 -4.5t-9 -2.5t-16.5 -9l124 35l-19 -16l33 12l-18 43l-91 -56zM338 295l-5 -10l9 10h-4zM320 283l-1 -10l4 10h-3zM443 311l-124 -35h151l-13 31l-34 -12zM317 272l2 -10l1 10h-3zM349 274l91 56l-17 41l-78 -86q1 -2 4 -11z
M310 306l9 -10l-5 10h-4zM314 286l5 -10l-2 10h-3zM283 285l36 -10l-16 10h-20zM303 298l16 -10l-9 10h-7zM360 25q0 -13 21 -13q1 0 52 3l-16 32q-1 -1 -33 -6q-24 -4 -24 -16zM489 236l-19 48h-151zM147 62q0 7 10 47l-73 -99q6 1 18 1q16 0 46.5 -2t45.5 -2h5q0 7 12 27
l-40 4q-24 4 -24 24zM305 218h8l4 23zM154 154l-58 -37q-8 -19 -25 -54q-14 -25 -36 -33q-5 -2 -34 -6q-15 -3 -15 -14q0 -14 18 -14l60 3q28 31 54 72q34 53 36 83zM316 224h7l-3 24zM194 -15h3q25 0 25 13q0 10 -16 14q-12 -30 -12 -27zM281 197h10l12 24zM340 194h8
l-12 24zM368 224l-40 25l22 -24q15 0 18 -1zM474 159l-92 57q5 -7 9.5 -23.5t8.5 -22.5q19 -20 54 -59l-18 -28l101 -75l75 -3q22 0 22 12t-27 16q-31 4 -51 37q-5 9 -27 62l-10 24q-7 14 -18 17zM340 242l142 -88l28 14l16 -12l-16 38zM319 254l11 -24h11zM446 114l-54 60
q11 -27 22 -55q16 -43 16 -60q0 -11 -9 -16l16 -32q45 2 92 0l-101 75zM188 287l-24 7q-17 -20 -22 -35h148q-20 9 -48 9q-7 0 -18 -1h-15q-26 0 -21 20zM159 210l-45 -13q-5 -12 -15 -36.5t-15 -37.5l58 36q5 18 17 51zM237 413l-2 1l-15 36l-20 -51l23 -26zM252 386l25 66
l19 -48l-19 130l-42 -111l15 -36zM339 390l-9 -61l10 -26l60 128q-6 17 -20 51l-21 51l-34 -130zM332 343l9 61l-14 14l34 129q-9 24 -17 49q-14 35 -25 35q-8 0 -23.5 -35.5t-15.5 -43.5q0 -40 16 -106q17 -70 36 -103zM215 370l-23 25l-16 -41l27 -16zM280 270l39 24
l-85 -24h46zM287 246h-148l-19 -47l45 13q4 10 16 10h21zM196 292q2 11 10 28l-27 16l-24 -62l17 24zM297 270l22 24l-39 -24h17zM349 288l77 86l-23 56l-60 -128q2 -4 6 -14z" />
    <glyph glyph-name="B" unicode="B" horiz-adv-x="589" 
d="M217 76q-6 -10 -27 -67l64 -1l3 26q-30 8 -40 42zM285 -5q-17 0 -32 4l-3 -26l46 -2l-7 24h-4zM304 341q5 0 19 -2l14 36q-15 -4 -30 -6zM198 182l1 1h-1v-1zM197 181v29l-100 -33v-69q50 37 100 73zM214 74q-7 24 -7 113v0l-1 -1l-115 -181q64 2 96 2q0 1 13 33t14 34z
M297 344q-16 -2 -25 -2l4 -25q12 0 18 -1zM455 183q2 -20 2 -28l85 -77q19 32 23 68zM196 181zM435 155q0 -62 -34 -100l46 -42q48 22 74 66l-86 77v-1zM414 288h-1v-1zM365 47l14 -37q31 4 59 17l-46 42q-14 -14 -27 -22zM295 8l7 -23q11 -1 34 -1t44 3l-15 37
q-23 -14 -70 -16zM106 115q0 -46 -3 -56q-8 -23 -43 -26t-35 -15q0 -14 20 -14q8 0 22 1h22l116 182zM199 245h-100v-58l100 34v24zM438 356q43 16 63 44l1 3zM392 502q6 -19 6 -42q0 -82 -69 -105l-14 -36q4 -1 11 -2.5t10 -2.5q53 66 155 201q-19 37 -66 58l-16 -59z
M348 328q15 -5 25 -10l39 28l-23 2v2q34 6 55 19l51 38v-2q21 28 21 68q0 31 -13 56q-52 -66 -155 -201zM465 235h-24q10 -19 13 -46l110 -37q2 14 2 20q0 31 -12 59l-66 -12zM419 290v0l5 -5l78 32q-30 18 -72 21l-39 -28q17 -10 28 -20zM421 244h23l24 -16l66 12
q-17 42 -55 65l-78 -32q9 -9 20 -29zM394 508l17 11l16 59q-36 16 -86 23v-33q41 -17 53 -60zM160 287l31 -11q0 20 1 29l-46 33l7 5l-54 30l-1 24l-7 4v-111l55 -24zM276 317l-4 25h-26l10 -25h20zM206 271l-31 11l-14 -21l-55 24v-38h100v24zM165 541l36 -100v105
q0 38 33 44l-3 26l-102 -3l15 -89zM274 602q39 0 67 -12v33q-42 4 -64 4h-10q-14 0 -21 -1l3 -25q8 1 25 1zM97 384l55 -30l-7 -5l46 -34q3 14 20 16l-121 159v-78l7 -4v-24zM256 317l-11 26q-34 0 -35 26v52q-12 34 -36 99l-22 -17l-14 89l-61 -3q-47 -6 -47 -21
q0 -10 14 -10h2q1 1 -1 1l1 -1q49 1 59 -15q5 -10 5 -69l121 -159q8 2 25 2z" />
    <glyph glyph-name="C" unicode="C" horiz-adv-x="661" 
d="M583 473q13 0 11 16q-2 27 -11 78l-40 -52q9 -13 17 -25q13 -17 23 -17zM301 28l-5 -38q22 -6 38 -8l-14 36q-11 5 -19 10zM254 73l-22 -51q25 -12 58 -20l5 38q-24 14 -41 33zM207 158l-47 -76q30 -26 72 -46l22 52q-29 32 -47 70zM400 21q-39 0 -76 17l15 -36
q38 -4 58 -4q12 0 34 2l-10 23q-14 -2 -21 -2zM211 171l-76 -52q20 -20 31 -30l47 77zM200 213l-102 -32q17 -33 42 -59l75 52q-9 20 -15 39zM616 169q-4 0 -7 -3l20 -6q-1 9 -13 9zM563 124l43 -40l6 71v7l-20 6q-11 -17 -29 -44zM429 25l9 -24q36 3 64 10l-33 24
q-18 -8 -40 -10zM479 28l33 -24q51 14 72 27t22 39l-42 40q-39 -62 -85 -82zM154 377l34 -15q5 30 13 54l-64 80q-25 -26 -41 -56l58 -26v-37zM396 605l-2 24q-59 -3 -103 -18l5 -41q44 30 100 35zM212 536l17 -49q27 42 61 65l-6 41q-58 -16 -108 -54l3 -30zM179 255h-101
l13 -33l-25 5q7 -23 21 -46l102 32q-4 14 -10 42zM222 505l-18 49l-33 -27l-2 31q-30 -24 -42 -38l64 -81q13 38 31 66zM409 586q42 0 72 -13l6 32q-30 5 -71 5h-23l1 -24h15zM557 533l40 51q-6 18 -42 27q-27 4 -55 8l-6 -33q33 -14 63 -53zM58 255h101l-1 6l-127 62
l-1 -11q-3 -34 16 -85l25 -5zM158 336q0 24 3 46l-34 15l-1 38l-57 25q-32 -58 -35 -116l128 -62q-4 24 -4 54z" />
    <glyph glyph-name="D" unicode="D" horiz-adv-x="696" 
d="M251 52q-23 15 -28 53q-1 10 -1 62l-108 -149q60 2 120 0zM295 7q-39 0 -59 13l-17 -34l79 -2l3 23h-6zM200 165l-101 -60q0 -40 -5 -51q-9 -20 -42 -22t-33 -16q0 -13 18 -13q19 0 55 2l108 149v11zM209 217l-100 -28v-74l100 60v42zM530 167q-10 -20 -32 -49
q-26 -33 -34 -47l50 -32q58 30 95 81l-67 53zM218 256h-100v-63l100 28v35zM530 206q-3 -8 -11 -26l13 7l66 -54q14 19 28 47zM313 7l-4 -23q8 -1 24 -1h12q10 0 16 1l-12 27q-24 -4 -36 -4zM355 27l12 -27q46 1 94 17l-24 47q-35 -26 -82 -37zM475 93q-13 -13 -31 -26
l23 -48q26 9 44 19l-51 32zM211 539q-5 14 -7 16l-33 -26l-13 96q-130 -8 -130 -34q0 -10 13 -10q1 0 16 3l-10 11l10 -11q28 4 24 4q30 0 30 -62l100 -108v121zM541 369l50 30l-1 -34l51 43q-20 54 -59 96l-63 -68q14 -29 22 -67zM418 576q36 -17 66 -49l1 1l32 21l9 30
q-45 26 -98 37l1 -24zM218 292h-1l-22 -32l-78 32v-35h101v35zM558 308q0 -33 -5 -55l29 -20l80 19q7 37 7 63q0 18 -1 27q-37 -9 -110 -34zM613 412l-50 -30q8 -39 7 -63q35 15 109 33q-5 40 -16 69l-51 -43zM476 510q27 -29 45 -69l63 68q-28 31 -66 53l-9 -30zM413 579
l10 16l-1 23q-48 11 -120 11l4 -24q60 -3 107 -26zM122 396l69 -28l-11 -7l18 -11v61l-101 108v-77l24 -9zM190 300v41l-17 10l10 8l-69 28v37l-24 9v-133l77 -32zM212 539l7 -17q1 44 16.5 56.5t61.5 10.5l-4 25h-13q-51 0 -114 -5l13 -97zM554 247q-5 -24 -13 -43l97 -27
q15 33 24 69l-80 -19z" />
    <glyph glyph-name="E" unicode="E" horiz-adv-x="535" 
d="M231 357l12 -34q5 1 16 1l-4 30zM253 382l3 -31h15l3 30q-14 0 -21 1zM302 340h10q7 -1 10 -1l24 35q-16 -3 -33 -3zM514 147q0 15 -12 15q-9 0 -30 -42l34 -35q8 53 8 62zM279 366l-4 -31h16l12 31h-24zM449 518l34 53v29q0 26 -11 26t-33 -1.5t-33 -1.5l-10 -49
q32 -14 53 -56zM394 259q9 -36 22 -36q12 0 12 19v3l-19 14h-15zM489 506q9 0 9 15v66l-34 -53q14 -28 25 -28zM407 258h15l19 -14q-2 59 -2 70l-48 -22q9 -13 16 -34zM390 298l48 22q2 48 4 74l-90 -72q23 -4 38 -24zM357 331l89 72q2 26 2 37q0 13 -11 13q-10 0 -16 -19
q-8 -26 -17 -37q-17 -21 -53 -27l-24 -35q10 0 30 -4zM394 570l9 50q-28 -1 -86 -1l1 -33q47 -4 76 -16zM197 284l-47 18l-17 -25l-40 20v-32h104v19zM213 113q-18 -50 -37 -102l61 -2l5 41q-27 13 -29 63zM242 46l-4 -41l39 -1l-11 35q-8 2 -24 7zM208 99v69l-19 15
q-14 -4 -110 -188q40 3 92 1q0 -8 37 103zM107 130q0 -53 -2 -61q-8 -27 -44.5 -30t-36.5 -16q0 -15 20 -15l39 3l98 178zM313 26q-22 0 -46 3l11 -35l79 -1l-13 34h-10q-6 -1 -10 -1h-11zM278 612q14 0 44 -2l-1 32h-92l4 -35q9 5 35 5h10zM171 188l4 -3l19 15v23l-104 -38
v-69q22 18 45 35q35 29 36 37zM347 39l12 -34h74l-46 42q-21 -7 -40 -8zM390 46l45 -42h21q37 0 39 29q1 20 5 48l-34 36q-29 -55 -76 -71zM142 359l61 -49q0 14 10 19l-115 165v-99l52 -30zM243 322l-12 34q-16 5 -16 34l-4 2l-49 153l-25 -21l-10 95q-9 0 -40 2
q-26 2 -41 2q-19 0 -19 -14q0 -15 35 -17q50 -3 50 -63v-22q-1 -15 -1 -22l114 -166q6 3 18 3zM181 190l12 9l-5 4zM155 561l49 -153l4 -2v144q0 43 14 50l-4 35q-65 0 -98 1l10 -95zM195 171v30l-19 -16zM194 259h-104v-58l104 39v19zM167 295l47 -17v22l-60 49l8 6l-52 30
v-94l40 -20z" />
    <glyph glyph-name="F" unicode="F" horiz-adv-x="491" 
d="M429 528l32 54l-32 -54q6 -14 13 -27q10 -19 19 -19q11 0 11 17v102q0 18 -17 18q-12 0 -37.5 -1.5t-38.5 -1.5l-6 -43q37 -12 56 -45zM237 384l3 -31q2 0 7 1h7l3 30h-20zM290 374l-10 -30h19l20 31q-10 -1 -29 -1zM262 365l-4 -30h15l11 30h-22zM224 3q12 0 35 -2
l-9 30q-14 4 -22 8zM373 576l7 42h-79l1 -31q40 -2 71 -11zM322 320l95 81v22q0 16 -11 16t-17 -20q-9 -29 -18 -39q-19 -23 -59 -26l-20 -31q15 0 30 -3zM415 251q10 -37 21 -37q12 0 12 15v6l-8 -2zM401 256l26 -18l7 2q-5 68 -5 82l-48 -23q12 -12 20 -43zM379 304l48 24
v6q0 12 1 36t1 36l-94 -81q28 -5 44 -21zM285 -7q17 0 17 13q0 12 -19 15q-15 1 -29 2l10 -30h21zM176 208l7 -6l29 25v17l-103 -40v-65q64 47 67 69zM192 171l9 13v26l-28 -24zM162 184l18 15l-7 6zM103 132q0 -55 -2 -62q-8 -29 -44.5 -32t-36.5 -15q0 -15 21 -15
q5 0 16 1h16l86 172zM200 131v52l-9 -14l-19 15q-14 -4 -55 -85q-24 -51 -49 -101q87 3 88 3q1 10 22.5 67t21.5 63zM211 145q-22 -63 -45 -130l56 -3l4 37q-13 11 -15 46q0 -7 0 50zM193 281l-54 21l-18 -26l-30 17v-26h102v14zM221 345l-22 64l-10 6l-44 150l-28 -22
l-6 96q-12 0 -36.5 1.5t-36.5 1.5q-19 0 -19 -13q0 -14 34 -17q50 -4 50 -64q0 -8 -1 -24.5t-1 -24.5l106 -163q4 7 14 9zM124 367l67 -57q0 14 3 20l-106 163v-94l45 -26zM204 259h-102v-55l102 40v15zM150 549l44 -149l9 -7l22 -64l15 2l-4 31q-23 2 -26 14q-1 2 -1 36
v134q0 2 4 30l-5 47h-92l6 -96zM142 301l54 -21v18l-66 56l8 7l-44 26v-96l30 -16zM268 584q22 0 33 -1l-2 31h-87l5 -47q7 17 41 17h10z" />
    <glyph glyph-name="G" unicode="G" horiz-adv-x="718" 
d="M267 75l-22 -45q38 -11 75 -14l5 30q-36 12 -58 29zM185 115l-48 -63q39 -28 86 -42l21 44q-34 25 -59 61zM322 25l-5 -31q28 -2 41 -2h17l-10 25q-20 1 -43 8zM182 156l-79 -47q22 -25 46 -42l48 64q-10 16 -15 25zM158 207l-103 -28q17 -35 45 -68l79 48q-8 13 -21 48z
M369 35l10 -24q47 0 95 12l-14 27q-27 -20 -91 -15zM568 482q12 0 12 17v1l-17 -17q2 -1 5 -1zM507 102l-1 1v-3zM467 41l13 -27q33 8 60 19l-53 37q-7 -20 -20 -29zM499 219v-42l21 -12l30 15l58 -44q0 18 -2 54zM571 257h-65q4 -12 4 -36l107 -29q-2 30 -1 46l-15 -3z
M160 262h-91l11 -27l-33 5q10 -32 22 -57l103 28q-7 26 -12 51zM526 162l-22 12v-60l1 -2l-7 -39l52 -37q40 17 47 23q16 14 16 46v28l-58 44zM411 293l40 25h-39l-16 -18q3 -5 15 -7zM570 490l16 17q-4 79 -20 95q-4 4 -25 11l-19 -58q19 -30 48 -65zM405 319q0 -4 1 -6
l17 18q-18 0 -18 -12zM493 299l-39 -11q10 -1 19 -6zM470 292l38 11l-20 -17h1l86 32l-16 -1q-23 -1 -92 3l-41 -24q4 -1 44 -4zM509 259h66l30 -21l14 3q1 32 23 42q8 3 39 5q21 1 21 14q0 11 -15 11q-101 0 -105 -4q-14 -5 -43 -15.5t-44 -15.5q11 -6 14 -19zM218 547
l-12 26l-28 -23l-7 42q-37 -22 -62 -49l64 -70q18 42 45 74zM141 392l17 -7q8 35 21 66l-64 70q-27 -29 -49 -66l74 -31zM520 556l19 59q-47 16 -111 18v-27q56 -10 92 -50zM142 320q0 33 8 70l-17 7l-1 32l-74 31q-31 -56 -35 -115l120 -46v11q-1 7 -1 10zM69 262h91
q0 5 -1 14.5t-2 13.5l-120 46v-10q-1 -7 -1 -11q0 -37 11 -75l33 -5zM217 550l12 -26q34 42 78 62l-5 32q-71 -17 -121 -48l8 -42zM392 620q17 0 35 -3v27h-15q-55 0 -104 -10l5 -32q36 18 79 18z" />
    <glyph glyph-name="H" unicode="H" horiz-adv-x="691" 
d="M480 519l20 13l27 80q-17 0 -52.5 2t-53.5 2h-4q-3 -1 -5 -1l-1 -26q6 -1 23 -3q31 -3 40 -20q6 -12 6 -47zM391 349l16 32h-32l-5 -32h21zM490 538v-118l102 108q0 43 4 53q9 21 43 24t34 16t-20 13q-17 0 -58 -2q-37 -2 -58 -1l-27 -81zM489 408q0 -36 -4.5 -41
t-39.5 -5l-30 -32h47l129 76v110q-52 -52 -102 -108zM508 163l-16 9q0 -9 1 -32.5t1 -36.5q-1 -20 -4 -34l82 -57q10 0 42 -2q26 -2 41 -2q20 0 20 14t-33 16q-39 3 -46 33q-2 6 -2 64l-57 42zM483 220v-43l16 -9l30 14l57 -42v52zM398 601q0 -10 12 -13l1 26
q-13 -2 -13 -13zM405 2q0 -14 20 -14q7 0 23 1t24 1l-15 31l-32 -4q-20 -3 -20 -15zM550 254h-56v-36l102 -27v45l-17 -3zM358 335l5 32h-30l5 -32h20zM404 374l-16 -32h28l30 32h-42zM480 285l102 36v76l-129 -76q21 0 24 -5.5t3 -30.5zM499 256h56l30 -21l16 3v81
l-102 -36v-27zM203 287l-13 -19l-89 33v-43h102v29zM200 172l-102 -60q0 -39 -5 -50q-9 -20 -42.5 -22t-33.5 -15q0 -14 20 -14q1 0 61 3l102 132v26zM187 258h-102v-65l102 28v37zM204 220l-102 -28v-77l102 61v44zM193 138l-103 -132q30 2 61 2q30 0 60 -2q0 1 14 29
q-33 7 -33 61v22q1 15 1 20zM219 -7q7 0 21.5 -1t21.5 -1q20 0 20 13q0 12 -19 15q-15 2 -30 3q0 -1 -7 -14.5t-7 -14.5zM112 398l69 -29l-8 -7l43 -25h47l-31 32q-40 0 -43.5 4.5t-3.5 46.5l-102 108v-87l29 -12v-31zM454 41l15 -30q42 3 94 1l-82 58q-5 -22 -27 -29z
M199 289q0 25 3.5 30t27.5 5l-43 25l8 7l-69 29v30l-29 13v-124l89 -34zM279 336h28l-16 33h-43zM207 538l1 -4q1 35 22 46q8 4 39 6q20 2 20 15t-20 13q-18 0 -54 -1.5t-54 -1.5l18 -95zM207 537q0 2 -2 4l-27 -22l-19 95h-3q-19 0 -55.5 2t-54.5 2q-22 0 -22 -14
q0 -13 33.5 -16t42.5 -22q5 -12 5 -51l102 -108v130zM333 341l-5 32h-33l17 -32h21z" />
    <glyph glyph-name="I" unicode="I" horiz-adv-x="313" 
d="M210 386v118l-52 -249q4 8 52 131zM145 368l27 -128l-24 364q-19 0 -57 2l1 -34q23 -8 25 -35q0 -23 1 -46l21 -119zM218 299v40l-52 -73zM167 395l-9 9l10 90q10 72 22 79l-2 52h-54l24 -363zM158 405l9 -9l-9 -133l52 249q0 23 1 48.5t24 34.5l3 33l-50 -1l2 -53
q-12 -7 -22 -79zM211 330v58l-52 -131zM20 19q0 -15 21 -15q8 0 12 1l10 30l-26 -2q-17 -3 -17 -14zM34 638q-20 0 -20 -14q0 -15 35 -17q11 -1 23 -4l-1 33q-24 2 -37 2zM279 -4q20 0 20 14t-23 16q-35 4 -39 6l21 -35q4 0 11 -1h10zM217 259v31l-8 -6l8 7v1l-51 -33h51z
M300 620q0 15 -21 15q-6 0 -18 -1t-18 -1l-3 -34q13 5 24 5q36 3 36 16zM210 286v1l-8 -7zM219 212v33h-52zM102 252v-34l53 34h-53zM213 74q-1 9 -1 28l-8 -13zM170 56l-17 -8l10 -53q8 0 23 -1h23l-51 247zM172 67l-12 185l-16 -246h22l-10 53zM154 242l-30 -73l-14 11
q-12 -10 -12 -38q0 -9 1.5 -28t1.5 -29q0 -55 -43 -61l-9 -31l53 3q2 7 52 246zM103 -9l36 1l16 246q-15 -83 -52 -247zM168 240l52 -73v39zM213 119v58l-52 73zM212 1l43 -2l-20 36q-14 6 -20 24q-9 27 -11 30l8 13v15l-52 131zM106 185l2 -2l44 62l-53 -34v-41q7 7 7 15z
M104 289v-35h54zM103 177v-11l6 19zM98 400v-60l53 -76zM90 339v-41l54 -35zM128 396l-6 4l-21 119v-116q42 -109 54 -135zM130 180l29 74l-44 -62zM109 185l4 5l-2 1z" />
    <glyph glyph-name="J" unicode="J" horiz-adv-x="256" 
d="M-73 -63l22 27q-17 -8 -22 -27zM107 148l59 34l-14 -12l38 24v62zM97 119v-3l70 -87l2 1q5 15 9 43zM91 148l84 105v63q-1 -7 -12.5 -17.5t-13.5 -15.5q-8 -15 -32 -70q-27 -62 -26 -65zM88 285v-84l6 79zM150 173l-60 -35v-2h84v49l-39 -25zM34 508q-14 0 -14 -11
q0 -10 15 -12q11 -1 23 -2l-2 25h-22zM105 122l80 -47q3 26 3 49h-83v-2zM148 412q-59 -255 -58 -258l58 132q9 10 22 24q3 4 3 130q0 28 6 38q8 14 35 16t27 12q0 12 -17 12h-24q-16 -1 -24 -1l-9 -93zM29 -88q-11 0 -22 15q-18 24 -19 25l-27 -80q10 -2 16 -2q19 0 47 13
l6 29h-1zM30 -95l-7 -29q18 9 41 26l3 45q-14 -41 -37 -42zM-33 -31q-13 0 -22 -10t-17 -21q-2 -2 -2 -12q0 -36 38 -45l28 80q-9 8 -25 8zM98 -68l-10 139q-2 -49 -8 -85q-3 -13 -8 -37q-1 -15 -4 -45l13 10l-2 9zM87 315v-36l6 -6q-6 -78 -6 -79v-38l58 249l19 12l10 93
q-38 -2 -57 -1l2 -52q-12 -7 -23 -68q-9 -51 -9 -74zM91 123v-2q0 5 54 -125q10 19 18 41l-3 -1zM88 326q5 38 9 76q9 58 22 66l-1 52l-62 3l2 -25q21 -4 27 -20q3 -10 3 -35v-117zM87 82l10 -139l-19 -9l2 -9q22 19 41 43l-33 145q0 -4 -1 -15v-16zM91 103l33 -145
q12 13 21 30l-54 123v-8z" />
    <glyph glyph-name="K" unicode="K" horiz-adv-x="658" 
d="M342 173l28 -31l-16 104zM263 205l63 17h-79zM462 93l-129 136l120 -238q30 1 91 1l-105 65zM490 100l-23 -36l105 -65q10 -1 30 -2.5t30 -1.5l5 5l2 -5h3q36 0 36 13q0 15 -31 15q-26 0 -90 70q-20 25 -59 63q-24 17 -67 41q-65 36 -70 39zM637 -3h7l-2 5zM298 215
l51 30l-63 -17zM313 206l40 42l-51 -30zM320 159l16 -18l12 73zM377 128q74 -74 74 -90q0 -15 -33 -17t-33 -16q0 -13 22 -13q-2 0 73 3l-119 237zM423 215l-20 22h-62zM648 611q0 13 -18 13q1 0 -77 -3l-16 -55q44 30 71 30q40 0 40 15zM354 249l136 -80l-54 58zM401 627
q-21 0 -21 -15t44 -15l-1 29q-3 0 -8 1h-9h-5zM421 250l-12 14l-49 -14h61zM390 292l-10 10l-21 -43zM411 291l-8 9l-31 -32zM408 265l-10 10l-39 -23zM203 549l2 -4q1 34 22 44q7 4 38 7q20 2 20 15t-20 13q-19 0 -55 -1.5t-54 -1.5l14 -99zM184 249h-102v-64l102 27v37z
M182 203l-102 -27v-76l102 59v44zM211 532q0 1 -1 3l-33 -27l-15 99q-20 -1 -56 2q-40 2 -57 2q-21 0 -21 -14q0 -13 34 -16t43 -22q5 -11 5 -50l101 -107v130zM205 162l-101 -59q0 -39 -6 -51q-9 -19 -42.5 -21t-33.5 -15q0 -14 20 -14q10 0 29.5 1t28.5 1l105 142v16z
M196 283q0 18 11 18q5 0 22 -17l105 -28l-150 88l10 8l-70 27l-1 37l-29 11v-134l85 -34zM143 372l70 -27l-10 -8l150 -88l-102 107q-16 -13 -31 -21q-4 3 -6 16q-1 9 0 24q1 20 1 19l-102 107v-81l29 -10zM211 277l-17 -24l-85 34v-37h102v27zM343 271l-62 123l-12 7
q-11 -10 -28 -23zM365 444l18 60q-17 -16 -53 -50l6 -35zM321 308l13 -79l9 57zM354 250l21 43l-12 13zM212 149l-106 -141q9 0 27 1h27q24 0 70 -2q0 2 7 15t8 15q-35 7 -35 64q0 10 1 26t1 22zM305 191l13 -13l28 55zM225 -18q28 -2 42 -2q20 0 20 14q0 12 -19 15
q-14 2 -28 3q-15 -25 -15 -30zM348 281l-12 79q-29 35 -29 36q0 6 20 22l-6 35q-7 -7 -22.5 -20.5t-23.5 -20.5l11 -7zM246 249h79l-105 28q9 -9 26 -28zM528 560l17 56q-13 -1 -38 -1q1 0 -77 3l1 -29q29 0 29 -17q0 -11 -35 -48q-19 -18 -37 -37q-6 -20 -18 -61
q51 47 158 134z" />
    <glyph glyph-name="L" unicode="L" horiz-adv-x="497" 
d="M166 287l51 -19v19l-64 53l9 7l-48 27v-96l33 -18zM196 152l5 7v29l-25 -21zM196 275l-51 20l-19 -27l-32 18v-27h102v16zM206 250h-103v-55l103 39v16zM144 349l63 -53v29l-103 153v-95l48 -27zM217 378l-1 2l-10 7l-45 150l-28 -23l-7 97q-13 0 -37.5 1.5t-36.5 1.5
q-21 0 -21 -14q0 -13 34 -16q51 -4 51 -62q0 -8 -1 -24.5t-1 -24.5l103 -153v58zM488 139q0 15 -12 15q-6 0 -13.5 -11.5t-13.5 -21.5l32 -37q7 42 7 55zM307 625q0 13 -20 13q-1 0 -61 -3l5 -44q11 15 46 18q30 2 30 16zM157 546l45 -150l10 -6l1 -3q0 -9 -2 50q-2 49 0 82
q2 45 10 57l-4 44q-48 -2 -95 0l7 -96zM376 38l46 -42q6 0 18 -1t18 -1q21 0 24 23q2 19 7 55l-33 37q-35 -52 -80 -71zM157 163l19 16l-8 6zM219 128q-42 -115 -42 -118h58l5 45q-21 20 -21 73zM238 34l-5 -44h34l-11 33q-10 4 -18 11zM338 36l11 -31q11 0 33.5 -0.5
t33.5 -1.5l-46 42q-15 -6 -32 -9zM295 27q-19 0 -36 6l11 -33h77l-11 31q-19 -4 -41 -4zM211 107v58l-5 -7l-20 15q-1 -1 -18 -15l-88 -170q30 1 90 1q0 16 41 118zM182 197l8 -6l25 20v20l-103 -39v-66q21 16 59 49zM101 114q0 -54 -2 -62q-8 -28 -47 -31q-34 -3 -34 -16
t19 -13q12 0 36 2l87 170z" />
    <glyph glyph-name="M" unicode="M" horiz-adv-x="805" 
d="M608 283q34 13 101 33l-3 77l-99 -51zM677 240h-34l1 -43l104 -25l-1 49l-34 -7zM541 -6q0 -12 16 -12h15l-15 27q-16 -4 -16 -15zM509 245h-38l-3 -8l35 -8zM619 429l1 -79l100 50l-4 114q-44 -37 -97 -85zM611 282l1 -34h33l37 -26l33 7l-3 86q-7 -2 -101 -33zM599 519
h2l2 -98q41 36 97 86v23q0 34 18 42q8 4 44 6q18 1 18 13q0 13 -24 13q-14 0 -62 -1q-38 -1 -63 0l-31 -79q-53 -14 -124 -224q55 46 59 53q16 29 35 82q14 42 29 84zM560 376q-23 -19 -58 -53l-11 -28l47 24zM505 229l-34 8l-3 -8l31 -16zM463 221l-4 -9l28 -25l7 19z
M614 548l31 79l-11 1q-25 0 -38 -34l-50 -128q11 23 35 61q12 7 33 21zM512 295l-47 -23l-5 -14l42 10zM525 273l-41 -10l-4 -9h38zM145 6q15 0 43.5 -2t42.5 -2q28 0 28 14q0 13 -35 14q-39 0 -48 21l-39 -45h8zM405 223l-68 -117q10 -30 37 -86l35 192zM436 159l12 -66
l21 53l-23 39zM404 234l-67 -61l-24 19l-6 -2l32 -77l67 116zM426 159l-15 39l-35 -192q5 -9 14 -9q12 0 32 48q8 25 17 50l-12 66zM104 85q-3 -34 -9 -46q-10 -16 -38 -20q-37 -6 -37 -17q0 -12 17 -12q14 0 38 2q30 2 38 2l40 45q-7 17 -10 66zM135 183l-34 -8l-4 -81
l39 20q-1 23 -1 69zM300 199l-1 -1l4 -8l5 3zM617 161q1 -25 1 -74q0 -36 -11 -47q54 -31 70 -34q4 -2 64 -5l4 4l2 -4q8 -1 25 -1q25 0 25 13q0 14 -29 14q-36 0 -43 29q-2 30 -3 61l-83 55zM457 206l-5 -13l23 -39l10 27zM608 205v-37l22 10l83 -54l-2 57zM547 29l15 -26
l105 3l-67 37q-9 -9 -24 -11t-29 -3zM750 -6l6 -1l-1 4zM159 527h2q13 -31 27 -63q32 -36 90 -86q47 -42 95 -83q-27 73 -48 102q-5 3 -12 8l-78 147l-33 -27l-21 100q-21 -1 -57 1q-43 2 -58 2q-21 0 -21 -12q0 -16 38 -17q47 -1 47 -36q0 -6 -1 -21t-1 -24l29 -27z
M232 358l-5 -4l3 -9l146 -74q1 16 -190 181l38 -91zM403 248h-115l11 -27l106 24zM401 244l-105 -24l8 -19v1l8 -7l91 46zM233 356l3 -7l5 4zM295 177l25 -19l67 61l-2 3zM136 191q0 38 1 57h-31l-4 -65l34 7v1zM248 288l127 -29l-2 6l-146 74zM152 279l-29 10l-2 -38h31v28
zM148 428l-27 8q-4 -85 -7 -131l29 -10q0 14 3 51q2 31 2 50v32zM284 248h116l-2 4l-127 30zM243 551l78 -147q5 -3 12 -8l21 -36l-99 244q-9 23 -27 23l-39 -3l21 -100zM150 410q1 13 2.5 39.5t2.5 39.5l-29 27l-3 -75l27 -8v-23z" />
    <glyph glyph-name="N" unicode="N" horiz-adv-x="700" 
d="M464 297l-86 -50l2 -3l104 28zM602 224l1 -48l37 -10v40l-10 -2zM593 230l28 -20l10 3l-1 86l-37 -14v-55zM453 332l-68 -72l2 -3l86 51zM508 263l-19 -7l14 12l-3 5l-104 -28l3 -3h125zM258 26l-8 -16q8 3 8 11v5zM494 597q-23 0 -23 -13q0 -12 29 -14q36 -3 40 -6l9 30
q-54 3 -55 3zM604 -28l-7 4q3 -3 7 -4zM583 180v-18l-2 -2l-20 26l-158 42q3 -9 130 -83l36 18l51 -39v46zM481 117l24 -30l2 3zM540 137l-120 70q32 -42 100 -119l-2 -2l40 -54q40 -50 56 -50q14 0 14 27l-1 107l-50 39zM471 254l19 7l-4 5zM405 233l5 -5l158 -43l-38 48
h-125zM148 367l10 -4l-1 94l-34 34v-77l24 -9zM153 366l-10 4l-1 38l-23 9v-136l35 -14zM138 240h-36v-64l37 10zM158 261l-35 15v-36h36zM589 295l37 14v76l-38 -23zM134 178l-36 -10q0 -51 -2 -76l40 23q-2 42 -2 63zM137 106l-40 -24q-2 -31 -8 -41q-8 -14 -35 -17
q-13 -1 -26 -3q-17 -3 -17 -13q0 -12 16 -12q-2 0 76 3l41 56q-5 16 -7 51zM167 66l-41 -56q10 1 30 1q13 0 38 -2t37 -2q10 0 14 2l8 15q-1 7 -39 10t-47 32zM571 457l39 40v22q0 33 8 43.5t39 13.5q36 3 36 15q0 14 -16 14q-15 0 -60 -2q-37 -2 -60 -1l-8 -29
q15 -8 20 -55q1 -30 2 -61zM388 264l69 72l-22 29l-49 -98zM161 510l2 2l175 -218l-36 71l-12 7l-66 148l-33 -27l-15 101q-19 -1 -51 1q-38 2 -51 2q-28 0 -28 -13q0 -14 35 -15t44 -23q3 -9 3 -57l34 -35zM568 358l38 23v110l-39 -41zM213 541l66 -148l12 -8
q34 -77 58 -99q-14 97 -31 201q-1 1 -81 103q-6 9 -13.5 18.5t-18.5 9.5q-1 0 -40 -3l14 -101zM391 403l-18 -113l4 -4l49 97l-46 59l-7 -22zM372 284l18 112l-18 18l7 22l-45 57l16 -112q15 -95 22 -97z" />
    <glyph glyph-name="O" unicode="O" horiz-adv-x="720" 
d="M366 42l11 -23q47 3 93 20l-15 30q-43 -30 -89 -27zM182 116l-44 -58q39 -29 85 -44l19 37q-35 27 -60 65zM173 148l-73 -43q20 -19 42 -36l44 59q-5 6 -13 20zM62 259h86q-1 8 -4 23l-114 45v-11q0 -43 12 -84l33 -6zM263 61l-19 -38q30 -10 72 -16l5 27q-33 8 -58 27z
M172 208l-99 -27q17 -32 46 -63l73 43q-13 24 -20 47zM163 259h-86l13 -33l-33 6q8 -27 21 -49l98 26q-10 31 -13 50zM559 159q-27 -69 -68 -104l38 -24q59 32 97 80l-64 50zM564 202q-2 -7 -7 -20l4 1l64 -50q18 23 29 45zM463 56l14 -30q22 7 41 19l-38 24q-10 -8 -17 -13
zM324 22l-4 -27q24 -2 35 -2q12 0 17 1l-10 23q-18 0 -38 5zM225 532l-1 2l-33 -27l-7 53q-34 -21 -61 -49l53 -57q18 47 49 78zM513 533q26 -32 41 -70l61 64q-28 31 -70 55l-10 -35zM564 378l46 27l-1 -34l55 45q-19 53 -60 97l-61 -64q13 -34 21 -71zM574 312
q0 -28 -6 -57l27 -19l81 19q9 36 9 72v9q-1 6 -1 9q-74 -18 -110 -33zM438 592q40 -18 70 -54l23 15l10 35q-44 26 -101 37l1 -29zM150 338q0 22 3 44l-4 1l-1 38l-76 28q-29 -55 -32 -119l114 -45q-4 34 -4 53zM626 414l-47 -27q6 -35 5 -65q25 10 110 33q-3 37 -15 70
l-54 -45zM358 615q39 0 75 -15l2 4l-1 29q-31 6 -65 6q-31 0 -56 -4l4 -24q19 4 41 4zM124 398l4 -2q7 46 19 76l-54 56q-28 -30 -46 -64l77 -29v-37zM566 250q-2 -13 -10 -44l91 -24q18 31 27 68l-81 -19zM219 544v-1q35 35 86 48l-3 24q-67 -11 -124 -45l8 -53z" />
    <glyph glyph-name="P" unicode="P" horiz-adv-x="543" 
d="M280 313l-4 -30l7 -2l12 32h-15zM308 344l-13 -33l8 -2l28 39q-14 -4 -23 -4zM350 278h12q3 0 8 1h8l19 16zM473 406l-161 -123q12 -4 24 -4l47 17l-18 -16q1 0 5 1q95 43 106 51q43 31 50 99l-54 -56zM374 278q62 8 104 46q-6 -1 -104 -46zM265 316l4 -28l7 -2l3 30h-14
zM296 25q0 15 -24 15l10 -28q14 0 14 13zM205 346l22 -30q5 -1 15 -5l-11 27q-18 4 -26 8zM244 328l10 -27l9 -3l-3 29q-2 0 -8 1h-8zM273 598q31 0 58 -12l-2 35q-3 1 -9 1q-14 0 -43 -1t-44 -1l4 -29q13 7 36 7zM334 337l-29 -40l11 -2l161 123l-1 -31l54 56v16
q0 57 -32 100q-25 -36 -75 -111q-1 -1 -1 -7q-4 -36 -28.5 -65t-59.5 -39zM108 127q0 -50 -3 -58q-8 -25 -45 -28q-33 -3 -33 -15q0 -14 20 -14q25 0 38 1l93 167zM161 167l22 17l-9 7zM206 187v14l-10 -7zM207 80q-8 -15 -29 -74l62 -3l4 30q-35 6 -37 47zM245 20l-4 -31
q5 0 15 -1h15h5h2q0 1 1 1l-10 28zM205 253h-102v-58l102 36v22zM201 70v100l-9 7q-11 -8 -23 -17l-93 -167q81 3 97 2q0 1 13.5 36.5t14.5 38.5zM169 187l9 -7l9 7v26l-101 -35v-68q25 17 69 53q7 10 14 24zM401 546l12 8l12 65q-35 14 -85 16l2 -36q39 -17 59 -53z
M163 538l44 -133v112q0 56 23 67l-3 28q-68 -2 -102 0l8 -98zM394 526q25 -38 20 -89l75 110q-27 36 -71 53l-12 -66zM159 548l-30 -25l-8 98l-66 3q-24 0 -22 0q-13 -2 -13 -13q0 -14 33 -17q49 -4 49 -58v-19q-1 -14 -1 -21l102 -140q2 21 0 59q-15 45 -44 133zM171 288
l39 -13q0 21 4 23l-57 43l10 7l-56 28l-1 34l-2 1v-130l42 -22zM108 379l56 -28l-9 -7l56 -43h4q-1 0 27 -7l-22 29q-13 7 -13 19l-102 139v-67l3 -1v-34zM189 282l-38 13l-21 -29l-42 22v-28h101v22z" />
    <glyph glyph-name="Q" unicode="Q" horiz-adv-x="663" 
d="M344 42q-19 -2 -28 -1l-12 -89q11 -14 24 -24l28 13zM349 4l12 -101l-28 -12q45 -38 112 -53l-69 173q-9 -3 -27 -7zM276 20l-9 -23q2 -10 5 -24q1 -21 22 -47l11 89q-20 2 -29 5zM176 41q5 -1 13 -5l15 26zM212 69q-11 -4 -26 -34q25 -6 76 -21l1 -1l9 23q-32 8 -60 33z
M460 110q-18 -20 -28 -29l38 -28q31 14 54 35zM222 83q-12 11 -26 28l-66 -22q26 -22 58 -37q31 15 34 31zM187 51l10 7l-4 3zM549 -143q21 0 52 6q43 8 43 21q0 9 -10 9q-7 0 -21.5 -3t-22.5 -3q-70 0 -142 66l-7 -10zM410 50l19 -25q23 6 47 17l-38 28q-15 -14 -28 -20z
M382 24l69 -174q41 -9 81 -9h13l-107 87l6 10q-50 50 -50 58q0 6 35 15l-19 25q-14 -8 -28 -12zM159 175l-124 61q10 -42 35 -80h98q-6 12 -9 19zM478 486q28 -39 41 -88l61 85q-30 37 -70 65l-10 -47zM399 535q37 -23 66 -63l22 14l9 48q-45 28 -98 42l2 -39zM156 156h-98
q24 -37 60 -67l66 22q-15 19 -28 45zM585 345l-49 -37q-2 -43 -12 -83q36 14 110 42q5 21 5 53q0 20 -3 41l-51 -52v36zM515 154h-27q-12 -22 -27 -42l65 -22q23 20 38 40l-11 -3zM309 582q48 0 92 -27l1 2l-2 38q-36 9 -74 9q-21 0 -44 -3l3 -21q16 2 24 2zM541 312l49 37
l-1 -36l52 52q-11 65 -50 118l-61 -86q12 -48 11 -85zM275 591l-2 21q-69 -10 -121 -42l6 -68q39 77 117 89zM511 212q-9 -32 -20 -53h27l39 -27l11 3q41 51 53 118q-35 -11 -110 -41zM121 344v7l-90 46q-14 -44 -14 -85q0 -34 9 -67l124 -62q-29 70 -29 161zM153 485l-6 69
q-40 -26 -67 -58l52 -69q8 32 21 58zM130 336q1 34 11 71l-53 70q-33 -41 -48 -88l90 -46v-7z" />
    <glyph glyph-name="R" unicode="R" horiz-adv-x="621" 
d="M445 218l-20 36h-101zM330 235l19 -6l-25 16q1 -1 3 -4.5t3 -5.5zM277 256h16l-19 6zM296 10q0 9 -7 12l-4 -24q11 1 11 12zM441 258l-8 15l-1 -1v1l-6 11l-86 -26h101zM397 307q-9 11 -18 16l-53 -63zM210 183l6 3v5zM339 214l8 17l-10 -12zM321 239l14 4h-17zM431 273z
M330 228l12 8l-14 -4zM312 244l10 12l-12 -8zM429 295q-4 8 -15 21l-71 -46zM228 46q-16 -40 -16 -37q40 -2 61 -2h12l3 25q-6 3 -30 4q-19 1 -30 10zM204 256h-102v-62l102 30v32zM311 213l4 -8l3 25zM227 47q-11 8 -14 39q-3 23 -2 57q2 52 2 39q-4 -1 -116 -173
q51 3 114 1q0 -3 16 37zM93 105q0 -43 -4 -53q-8 -22 -42.5 -25t-34.5 -15q0 -14 20 -14q16 0 48 2l110 169zM185 182v33l-102 -31v-74q28 18 55 36q46 30 47 36zM323 197l10 -18l-6 42zM330 251l135 -89l12 7l-26 45zM330 247l116 -137l-24 -37l97 -66l58 -3l5 4l1 -4
l17 -1q16 -1 16 12q0 11 -13.5 13.5t-25.5 3.5q-27 4 -61 59q-19 37 -39 74l-12 -7zM245 346l63 -74l-33 75q-10 -1 -30 -1zM439 118l-117 137l90 -198q20 -45 39 -45q11 0 31 2t30 2l-97 65zM573 10h6l-1 4zM421 35l-89 199l6 -43zM401 349q123 29 123 140v2
q-41 -47 -123 -142zM448 537l-115 -256l53 63l-4 3l8 2q43 46 123 141q0 47 -28 86l-4 -17zM335 340l-12 -85l54 122q-14 -24 -42 -37zM292 327l33 -74l-11 78q-6 -2 -22 -4zM369 559q30 -37 30 -93q0 -27 -7 -51l50 113l34 21l4 18q-32 42 -89 55l1 -28zM332 313l11 -78
l12 85q-10 -4 -23 -7zM202 516q-9 24 -19 51l-34 -27l-10 100h-17q-11 0 -33.5 2t-34.5 2q-24 0 -22 0q-13 -2 -13 -13q0 -14 35 -16t43 -27q3 -10 3 -56l102 -121v105zM175 300l14 -4q1 14 10 17q4 1 21 0l-61 40l11 8l-65 28l-1 38l-18 7v-137l66 -30zM367 562l23 34
l-1 28q-29 8 -68 8h-23q-15 -1 -23 -1l4 -27q56 -3 88 -42zM106 401l65 -28l-11 -8l61 -40q24 -1 41 -18q24 -25 34 -31l-63 74q-34 0 -39 8q-4 5 -4 43l-103 121v-76l18 -7zM212 289l-14 4l-23 -33l-66 30v-33h103v32zM184 563l20 -51q0 8 -1 24v22q0 29 10 41q14 16 50 13
l-3 27l-120 -3l11 -100z" />
    <glyph glyph-name="S" unicode="S" horiz-adv-x="433" 
d="M223 396l2 -2l-11 -120l2 -1l32 112q-4 2 -12.5 5.5t-12.5 5.5zM306 209q23 -22 31 -48l8 4l50 -68q15 28 20 60zM329 163q6 -16 6 -35q0 -43 -30 -72l21 -25q39 26 62 68l-50 68zM158 434l8 -32l8 -5l31 -111l3 -2l-11 130q-18 8 -39 20zM199 416l12 -130l2 -1l11 119
q-3 3 -25 12zM272 51l8 -28q20 9 34 18l-21 26q-14 -12 -21 -16zM347 474q13 0 13 22v30l-22 -48q3 -4 9 -4zM345 249h-85q21 -16 47 -34l109 -52q3 17 3 34q0 21 -7 47l-42 -12zM230 278l83 86q-15 9 -31 17l-55 -102zM31 194q-13 0 -13 -27l26 13q-5 14 -13 14zM306 304
l-62 -30l12 -6h85l25 -18l42 13q-14 39 -44 68l-75 -42zM227 266l62 30l-17 -15l75 42q-16 14 -42 32l-83 -86zM121 368l-42 31l-1 26l-57 45q1 -69 48 -111q27 -24 108 -62l-63 65zM152 44q-3 -11 -9 -34q23 -3 46 -3h1l2 26q-19 1 -40 11zM149 42q-30 14 -51 38l-24 -57
q28 -9 65 -16q4 12 10 35zM203 18q-8 0 -11 1l-3 -26q10 0 30 2l-6 23h-10zM51 183l-26 -13q-2 -23 -2 -68v-14q0 -15 1 -23l51 53q-9 16 -24 65zM67 108l-51 -53q4 -22 51 -37l24 57q-11 11 -24 33zM44 564q-26 -40 -26 -88v-2l57 -45l1 -26l42 -31l-7 -5l36 -40
q22 -24 41 -33zM202 299l-32 111l-8 5l-7 33q-52 32 -52 82q0 12 3 24l-4 -3l-3 66q-28 -18 -47 -46l144 -270zM341 483q1 4 22 48q0 72 -11.5 77.5t-29.5 9.5l-8 -68q9 -28 27 -67zM220 279l3 -1l54 101q-4 2 -12.5 6t-12.5 6zM215 22l6 -24q35 5 58 15l-8 27
q-28 -17 -56 -18zM311 545l8 68q-35 8 -65 11l1 -27q37 -13 56 -52zM215 605q24 0 40 -5l-1 27q-20 2 -31 2q-14 0 -42 -4l2 -23q17 3 32 3zM111 548q14 54 70 67l-2 23q-44 -7 -75 -28l4 -65z" />
    <glyph glyph-name="T" unicode="T" horiz-adv-x="572" 
d="M506 543l46 63l-46 -63q6 -8 19 -47q10 -33 18 -33q13 0 15 30q7 121 7 126q0 25 -14 25q-8 0 -13 -13q-8 -21 -41 -26q-12 -2 -53 -2l-5 -30q47 -4 67 -30zM298 462l18 -18l-17 -134q23 45 53 129q5 23 3 69q-3 76 -3 71q0 34 44 34q-13 0 46 -4l6 30h-89
q-29 -26 -61 -177zM311 434l-18 18q31 150 61 177h-102l42 -329zM241 348l48 -62l-48 117v-55zM8 487q0 -12 12 -12q9 0 13 6l-24 12q-1 -2 -1 -6zM352 253v17h-52zM407 19q19 0 19 14q0 12 -14.5 14t-27.5 3l13 -31h10zM316 300l52 68v61zM358 324v30l-53 -68zM361 299v21
l-53 -38zM374 281v17l-53 -17h53zM141 563l-4 38q-24 0 -31 2q-14 5 -18 24q-3 13 -11 13q-10 0 -17 -23l-8 -30l41 -53q20 20 48 29zM317 61l-33 -15l18 -47q16 -1 47 -2.5t46 -1.5l-12 31q-26 4 -33 21q-4 10 -2 35t-2 36l-53 129zM202 44q-11 -33 -11 -31l70 3l31 250
q-15 -35 -30 -69q-20 -47 -20 -70q0 -56 1 -53q-5 -27 -41 -30zM317 73l-24 187l-32 -249h41l-19 47zM194 25q-37 -3 -37 -16q0 -14 20 -14h5q2 9 12 30zM350 138v61l-52 68zM314 257l53 -38v21zM235 181v-56l47 117zM375 183v30l-52 38zM238 309v-18l47 -16zM237 341v-28
l47 -34zM80 550l-40 53q-11 -34 -30 -104l25 -12q11 21 45 63zM221 572q16 0 21 -4t5 -20q0 5 -3 -80q-2 -51 3 -79q0 -10 47 -116l-42 328h-114l3 -38q25 9 80 9zM242 270v-15l47 15h-47zM223 288v-16h47zM219 236v-18l48 34zM230 216v-28l47 62z" />
    <glyph glyph-name="U" unicode="U" horiz-adv-x="675" 
d="M532 242v-48l35 -9v36l-4 -1zM474 632q-21 0 -21 -12t26 -15q34 -4 41 -8l8 32q-9 0 -27 1.5t-27 1.5zM549 470l35 37q0 46 5 58q10 20 47 23q30 2 30 15t-16 13q-14 0 -56 -2q-36 -2 -57 -1l-9 -31q18 -10 21 -53v-59zM291 597q0 7 -4 11l3 -18q1 2 1 7zM545 368l35 21
v106l-35 -37v-90zM536 295l34 13v74l-34 -21v-66zM531 242l30 -21l4 1v84l-34 -13v-51zM179 279l-20 -29l-80 33v-36h100v32zM308 24l-4 -31q28 -2 44 -2h6l-11 27q-16 1 -35 6zM372 18q-18 0 -26 1l11 -27q55 0 96 12l-12 23q-28 -9 -69 -9zM244 45l-22 -46q32 -10 72 -13
l5 31q-32 8 -55 28zM441 44l12 -23q23 6 45 20l-26 17q-17 -10 -31 -14zM553 188v-24l32 -26q3 21 3 40zM476 53l26 -16q54 35 63 104l-31 25q-5 -80 -58 -113zM207 151l-61 -85q30 -35 80 -49l22 45q-34 30 -41 89zM192 156l-86 -52q9 -25 26 -43l61 85zM136 371l68 -27
l-10 -8l14 -8v62l-99 107v-79l26 -9zM192 291v46l-15 9l11 8l-69 27v37l-26 10v-133l79 -33zM199 539q-1 2 -2 5t-2 5l-33 -27l-13 98q-19 0 -55 2t-54 2q-20 0 -20 -13q0 -14 33.5 -16t42.5 -22q4 -11 4 -51l99 -107v124zM178 246h-99v-48q0 -3 1 -7v-7l98 27v35zM205 529
l4 -10q0 37 17 49q10 7 35 7q22 1 27 9l-3 17q-4 3 -14 3q-18 0 -55.5 -2t-56.5 -2l13 -97zM201 208l-98 -27q2 -37 13 -67l87 52q-2 28 -2 42z" />
    <glyph glyph-name="V" unicode="V" horiz-adv-x="610" 
d="M266 605q0 7 -7 10l3 -19q4 3 4 9zM340 228l11 -13l-3 8zM460 284l4 11l-21 -17zM393 234l34 -9l12 27h-39zM448 633q-25 0 -25 -14q0 -12 26 -14q33 -3 40 -7l8 32q-8 0 -24.5 1.5t-24.5 1.5zM314 257l-4 -5l5 3zM318 259l-5 -3l6 1zM420 262h38l9 21l-17 -7
q22 22 22 21l-43 -12zM307 243h-6l7 -2zM307 246l-6 -2h7zM300 234l-6 2l8 -5zM379 238l-7 -17l30 -18l11 26zM227 171l-20 15l27 -65l59 122zM308 253l-87 -53q0 -2 9 -10q6 -4 12 -9zM253 123l30 -71l29 193zM178 249l12 -27l98 27h-110zM210 226l11 -26l88 53zM340 50
l-33 -15l18 -42q11 14 27 56q10 29 21 58l-60 124zM318 53l-27 180l-29 -192q17 -52 31 -52q4 0 10 6l-18 42zM388 175l26 -28l12 30l-30 18zM360 168q-9 22 -17 44q-15 33 -23 37l60 -124l16 41l-26 28zM177 291l15 -35h109zM243 400l-12 8l-63 149l-34 -27l-13 100
q-13 0 -58 2q-36 2 -58 2q-15 0 -15 -12t31 -15q27 -3 40 -21q6 -7 21 -44q25 -60 99 -140q62 -64 123 -127zM497 560q0 -24 -25 -88l-32 -78q26 26 71 77q1 1 27 66q18 45 45 49q13 2 25 3q16 4 16 15q0 12 -17 12q-14 0 -57 -2q-36 -2 -57 -1l-9 -31q13 -8 13 -22z
M318 268l-2 4l-1 -11zM329 283l-1 2l-3 -6zM437 332l52 31l50 125q-34 -36 -70 -77l-21 -53zM421 286l43 12l22 54l-51 -31zM167 345l146 -90l-202 221l49 -116l17 -7zM164 348l10 8l-17 7l29 -69l124 -35zM313 284l-5 13l3 -23zM164 564l63 -149l12 -7l61 -126
q2 20 -59.5 158t-61.5 149q0 18 27 24q21 3 42 7l-3 19q-6 2 -11 2q-17 0 -56.5 -2t-60.5 -1l13 -101z" />
    <glyph glyph-name="W" unicode="W" horiz-adv-x="877" 
d="M461 247l-3 -4q3 1 3 4zM287 1q12 -30 24 -30q9 0 22 27l102 214zM462 213l1 2l-1 2v-4zM465 230l1 1l-1 1v-2zM471 233zM577 268l-10 23l-89 -38l1 -3zM458 244zM489 229zM474 237zM473 236zM483 231l-1 1v-1h1zM478 240l115 -22l-11 26h-106zM547 623q-16 0 -16 -11
q0 -10 18 -14l1 25h-3zM907 590q0 13 -17 13q-10 0 -31 -2t-32 -2t-34.5 2t-35.5 2q-23 0 -23 -12q0 -13 27.5 -16.5t27.5 -19.5q0 -8 -26 -73q19 12 56 38q1 1 15 29q11 22 37 25q36 4 36 16zM288 609q-20 0 -20 -13q0 -10 35 -15q18 -3 43 -57l88 -194l-61 276
q-84 3 -85 3zM433 213l47 19l-41 -7zM235 591q0 13 -23 13h-9q-7 -1 -10 -1l8 -27q11 1 22.5 3t11.5 12zM657 93l-153 115q12 -51 122 -193l16 38l-8 3zM672 196l-16 -35l35 -15l18 43zM509 248l2 -4h105l-9 22zM364 141q-6 34 -35 45q-24 -2 -74 -57l47 -103l148 211
q-26 -12 -53 -41t-33 -55zM631 151l-11 25l-129 54l4 -11l154 -116l-24 -36l9 -4l38 91l-34 14zM468 227l1 -1zM587 2q6 0 20 28l-104 147l63 -151q10 -24 21 -24zM310 183l21 9l-7 4zM315 180l23 -18l-10 23zM437 272l-21 30l-5 -10zM171 579q0 11 16 13l-8 27
q-81 -3 -79 -3q-15 0 -45.5 2t-46.5 2q-20 0 -20 -13q0 -11 34 -16q24 -4 33 -22q12 -24 15 -27l172 -130q-19 40 -38 81q-33 71 -33 86zM445 295q-1 -3 -4.5 -9.5t-5.5 -10.5l21 -30zM247 156l10 -22l53 48zM442 249l30 -13l-27 20zM423 186l60 45l-47 -19zM446 222l40 7
h-36zM135 380l96 -27l-11 -9l51 -21q-17 40 -36 81q-19 19 -83 65l-90 64l50 -109l23 -6v-38zM440 242l33 -6l-30 12zM449 229h37l-33 7zM485 377l-18 18l22 58l-24 52q-22 47 -22 60q0 10 27 12.5t27 14.5t-15 12t-50 -2.5t-53 -1.5l78 -351zM510 360l-28 -129q1 2 11 21
l1 -3l65 93l-6 18q0 9 29 65q18 34 36 69.5t24 41.5q15 19 41 21q33 2 33 16q0 13 -21 13h-125l-1 -24q28 -8 28 -20q0 -27 -65 -146l-18 39l-22 -58zM293 244h-115l20 -43l105 20zM696 278l46 13l34 80l-48 -20zM688 249h40l18 43l-45 -13zM294 183l6 -4l12 5l-10 23
l-106 -21l20 -42q66 22 78 39zM480 239l2 -6l130 -54l-17 38zM654 207l37 -8l18 43h-40zM258 282l45 -8l-18 39l-51 22l10 8l-95 27l-1 38l-23 6l69 -153l42 -11zM773 384q21 50 64 149l-55 -38l-57 -132zM486 267l80 60q-3 7 -8.5 20t-8.5 19l-65 -93zM501 263l90 38
l-11 26l-80 -60zM277 279l-45 8l-22 -32l-42 11l6 -15h115z" />
    <glyph glyph-name="X" unicode="X" horiz-adv-x="621" 
d="M181 537l63 -146l12 -7l60 -123q-7 69 -31 199q-3 11 -34 51q-28 36 -28 55q0 16 43 19l-4 27q-126 -3 -127 -3l13 -99zM340 421q-6 11 -18 20l2 5l-34 50l31 -199zM208 188l12 -9l21 29zM250 395l-12 8l-63 145l-33 -27l-13 99q-20 -1 -56 2q-40 2 -56 2q-17 0 -17 -14
t20 -16q44 -5 59 -17q10 -8 40 -50q46 -65 91 -131q53 -73 100 -124zM188 181l26 16l-10 8zM429 261l-17 24l-90 -24h107zM376 596q0 -9 8 -12l-1 23q-7 -3 -7 -11zM436 302l-14 21l-76 -46zM436 210l-25 36h-107zM344 16q0 -13 25 -13q21 0 65 2l-16 33q-4 -2 -43 -5
q-31 -2 -31 -17zM294 626q0 12 -16 12h-18l4 -27q30 0 30 15zM379 326q-6 8 -17 26l-45 -93zM458 581q0 -21 -52 -98q-29 -41 -58 -81l-3 4l-19 -124l45 92l-1 4q0 2 36 73q40 78 42 82l33 21l21 75q-9 0 -40 2q-25 2 -40 2q-23 0 -30 -4l1 -23l39 -4q26 -2 26 -21zM442 516
l-63 -129l54 73q50 68 62 80q40 43 85 47q35 3 35 16t-19 13q-15 0 -48.5 -2.5t-51.5 -1.5l-21 -75zM400 313l-14 21l-61 -66zM331 418l-11 16l-1 -4zM322 256l144 -87l17 8l-29 43zM309 227l2 -3l2 11zM320 217l4 -6l-2 17zM357 177l-25 51q0 -2 3 -17q1 -3 22 -34zM165 69
q0 20 30 65l40 56l-12 9q-16 -5 -27 -16l-120 -167q6 0 18 1h19q1 0 82 -3q0 3 13 29q-43 3 -43 26zM307 243l1 -2l4 7zM331 244l124 -135l-22 -35q0 1 102 -67l58 -2l5 5l1 -5h13q25 -2 25 12q0 12 -13 14q-41 7 -78 52l-54 82l-17 -8zM579 20h7l-1 4zM200 16h15
q10 -1 15 -1q27 0 27 13q0 17 -44 17q-13 -26 -13 -29zM435 71l23 36l-125 134q13 -35 48 -86q42 -62 54 -84zM440 41q0 -11 -9 -16l16 -33q45 1 89 0l-102 65q6 -10 6 -16zM274 290q3 -9 19 -17l-47 51q4 -6 4 -9q0 -6 -6 -12l27 -16zM305 261l11 -3l-14 9zM305 256h9
l-11 3zM298 245l7 2h-9zM290 235l6 4l-7 -2zM289 230l5 6l-7 -4zM257 259h-39l-18 -24l50 13zM-8 23q0 -14 15 -14l60 3l121 168q-10 -3 -34 -36q-71 -98 -123 -105q-12 -1 -24 -3q-15 -3 -15 -13zM192 197l9 -8q13 6 33 20q7 11 16 22l-50 -13l-39 -53q18 6 31 32zM286 268
l-33 9l-12 -17h40zM270 287l-27 16l-9 -13l32 -9z" />
    <glyph glyph-name="Y" unicode="Y" horiz-adv-x="618" 
d="M326 360l-44 65l27 -169zM400 311q2 10 24 42q13 18 26 37l-109 -113zM393 178v28l-59 34zM384 258v16l-59 -16h59zM642 609q0 13 -16 13q-15 0 -60 -2q-38 -2 -61 -1l-10 -34q7 -7 7 -16q0 -24 -67 -128q-36 -53 -73 -107l-4 7l-37 -73q82 72 184 225q37 56 48 67
q30 32 70 35q19 3 19 14zM348 333l-21 30l-16 -103zM369 270q0 13 1 19l-60 -35zM340 237l59 -35v19zM459 10q0 17 -34 17l15 -30q19 0 19 13zM357 226v16h-59zM449 635q-26 0 -26 -14q0 -13 28 -15q34 -2 41 -8l11 34zM268 595q0 13 -15 13l4 -25q11 3 11 12zM242 267
q1 -4 1 -12h42zM265 204v-39l42 83zM259 221v-19l43 44zM245 230v-14l42 25zM338 70l-33 -15l19 -44q16 0 54 -2q35 -3 54 -2l-16 30q-32 0 -41 19q-6 12 -4 40t-2 35l-59 117zM195 17q-4 -4 -12 -24q4 -4 16 -4l66 3l38 238q-17 -29 -43 -83v-61q0 -44 -9 -53t-56 -16z
M186 13q-16 -4 -16 -14q0 -6 4 -10zM313 51l-28 178l-38 -238q17 1 53 1l-20 44zM231 393l-67 147l-33 -27l-15 100q-17 0 -51.5 1.5t-52.5 1.5q-32 0 -32 -13q0 -11 15 -15l24 -2q34 -3 77 -66q67 -97 97 -136q56 -72 112 -122q-17 36 -35 72q-30 59 -39 59zM163 543
l66 -147q9 -1 40 -59q17 -36 35 -72q-6 64 -27 168q-3 9 -47 70q-41 56 -41 71q0 12 25 15q19 2 37 4l-4 26h-9q-20 0 -61 -2t-62 -2l14 -99zM247 249v-12l42 12h-42zM196 372q23 -36 59 -87q44 -24 54 -31zM372 134v55l-59 61zM234 296q8 -10 11 -19l43 -12z" />
    <glyph glyph-name="Z" unicode="Z" horiz-adv-x="559" 
d="M191 42q-23 4 -23 12q0 7 31 50q34 48 36 51q14 37 40 106l-53 -74l-22 17q-17 -4 -64 -88q-28 -52 -56 -105l101 2q0 2 5 14.5t5 14.5zM251 238q33 25 69 53q26 35 88 123q85 122 85 133q0 10 -7 14q-39 -62 -116 -163q-87 -113 -119 -160zM225 328l32 -84l-13 110z
M319 575l10 1h38q23 0 23 -10q0 -7 -50 -77l-52 -72l8 -7l-16 -133l100 263l31 20l8 44h-81zM365 514l-101 -263q31 45 120 161q76 99 116 163q-7 4 -23 4h-73l-8 -45zM316 567l19 28v1h-98l4 -32q38 3 75 3zM165 552l2 -5q29 10 73 12l-4 32h-69q-33 0 -36 14q-1 7 -4 19
l7 -94q11 7 31 22zM421 23l45 -37h49l2 3l1 -3q28 1 28 29v44l-37 38q-19 -60 -88 -74zM290 242l6 9h-32zM48 478q0 -10 10 -10q7 0 36 41l-27 37q-19 -65 -19 -68zM334 272l10 15l-43 -15h33zM134 529l-7 95q-1 7 -11 7q-9 0 -16 -22l-22 -74l27 -37q16 22 29 31zM549 150
q0 19 -15 19q-9 0 -14 -21l-8 -32l37 -38v72zM324 282l26 38l-69 -53zM301 233l5 7l-21 16zM143 563q5 3 15 7l-1 4zM280 260l22 -17l5 7zM282 426l-22 -30l13 -110l16 133zM266 212l-11 30l5 -40zM180 14q0 -2 -5 -14.5t-5 -14.5h32q22 1 32 1l4 25q-19 1 -58 3zM274 217
l-4 40l-7 -57zM285 232l-17 23l12 -30zM262 249l-40 -105q17 24 33 48q7 56 7 57zM222 189l53 73l-74 -57zM18 22q0 -12 26 -12h33l97 175q-36 -25 -100 -77q-5 -5 -29 -40q-27 -38 -27 -46zM511 -4h4l-1 3zM153 169l23 17l-9 8zM171 197l10 -7l74 57l-120 -42l-78 -110
l64 48q49 38 50 54zM229 327l-13 -18l59 -45zM249 38l-3 -26h38l-9 25q-5 0 -13 1h-13zM235 359l-15 -20l46 -63zM176 289l-18 -26h91zM188 318l-14 -19l73 -26zM275 15l10 -25l86 -2l-11 30q-28 -3 -85 -3zM169 257l-30 -42l121 42h-91zM371 15l11 -29q26 -1 76 -2l-44 37
q-14 -2 -43 -6z" />
    <glyph glyph-name="bracketleft" unicode="[" horiz-adv-x="326" 
d="M177 -91h6q9 0 27 -1.5t27 -1.5q24 0 24 14q0 13 -32 15h-39q-18 0 -23 5t-5 23v74l-37 -17zM211 242v7l-20 -7h20zM193 255v8l-20 -15zM170 272v23l-21 -50zM98 -112q6 -2 18 -2q10 0 29.5 1t29.5 1l-53 111l38 17v29l-20 157zM159 367l-18 -133q8 16 21 50v186l-26 -82
zM163 200v11l-21 15zM180 199l21 -14v7zM187 220v6h-21zM171 47v108l-21 50zM186 147v23l-21 26zM162 241v12l-20 -26zM58 243v-17h50zM84 205v-19l50 35zM76 221v-16l50 16h-50zM69 163v-29l50 64zM88 155v-58l50 122zM85 71v-173q0 -16 9 -19l42 314q-21 -47 -51 -122z
M50 275v-19l50 -17zM157 406l-22 22q24 51 24 104q0 8 -1 21t-1 18q0 19 9.5 26.5t38.5 8.5l3 5l-2 20q-16 -1 -45 1q-32 2 -45 2q-17 0 -23 -6l47 -354zM93 593q-4 -4 -4 -15v-217q24 -56 50 -122zM77 300v-29l51 -35zM213 586h20q35 0 35 14t-24 14q-5 0 -15 -1t-15 -1
l3 -20zM90 349v-58l51 -64z" />
    <glyph glyph-name="backslash" unicode="\" horiz-adv-x="388" 
d="M200 193q5 -12 11 -25l-7 85q0 -5 -2 -30q-2 -18 -2 -30zM189 161l7 -14l4 60zM168 199l4 -10l17 34zM264 224l-10 23h-32zM256 267l-6 14l-26 -14h32zM245 92l-39 157q1 -32 7 -86q12 -26 32 -71zM269 117l-20 -32q4 -25 31 -55q24 -28 49 -41l19 17q-23 59 -75 168
q-9 16 -33 42l-36 40zM285 -6l26 -58q8 -18 37 -18q28 0 28 11q0 10 -14 35l-19 -17zM235 303l-5 10l-16 -35zM274 96l-65 139q18 -79 45 -170zM228 229l68 -82l-26 59zM230 271l-5 11l-20 -25zM130 279l10 -23h32zM85 511l-2 -1l1 4l-29 61q-20 0 -20 -9q0 -6 24 -59
q13 -29 26 -59l9 -4q-2 -6 23 -67l23 -12l-13 -10q3 -13 74 -91zM122 346l26 -59l43 -23zM100 397l10 -22l12 9zM222 299l-5 11l-11 -46zM180 190l5 -11l11 46zM168 237l-26 -14l5 -11zM132 235l7 -14l25 14h-32zM82 451l9 -18l-1 14zM208 333l-12 25l7 -86q0 8 3 31
q2 19 2 30zM218 329l-7 15l-5 -61zM173 384l31 -127q-3 42 -7 87q-5 18 -23 56q-26 54 -27 56l9 -61zM86 510l27 22q-11 32 -20 38l-8 -57zM83 593q-6 4 -24 4h-13l28 -62zM194 299l-32 126l-16 11q0 62 -41 132l-27 -22zM71 535l2 1l-1 3z" />
    <glyph glyph-name="bracketright" unicode="]" horiz-adv-x="326" 
d="M141 -91h-6q-10 0 -28 -1.5t-27 -1.5q-24 0 -24 14q0 13 32 15h40q17 0 22 5t5 23v74l38 -17zM106 242v7l21 -7h-21zM124 255v8l21 -15zM147 272v23l21 -50zM219 -112q-6 -2 -18 -2q-9 0 -28.5 1t-29.5 1l52 111l-38 17v29l21 157zM159 367l17 -133q-8 16 -21 50v186
l26 -82zM155 200v11l20 15zM137 199l-20 -14v7zM131 220v6h20zM146 47v108q10 23 21 50zM132 147v23l20 26zM155 241v12l21 -26zM260 243v-17h-51zM234 205v-19l-51 35zM242 221v-16l-51 16h51zM249 163v-29l-51 64zM230 155v-58l-51 122zM232 71v-173q0 -16 -9 -19l-41 314
q25 -60 50 -122zM268 275v-19l-51 -17zM160 406l23 22q-24 52 -24 105v21q1 13 1 17q0 19 -9 26.5t-38 8.5l-4 5l3 20q16 -1 46 1t43 2q17 0 23 -6l-46 -354zM224 593q5 -5 5 -15v-217q-24 -56 -51 -122zM240 300v-29l-51 -35zM104 586h-20q-11 1 -21 1q-13 3 -13 13
q0 14 23 14q5 0 15 -1t15 -1l-3 -20zM227 349v-58l-50 -64z" />
    <glyph glyph-name="asciicircum" unicode="^" horiz-adv-x="554" 
d="M410 323l20 -14l-20 40l-60 -26h60zM376 349l31 8l-25 -21l1 -2h7l60 26l-18 37l-63 -34zM380 322q-2 -1 -6 -2l8 -17l71 -17l13 6l3 -3q-4 10 -10 19q-11 10 -19 14h-60zM358 323l1 -3l6 3h-7zM516 154l-7 14l-1 -14h8zM497 162v13l-3 7l-24 -20h27zM365 273l14 -8
l42 22l-71 17zM373 340l6 -14l26 21zM153 310l15 -12h1l10 20h-40l-18 -26l-27 16l-16 -32l64 16zM143 292l-64 -16l-34 -68l70 37zM109 297l18 26h-40l-6 -10zM64 212l-24 -47h44l50 85zM403 252l-14 8l53 -108h47l24 21l-47 96l-21 5zM441 292l-13 -7l20 -5q-3 9 -7 12z
M75 155h38l51 106l-39 -21zM345 383l7 -16l64 34l-18 35zM182 302l-27 -7l-27 -47l39 22l15 31v1zM148 354l31 -8l7 15l-50 27l16 12l-24 5l-37 -75h41zM215 425l20 40l-21 118l-43 -87l20 -47q23 -11 24 -24zM270 508l4 -8q14 25 44 71l-12 25h-71l-2 -5l20 -118zM279 470
l34 -70l42 76l-32 64q-9 -12 -44 -70zM328 378q19 17 54 53l-23 45l-41 -76zM136 323h39l8 16l-31 8zM161 296l27 7l-16 12zM158 384l51 -27l8 16l-54 52l-12 -24l23 -5zM162 296v1h-1zM214 427q-3 14 -24 24l-20 47l-20 -41l53 -52z" />
    <glyph glyph-name="underscore" unicode="_" horiz-adv-x="500" 
d="M53 -52l-51 -22v-50h30l51 72h-30zM6 -50v-22l51 22h-51zM358 -118l-20 28l-16 -25zM221 -114l2 7l-7 -3zM334 -81l18 27h-37zM357 -112l95 -6l47 41l-4 -51h11v72h-151l-17 -28zM447 -116l-95 6l12 -16h126l4 51zM328 -124l16 25l-19 28h-39l3 -16l-48 -22l-1 -7l35 -27
h100l-11 16zM171 -62h-108l-51 -73h120q-1 22 39 73zM277 -74l-4 16h-36l-8 -38zM220 -139h42l-36 27zM220 -92l7 3l8 38h-39q-12 -16 -34 -49q-2 -11 -6 -23h63l6 27z" />
    <glyph glyph-name="grave" unicode="`" 
 />
    <glyph glyph-name="a" unicode="a" horiz-adv-x="448" 
d="M269 137q-3 -17 -10 -29l4 -32q2 2 3 2q3 0 14 -19q13 -23 14 -25l10 16zM405 201v30l-55 -30h55zM307 3q13 -14 24 -19l-14 35zM286 160l-1 -12l55 -73l-22 -35l14 -35q12 -6 24 -6q24 0 59.5 22.5t35.5 44.5q0 8 -8 8q-3 0 -15.5 -9t-25.5 -9q-21 0 -26 25q-2 8 -2 41
l-22 -11zM233 61l-4 -29q10 9 31 24l-4 32q-10 -17 -23 -27zM199 64l-19 -46q21 9 49 30l4 29q-14 -11 -34 -13zM241 252l-15 -6l8 -19q6 2 9 4zM235 296l3 -21q3 1 11 3l3 26q-5 -2 -17 -8zM279 253q5 -2 5 -15q50 71 87 108v58q0 10 -1 15l-34 -23zM97 366l11 9l-7 8z
M325 24l22 35l-55 73q0 -8 -2 -20zM272 196l54 19l-29 -26h7l55 30v51l-87 -65v-9zM296 163v-9l66 -49l22 12v17zM292 178l12 11h-25v-8l88 -29v37h-56zM283 227v-13l88 64v57q-31 -30 -88 -108zM327 199l30 26l-55 -18v-8h25zM311 187h-8l-11 -11zM139 215l-17 -26h22
q6 7 22 17zM163 46q-35 0 -40 50l-32 -23l-29 -77q16 -10 37 -10q23 0 51 15l19 46h-3q-2 -1 -3 -1zM103 140l-47 -16l2 -6l-8 4l-23 -8q-7 -17 -7 -39q0 -18 6 -33l56 41zM217 231l-14 17q-6 -2 -18 -8l20 -15zM115 372l45 38l1 -2q21 31 52 34l-3 21q-54 -8 -92 -35
l-10 -48zM145 223l27 -8q10 6 16 9l-21 15q-46 -22 -73 -42h34zM226 429q34 0 43 -42q7 16 37 60q-21 5 -53 5q-19 0 -37 -3l3 -20h7zM126 159l20 30h-33l-12 -9zM43 369q-9 -14 -9 -29q0 -19 20 -19q21 0 44 16v26zM112 369l-17 23l-10 -9l3 17l-18 25q-16 -16 -29 -39
l56 -6v-26q9 6 15 15zM44 30q8 -24 27 -36l29 77zM156 158l-13 -5l-21 -56l32 23q-1 4 -1 12q0 13 3 26zM157 172l-8 7l-10 -26l13 5q1 7 5 14zM76 135l-9 23q-5 -6 -13 -18l16 -7zM153 428l-1 2l-45 -38l17 -23q8 20 29 59zM36 130q-3 -5 -7 -15l23 8zM102 442
q-20 -14 -28 -23l18 -24zM78 125l-3 6l-5 -2zM201 279q-5 -2 -16 -7l14 -17q3 2 10 4zM139 153l10 26l8 -7q4 6 12 16h-22l-20 -29l-26 20q-13 -11 -18 -18l9 -23zM274 422q2 -20 2 -32v-69q0 -17 -13 -25l-4 -26q7 2 13 0l57 143l33 22q-7 36 -51 47q-14 -19 -37 -60z" />
    <glyph glyph-name="b" unicode="b" horiz-adv-x="443" 
d="M223 386l-30 28l3 -27q14 0 26 -3zM258 26q-24 -12 -52 -12q-9 0 -18 3l-2 -20q18 -2 28 -2q31 0 59 9l-23 9zM169 35q-18 6 -31 19l-10 -30q16 -7 37 -10l-10 15zM263 58l-8 -13l23 -9q2 0 6 2l-9 27q-2 -1 -6 -3.5t-6 -3.5zM176 48l-14 -6l11 -15q3 -1 9 -1l2 20
q-2 0 -8 2zM99 238l16 -13l3 1v33h-25l-18 -26l-31 26h-1v-62l48 18zM98 218l-49 -19v-73l25 21zM13 95q0 -13 -5 -71l30 92zM106 173l-50 -42q-32 -91 -32 -99q0 -14 12 -14q9 0 19.5 23.5t17.5 23.5q6 0 48 -21l10 30q-18 18 -23 47q-2 12 -2 52zM100 295l-24 -34h25v33z
M391 184l-29 -15q-11 -71 -58 -103l9 -28q87 28 120 104l-17 32zM58 475l7 6l-5 8zM412 179l18 -32q6 14 8 22zM366 201l25 -10l-10 18zM-9 561q0 -10 14 -10q5 0 15 -2l-15 23q-14 -4 -14 -11zM72 227l-7 -22l24 10zM42 263v-2h2zM48 236l18 25h-48zM369 173l30 15l-28 11
q0 -17 -2 -26zM55 279l23 33l2 -1v39l-13 12l14 11l2 4l-55 18l-2 69l-21 5v-189l2 -1h48zM111 223l-25 -9l-23 -72l50 43v36zM225 399v-2q12 -1 25 -8l19 55h-17q-35 0 -57 -10v-7zM98 218l-2 -1l2 -2v3zM320 296q48 31 78 35q-6 12 -15 24l-12 -19v35q-4 5 -14 15l-59 -51
q12 -16 22 -39zM325 293q6 -14 9 -33h6l66 -47q17 23 17 28q0 49 -20 88q-32 -4 -78 -36zM299 379q11 -8 23 -22l59 50q-19 17 -40 27q-27 -26 -42 -55zM188 457v7l-2 -1l-1 -2zM294 389q15 31 43 55q-24 12 -49 15l-19 -55q12 -5 25 -15zM76 581q-37 -14 -63 -20l16 -24
q13 -4 15 -13t5 -15.5t10 -18.5zM340 259h-6q3 -25 2 -46l28 -11l15 8l10 -18l25 -9q8 24 8 56l-16 -27zM108 371l-14 -11l13 -12q0 15 1 23zM47 409l55 -18q3 8 10 11l-72 110l-8 -7l3 15l-12 17q1 -9 1 -54l21 -5zM51 524l53 43l9 -43q0 16 2 49.5t2 50.5q0 14 -10 14
q-9 0 -45 -16l-16 -90zM415 377l-12 15l-1 -35zM162 406q20 4 31 3l-3 27l-3 4l1 2q-7 -3 -21.5 -10.5t-22.5 -10.5v-4zM41 518l72 -109q14 6 27 9l-17 12l-1 4q-8 -4 -13 -4q-4 0 -6 8q-1 6 0 17q1 14 1 13v50q0 -6 -10 44z" />
    <glyph glyph-name="c" unicode="c" horiz-adv-x="424" 
d="M389 103q0 6 -6 8zM62 206l-7 -9h9q-2 6 -2 9zM15 134l-2 6l-6 -2zM98 180q-2 5 -6 17h-9l-19 -27l-37 27h-19l19 -47l50 15l9 24zM182 36l35 16l-1 14q-10 4 -28 14zM98 188l-9 -23l24 7q-1 4 -15 16zM101 197h-56l37 -27zM284 -3l-15 33l-16 -25zM263 50l5 8q-6 0 -9 1
zM57 297l33 -8q1 8 5 29l-41 50l-9 -7l3 15l-2 2q-7 -7 -15 -18l25 -2zM67 146l-21 -53l58 40q-7 9 -12 21zM131 152l-58 -40l-9 -23q29 -28 69 -42l30 70q-18 15 -32 35zM67 156l-50 -15l2 -5l-8 3l-15 -5q13 -25 30 -44l19 14zM178 50l6 44q-3 2 -22 15l-30 -70
q26 -8 40 -11l-12 13zM31 150l-19 47h19l-38 29v-1q0 -35 12 -68l21 -9zM-12 147q1 -2 3 -6.5t3 -6.5l15 4zM271 27l4 1l-5 1zM156 19l12 -13l3 -1l3 22zM278 44l-5 -8l14 -33q2 -2 5 -2q20 0 66.5 25t47.5 44l-6 9h-2q6 0 -36.5 -19.5t-83.5 -15.5zM253 5l17 25l-4 9
q-21 3 -37 10l2 -15l-35 -16l-3 -22q27 -5 50 -5t42 4l-1 2zM45 92l10 -10l10 23zM106 402l-45 -36l41 -50q4 18 16 43zM344 361q19 -21 31 -21q14 0 21 25q6 18 6 36q0 11 -11 24q-30 -49 -47 -64zM61 348l9 7l-7 8zM296 392q11 -14 32 -41q10 8 46 63q-16 16 -51 24l7 -25
zM59 382l44 36l13 -43q15 30 43 52l-4 30q-59 -19 -101 -62l-2 -6zM39 400l-3 -3l2 -3zM310 415l34 22l-7 25q-30 8 -63 9l-13 -20q25 -4 49 -36zM100 198l7 9q-5 18 -5 36q0 17 3 33l-34 7l-1 61l-25 3q-39 -52 -39 -121l38 -28h56zM233 429q8 0 12 -1l13 20q-3 1 -11 1
q-38 0 -79 -13l4 -31q30 24 61 24z" />
    <glyph glyph-name="d" unicode="d" horiz-adv-x="544" 
d="M384 12q2 0 14 4l-27 11q4 -15 13 -15zM257 2l14 7q-2 1 -6.5 1.5t-6.5 0.5zM258 459l1 -5h4zM252 -2l4 38l-24 -10zM256 447l4 -4l-1 10zM380 295l-7 -2v-3zM134 135l28 23q-6 17 -9 33zM319 612q0 -5 6 -7l16 23q-22 -5 -22 -16zM129 182v2q-1 0 -1 1l-2 13l-92 -35
q8 -42 30 -76l46 39zM72 78q10 -15 23 -29l23 67zM108 230l-6 -9l-33 28h-32l26 -64l-49 21v-1q0 -22 4 -41l92 35q-2 22 -2 31zM149 258q5 67 36 107l-52 17q-44 -37 -64 -90l40 -34h40zM135 136l-28 -24l-22 -67q36 -36 85 -48l22 64q-39 26 -57 75zM69 257h31l-40 35
q-14 -39 -14 -78l48 -21zM233 31l24 11l1 9q-20 4 -40 16l-22 -64q23 -5 44 -5h12l1 5zM363 22l-6 16l-1.5 -0.5t-2.5 -1.5l-16 -24l8 -3q3 2 9 6.5t9 6.5zM194 388l-20 30q-22 -11 -45 -29l52 -17q6 9 13 16zM474 183l8 -3v7zM422 139l-20 17v-57l5 -9l-5 -8q0 -26 -21 -38
l5 -16q8 4 10 4q6 0 10 -33l26 -10q15 6 47 18q20 6 40 14.5t20 28.5q0 11 -5 11q-4 0 -18.5 -11.5t-17.5 -11.5q-14 0 -14 31v94l-8 3zM249 -36h4l-3 5zM341 59q-17 -8 -49 -8q-12 0 -18 1l-15 -7l-4 -38l4 -5q40 4 74 29l-8 3zM375 97l6 9l-6 8v-17zM371 394q8 -17 10 -40
l84 70v80q-40 -40 -94 -110zM367 257h48l34 -24v88l-82 -46v-18zM373 293l6 2l-6 -5v-12l82 46v77l-84 -71q2 -12 2 -37zM399 245v-33l74 -28l9 4v32l-34 25h-49zM100 257h-40l33 -28l6 9v2q0 12 1 17zM397 160l20 -17l54 27l-74 29v-39zM363 492l7 22l65 42l-11 52
q-47 -22 -88 -30l-16 -23q2 0 5.5 -1t4.5 -2q27 -3 32 -18q1 -4 1 -42zM216 402q22 14 47 17l-1 5l-4 4l3 6v4q-28 -2 -53 -9l5 -25zM378 536q-12 -18 -8 -92l-6 -7q-12 4 -18 7l-8 -22q15 -9 25 -30q12 25 42 57l50 50l1 3q0 20 2 59.5t2 59.5q0 17 -11 17q-2 0 -18 -8
l12 -52zM259 475l-2 -1v-4zM196 439l-3 2l-6 25q-13 -4 -29 -11l20 -31q6 7 18 15zM259 459l5 -5q3 1 9 1q33 0 53 -15l8 22q-36 12 -68 12h-3q-2 -1 -3 -1l-2 -4q0 -1 1 -5v-5z" />
    <glyph glyph-name="e" unicode="e" horiz-adv-x="471" 
d="M225 28l36 16l-2 14q-18 5 -28 13zM96 126l-51 -16l3 -5l-8 3l-16 -5q10 -23 28 -46l22 15zM70 49l11 -11l11 26zM307 26l7 10q-2 0 -5 1h-6zM72 112l-3 5l-5 -1zM148 183l-8 -11h10q0 2 -0.5 5.5t-1.5 5.5zM146 172l8 11q-7 32 -4 68l-33 7l-2 62l-30 3
q-34 -53 -34 -120v-3l38 -28h57zM23 118q1 -4 5 -14l16 5zM68 124l-19 48h19l-39 28q2 -36 12 -69l21 -9zM315 34l-7 -10l14 -33q83 22 115 76l-10 15q-1 -1 -13 -12q-17 -17 -46.5 -27.5t-52.5 -8.5zM463 82q0 8 -8 8q-4 0 -5 -2l10 -15q3 6 3 9zM282 17l29 -8l2 1l-14 32z
M152 109l-58 -40l-11 -26q31 -29 69 -43l31 72q-15 14 -31 37zM302 36l-5 10q-13 1 -35 7l1 -13l-36 -16l-3 -25q18 -3 36 -3q29 0 54 7l-29 7zM222 16l6 43q-12 8 -22 16l-31 -72q17 -7 44 -11l-15 16zM202 -9l15 -17l3 25zM183 282l-8 27q-17 0 -17 10q0 2 7 23l-8 31
l-45 -36l46 -57q4 2 25 2zM224 319l-1 3l-1 -2zM81 353l9 7l-6 8zM104 172h-57l38 -28zM338 281h81q24 0 24 16q0 38 -29 73q-21 -36 -76 -89zM231 317h-7l1 -11zM223 315l1 2l-2 11h-47l8 -28h43l-2 14zM233 303l-6 -10l1 -4l13 -13h47l12 29q-11 -2 -67 -2zM229 281h13
l-14 14zM354 388q3 -9 3 -17q0 -33 -42 -41l-13 -29h41q57 54 75 89q-13 18 -33 30l3 -10zM106 116l-22 -53l59 40q-8 14 -11 21zM116 160l-9 -24l26 8q-1 1 -2 5q-5 5 -15 11zM116 259l34 -7q0 18 10 22l-46 57l-9 -7l3 15l-7 8q-10 -11 -17 -23l31 -4zM159 152q-4 9 -7 20
h-11l-19 -28l-38 28h-19l19 -48l51 16l9 23zM350 380l34 22l-3 10q-28 18 -68 23l-13 -20q41 -6 50 -35zM275 434q7 0 21 -2l13 20q-10 2 -31 2q-32 0 -60 -7l4 -27q22 14 53 14zM99 367l45 37l9 -31q15 31 46 50l-4 26q-58 -16 -99 -55l-3 -19zM91 383q-2 -1 -5.5 -4.5
l-5.5 -5.5l7 -9z" />
    <glyph glyph-name="f" unicode="f" horiz-adv-x="383" 
d="M230 425l-9 -34h29q3 9 30 36q-34 -2 -50 -2zM311 582q14 -16 26 -16q18 0 30 58l-12 -45q20 23 20 42q0 33 -62 39l10 -70zM269 413h15q10 -1 15 -1h7q11 0 11 11q0 27 -13 27q-3 0 -5 -1q-26 -22 -30 -36zM244 608q15 -1 31 -19q11 -14 22 -29l13 8l-11 69q-4 1 -14 1
q-15 0 -37 -5l5 -13zM3 14q0 -13 19 -13h12l7 29q-12 -1 -23 -2q-15 -3 -15 -14zM262 23q0 12 -16 14l6 -26q10 3 10 12zM180 451q-3 -5 -7 -24q0 -8 1 -11l23 -23v-4q12 1 23 0l9 34q-37 0 -38 1q-12 3 -11 27zM7 424q0 -11 14 -11q30 0 23 1v31q-37 -9 -37 -21zM172 435
l8 -96v48q0 20 15 22l1 4zM169 438l3 -4l-1 12zM149 26l19 8q1 12 7 70q4 43 4 69v39q-22 -74 -59 -224h44v7zM133 202l48 54v3l-73 -37zM77 215l7 -6l73 38v2h-88v-47l5 2zM92 214l10 5l-7 5zM121 197l-25 19l-9 -5q-1 -2 -6 -20v-39zM69 197v-17l5 20zM184 66l-14 -7
l-4 -39l4 -7q12 0 35.5 -1.5t34.5 -1.5q7 0 10 1l-7 26q-18 2 -35 4q-19 6 -24 25zM243 619l8 12l-4 14q-46 -11 -82 -42l12 -149q2 8 7 24q0 10 1 28q8 113 57 113h1zM166 220l-32 -63l-17 13l-40 -44q0 -7 1 -23.5t1 -24.5q0 -59 -42 -64l-8 -29q39 3 78 3q2 9 33 122
q28 103 26 110zM164 -19l4 -1l-4 8v-7zM99 359l76 -84v4l-87 173q-4 -22 -22 -26v-30q15 0 18 -9l31 -16zM144 177q33 66 32 67l-49 -54zM166 282v2l-76 85l16 12l-31 15q3 -8 4 -34q0 -18 -1 -48t-1 -31l23 32zM153 388l28 -108v39q0 14 -8 97l-3 3q0 10 2 8l-12 149
q-30 -25 -44 -55l19 -121zM180 285l-28 108l-18 11l-20 121q-10 -20 -20 -76l86 -172v8zM157 276l-66 34l-22 -32v-4h88v2zM164 -11l3 39l-19 -9zM184 41q-3 11 -3 133l-12 -139z" />
    <glyph glyph-name="g" unicode="g" horiz-adv-x="504" 
d="M394 68h-80l-8 -5l5 5h-46l155 -61l15 8l9 -18l35 -14l1 8q2 17 -11 39l-7 -11zM138 -24q11 0 16 -1l1 1l-26 21l-24 -10l-25 -76l10 8q3 17 17.5 37t30.5 20zM232 -213h5l-4 6zM309 -162q-35 -9 -71 -6l-2 -21l4 -5q50 2 96 18l-1 2zM213 -168q-7 1 -29 8
q-5 -13 -11 -36q10 -1 31 -1h24v6zM254 66l-91 -37l26 -20zM377 -13l40 20l-155 61l76 -65l8 -2q16 -4 31 -14zM360 63h-3l-5 -5zM440 -2l25 -10l-9 17zM131 36l17 -13l91 37h-115l-18 -26l-30 26h-10q27 -23 54 -48l4 2zM163 -164q-62 25 -62 78q0 6 1 13l-9 -8l-32 -95
q38 -19 91 -24q4 12 11 36zM52 -113q12 -21 38 -35l31 95zM114 10l-4 -2v-1q0 -5 -25 -18q-32 -16 -48 -29q-25 -24 -25 -54q0 -16 8 -32l69 60zM340 -163l3 1l-4 2zM138 39l-7 -22l24 9zM371 -14l-76 66l39 -61q25 -2 37 -5zM308 4l-39 61l21 -60h9q6 -1 9 -1zM293 -25
l-20 60l6 -60h14zM351 -195l-6 18q-10 -4 -20 -6zM231 -217l3 21q-7 1 -19 3zM267 2l7 61l-21 -61h14zM430 -3l-39 -20q22 -14 22 -40q0 -57 -69 -81l6 -18l4 -1q98 33 127 102l-26 49zM173 -9l4 -1l-2 2zM442 -3l26 -49q7 16 9 35zM239 1l20 61l-38 -61h18zM180 -19
q8 0 24 -2l39 60l-65 -56zM311 -13l-6 60l-7 -61zM110 83l25 35q-4 8 -4 12q0 13 15 22l-18 15q-4 -4 -54 -18q-40 -12 -40 -34q0 -9 11 -18q8 -7 17 -14h48zM225 175q-60 23 -60 113q0 8 2.5 23t2.5 22q0 5 -4 17l-55 -45l100 -157q16 2 23 2zM265 74l12 19h-5zM355 346
l-20 -59q-1 -13 -7 -38q-6 -10 -15 -30l-15 -42q12 1 31 7q9 18 58 74q46 52 46 57q0 11 -8 34t-8 24q0 6 44 6l13 32l-13 -32h5q15 0 15 12q0 25 -17 25h-52l6 -29zM343 196q42 14 74 47.5t32 74.5v5q-1 3 -1 4q-1 -7 -35 -43l-43 -46zM343 309l20 59l62 40l-6 29
q-30 0 -39 2l-36 14l-24 -35q28 -41 23 -109zM277 213l-2 -22q7 1 20 3l14 42q-14 -17 -32 -23zM253 430q36 0 56 -31l24 35q-39 16 -82 16q-16 0 -23 -1l2 -23q9 4 23 4zM256 67l48 -19l-22 19h-26zM255 85l13 -19l-7 19h-6zM276 70l22 -19l-12 19h-10zM307 66l-2 -19l7 19
h-5zM427 60l69 -49l7 10q-30 53 -123 57l-32 -18h79zM130 120l-25 -35h115l-48 19l-20 2q-15 2 -22 14zM94 355l56 45l3 -17q15 54 56 69l-3 23q-63 -7 -104 -41l-13 -71zM259 86l7 -19l-2 19h-5zM322 99h-26l-22 -19zM325 73l23 19h-21q-42 -15 -48 -19h46zM306 122h-10
l-12 -19zM46 91q4 -10 16 -22h10zM95 420q-22 -18 -34 -39l21 -33zM365 81l32 18q-4 1 -13 1l-22 -19h3zM119 43l18 26h-48zM251 166l-2 19q-12 0 -25 5l9 -25q12 0 18 1zM94 312l8 6l-5 8zM272 170l3 21q-14 -4 -22 -4l2 -19q6 1 17 2zM104 213l-2 72l-50 14q1 -42 29 -71
q11 -11 64 -46l3 -2l17 13zM302 66l2 -19l2 19h-4zM203 160l-100 157l-8 -6l2 14l-21 32q-18 -31 -18 -64v-1l51 -14l1 -72l61 -20l-16 -13l2 -3l-1 -3l18 -16q9 5 29 9z" />
    <glyph glyph-name="h" unicode="h" horiz-adv-x="570" 
d="M309 406l1 7l-29 28l-6 -3l4 -34q20 2 30 2zM332 462q11 -1 31 -6l20 54q-4 1 -14 1q-36 0 -65 -14l29 -28zM395 416q27 40 49 60q-26 11 -56 13l-21 -54q17 -6 28 -19zM541 3q20 0 21.5 3t1.5 8q0 7 -6 10l-24 -21h7zM133 208l-29 -81l69 54v34l-6 5zM158 253l-11 -30
l35 12zM389 274v-33l83 -30l7 4v35l-33 24h-57zM444 325v-4l9 7zM412 183l25 -20l58 30l-83 29v-39zM169 224v6l-6 -2zM17 626q0 -11 13 -13q8 -1 22 -5l-22 31q-13 -2 -13 -13zM389 274h57l33 -23v69q0 12 -1 18l-89 -49v-15zM9 5q0 -12 16 -12q19 0 28 1l13 35
q-7 -6 -34 -10q-23 -4 -23 -14zM398 311l9 4l-9 -8v-14l89 49q-2 38 -19 63l-74 -57q4 -16 4 -37zM383 389q12 -14 17 -33l74 58q-14 23 -42 36q-21 -18 -49 -61zM126 241l23 -18l6 2v35h-34l-25 -35l-31 25v-57l50 18zM247 36l14 -19q2 4 2 5q0 10 -16 14zM196 16
q-12 -30 -12 -32q34 -2 49 -2q12 0 15 6l-15 19q-13 1 -37 9zM65 94v-44l22 61zM431 84l-9 11v-24zM202 41q-16 10 -16 79q0 19 1 42l1 23l-69 -53l-22 -61l-3 -18q0 -1 -3 -4.5t-3 -4.5l-13 -35q68 3 116 1q0 2 5.5 16t5.5 15zM490 205l7 -3v6zM123 214l-50 -18v-79l21 17z
M414 181l-25 19v-58l9 -11l-9 -13q0 -53 -12 -62l8 -21q31 -11 49 -11q15 0 41 -2q32 -2 41 -2l24 21q-5 3 -21 5q-31 5 -37 22q-3 7 -3 47v93l-7 3zM351 40q-5 2 -17 -2.5t-12 -12.5q0 -12 16 -12q17 0 53 2l-5 13zM407 -13h15q10 1 15 1l-35 12zM390 1q-10 -6 -28 -8
l36 -12zM93 554l76 -106v102q-6 25 -13 55zM221 376q12 11 28 17l-5 13l-8 5q-7 -5 -25 -21zM104 513l11 10l-7 10zM134 274h34v35l-8 3zM244 440q15 7 29 8l-4 35q-14 -7 -38 -25l8 -5zM166 423q-3 0 -5 3l-23 -17l28 -22q9 19 20 29l-10 14q-7 -7 -10 -7zM91 239l24 35
h-56v-9zM106 428l71 -20q-1 4 -1 26l-76 106l-12 -10l4 20l-8 11q2 -15 2 -46l18 -3zM137 330l7 -3q0 21 7 36l-28 22l23 18h-1l-70 19l-2 85l-19 3v-217h57zM117 523l63 51l13 -54v58q0 11 1.5 31.5t1.5 30.5q0 14 -13 14q-5 0 -26 -11q-27 -13 -29 -14l-18 -95zM103 660
q-14 -6 -72 -20v0l22 -30q16 -5 21 -19q6 -20 11 -26z" />
    <glyph glyph-name="i" unicode="i" horiz-adv-x="299" 
d="M109 510q0 -36 37 -45l-6 90q-31 -12 -31 -45zM151 335l8 -132l7 119zM169 482q37 9 37 45q0 20 -12 33l3 -16q-9 -12 -22 -34q-6 -18 -6 -28zM138 333l21 -114l-8 132l-2 3q0 2 1 5t1 4l-1 7q-8 -7 -24 -15l1 -14zM148 377l3 -2l-1 11zM174 495l22 33l-2 16
q-14 16 -36 16q-9 0 -17 -3l5 -90q4 -1 12 -1q7 0 9.5 2.5t6.5 26.5zM152 382l-2 -1l1 -7zM153 387l14 -14l-7 -118l33 178h-1q-6 0 -38 -27q-2 -4 -2 -8q0 -2 1 -6v-5zM48 8q0 -12 14 -12l5 1l5 24q-24 -3 -24 -13zM210 267v1l-21 -18zM217 242v29l-22 -17l22 18l-42 -30
h42zM200 199v31h-41zM209 276v36l-41 -67zM202 356v30q0 26 -10 27l-32 -179zM203 305v54l-41 -121zM134 362l-11 7l-2 14l-11 -5l44 -130zM146 7h4l-3 11zM136 34l12 6l10 173q-13 -84 -40 -220l27 1l1 11q-7 23 -10 29zM205 -11q5 0 14 -1h14l-36 48zM184 47l6 9l-27 150
l10 -164l-20 -9q0 -6 -1 -18t-1 -17q2 -6 4 -11h48q-4 50 -19 60zM157 224l-23 -66l-12 10l-8 -14v-64q0 -36 -3 -43q-6 -15 -35 -20h-2l-4 -25q7 0 23 1t24 1q3 12 40 220zM114 326l-9 -8l49 -81l-44 130q-4 -1 -12.5 -4.5t-13.5 -5.5v-6zM167 218l41 -68v37zM227 9
q7 -1 22 -1t15 10q0 12 -26 15q-30 4 -35 22q-2 5 -2 47l-15 -22q1 -2 4 -23q13 -16 37 -48zM202 106v54l-41 67zM113 161l-8 7v-20zM193 58l15 22v7l-42 121zM101 219v-32l42 32h-42zM115 263v-32h43zM191 54l-4 23l-7 -9zM104 322l10 8l-30 25v6q-29 -12 -29 -19
q0 -10 17 -11q26 -2 34 -18q5 -10 5 -40l43 -32zM136 144l23 66l-35 -56zM140 216l-43 -31v-18l9 -7zM168 46l-9 164l-10 -173zM146 9l2 35l-11 -5z" />
    <glyph glyph-name="j" unicode="j" horiz-adv-x="226" 
d="M137 382l-32 -295l38 186l32 34l9 109q-18 -13 -47 -34zM163 263l-38 -186l73 201l-1 -28q19 60 19 137q0 19 -10 19h-2l-9 -109zM196 546l-2 -26q6 11 6 23q0 37 -34 50l5 -96q21 11 23 23q2 16 2 26zM131 587q-41 -9 -41 -51q0 -30 28 -45l19 29zM187 284l-73 -201
l38 48l-21 -17l54 58l16 4v131l-15 -51zM103 91l-5 177v-59q-1 -38 -1 -59q2 -33 6 -59zM42 336q0 -10 14 -12l-5 24q-9 -4 -9 -12zM96 312zM7 -249q0 -9 10 -9q5 0 7 1l4 32q-21 -14 -21 -24zM128 127l21 17l-39 -48h56l30 -21l2 2v113l-17 -5zM97 295l12 -12l-6 -178
l32 295q-20 -12 -31 -16l-8 -70q0 -3 1 -9v-10zM160 87h-56l86 -108q1 10 1 30v59l-1 -2zM97 292l6 -189l6 178zM168 484l-5 96q-9 3 -18 3t-14 -1l6 -68l-19 -28q11 -7 27 -7q10 0 23 5zM29 -222l-3 -31q12 3 43 21l7 62q-15 -29 -47 -52zM84 -189l7 -40l2 1l2 43zM99 -170
l8 256q-6 -37 -6 -110q0 -44 -11 -103q-14 -70 -16 -100q14 8 21 13l-7 39zM112 25l6 56q-6 -18 -6 -30v-26zM97 69q-2 -5 -6 -16v-13zM125 -153l4 6l-23 213l8 -248l-16 -8l-2 -43q25 16 39 30q0 31 -10 50zM106 82l44 -122l30 15l8 -43q2 13 4 41zM104 374q-4 -2 -10 -4
l3 -66zM134 -195l7 7l-10 26zM113 -161l-9 248l-8 -255zM151 -36l-44 122l38 -189l-16 -24q0 -25 13 -49q17 20 32 54t15 59q0 6 -9 42zM95 157v-26q4 -23 6 -29zM91 136v-13q3 -7 6 -16zM87 117v-9l6 -7zM129 -149l-2 23l-4 -6zM96 297q1 1 1 3l-2 65q-14 -5 -25 -8l2 -33
q21 -4 24 -27zM71 332l-2 32q-6 -1 -19 -6l5 -24q3 0 8.5 -0.5t7.5 -1.5zM158 -110l-38 189l23 -212zM91 61v-9l6 16zM80 95v-8h6zM91 78v-7l6 7h-6z" />
    <glyph glyph-name="k" unicode="k" horiz-adv-x="537" 
d="M334 393q-6 -6 -43 -38q-6 -19 -18 -53zM304 349l8 6q0 8 7 13q56 39 169 133l-1 -19q11 2 24.5 5.5t13.5 12.5q0 11 -13 11q-16 0 -48 -2t-48 -2q-12 -10 -61 -83q-26 -37 -51 -75zM349 69l-12 -19q3 -6 3 -8q0 -3 -4 -7l29 -12zM280 175l12 113l-31 -88zM362 434
q16 28 36 47q-37 0 -55 2l-9 -25q33 -8 28 -24zM264 341l-6 -5l10 -29zM275 341l-8 -7l4 -34zM296 406l-15 -12l-4 -41zM126 267l-9 -26l29 11zM525 38q0 6 -5 9l-22 -20q27 0 27 11zM433 430q39 26 57 29v18zM286 293l-14 6l30 -26q-2 4 -7.5 10.5t-8.5 9.5zM311 499
q-15 0 -15 -11q0 -12 28 -15l9 25q-6 1 -18 1h-4zM45 622q0 -12 17 -12l-14 20q-3 -3 -3 -8zM20 45q0 -12 16 -12q4 0 13 1h13l11 34q-5 -3 -32 -9q-21 -4 -21 -14zM275 258l17 -153q14 -17 38 -53l12 18zM370 148l-29 -46l16 -45q45 -20 114 -20h11l22 20q-22 9 -44 17
q-11 6 -41 45l-70 92q-55 69 -75 79zM375 14h35l-41 16zM332 28q-4 -3 -26 -6q-17 -3 -17 -13q0 -12 19 -12q-1 0 59 3l-6 16zM333 318q-2 2 -2 4l-9 -4h11zM300 293q0 1 -1.5 3t-2.5 3h-10zM294 314q-1 2 0 3l-8 -6zM195 299h43l-30 11q-8 -8 -13 -11zM97 557q1 -7 1 -20
l2 15zM96 558q0 -21 -2 -17l9 7zM99 673q-29 -6 -64 -18l14 -20q20 -1 26 -14q4 -8 4 -32l3 -5zM81 469l67 -20l-22 -17l28 -24v55l-80 120l-9 -7v-25l14 -3zM238 7q1 0 2 1l-1 1zM107 544l60 49l20 -92q0 26 1.5 77t1.5 76q0 18 -9 18q-26 -13 -64 -30l-17 -89zM228 64
q-13 2 -19 4q-10 4 -15 11q-13 -30 -13 -38q8 0 23.5 -1t22.5 -1q9 0 14 4l1 2zM79 138q0 -26 -1 -40l19 55zM101 235l-45 -17v-78l18 15zM124 354l16 -5v37l-29 23l22 17l-67 21l-1 78l-15 3v-211h48zM83 579l80 -120v77q0 1 -9.5 44t-10.5 47zM118 299h-49v-8l27 -22z
M142 230l-17 14l-29 -11l-27 -80l71 59q0 15 2 18zM146 274l20 -15l98 37h-43q-35 -21 -32 -21q-8 0 -8 21h-41l-21 -30l-27 23v-58l45 17zM264 210l47 69l-62 -51q9 -7 15 -18zM222 160l31 89l-46 -69zM131 336l-26 -37h41v31zM149 222q3 4 9 4q3 0 10 -5l62 51l-98 -37z
M420 130l-95 142l66 -188zM259 181l29 -40l-17 153zM265 309l22 -18l-16 23zM241 33l2 13q-5 4 -16 6zM240 6q3 3 3 7t-3 7l-1 -13zM261 327l-10 28l-6 -4zM285 288l29 -11l-21 18zM167 33q-6 8 -8 43q-1 25 0 63q1 51 1 38l-71 -59q-7 -19 -19 -55l-2 -19q-2 -12 -10 -17
l-12 -33q63 3 108 1q6 15 13 38z" />
    <glyph glyph-name="l" unicode="l" horiz-adv-x="259" 
d="M123 441l3 -3l-1 14zM46 623l3 27q-10 -2 -24 -9q-2 -2 -2 -6q0 -9 8 -10t15 -2zM75 601l4 3l17 -159l12 -8l23 -133l-8 154l-3 2q0 1 1 5.5t1 6.5l-10 189q-30 -10 -60 -18l-3 -28q18 -2 26 -14zM125 462q-2 -5 1 -14l15 -15l-7 -139q16 90 33 180q17 106 17 182
q0 20 -11 20h-4l6 -39q-21 -17 -35 -83q-7 -46 -15 -92zM178 638l-7 39l-54 -24l10 -189q7 47 26 137q12 17 25 37zM126 441l9 -154l7 138zM79 579q5 -8 7 -22l-3 26zM202 334v1l-24 -20zM181 261v36h-46zM198 296v35l-24 -19l24 20l-46 -36h46zM181 425v127l-46 -269
q46 153 46 142zM186 380v62l-46 -141zM183 323v43l-46 -79zM13 27q0 -13 19 -13h3l5 28q-27 -3 -27 -15zM83 201l-9 7v-23zM159 94l6 10l-30 174l11 -192l-22 -10q0 -6 -1 -20t-1 -21q4 -14 4 -13q36 0 53 -1q-4 61 -20 73zM129 264l-25 -76l-14 10l-9 -15v-81q0 -42 -3 -49
q-7 -14 -41 -21l-5 -28q9 1 26.5 2.5t26.5 1.5q9 30 24 125q10 65 20 131zM109 50l13 6l11 202q-15 -106 -44 -257l30 1l1 13q-4 14 -11 35zM186 0q22 -2 32 -2l-42 59zM120 19h5l-4 13zM139 274l46 -78v42zM108 432l-12 7l-13 126q-3 -43 0 -121q5 -28 22 -73
q26 -72 26 -73zM181 140v63l-46 79zM166 105l16 25v7l-46 142zM216 6q8 -1 24 -1t16 11q0 13 -29 17q-34 5 -40 27q-1 4 -1 56l-16 -26q0 -2 4 -25q2 -4 42 -59zM61 320v-37h47zM70 377v-44l48 -37zM134 282l-48 -37v-22l9 -7zM86 432v-40l3 -3l-3 -2v-20l47 -81zM81 400v-5
l3 3zM69 269v-38l48 38h-48zM173 57l-4 26l-7 -10zM120 18l2 41l-12 -6zM110 220l25 77l-39 -66zM145 116l-10 192l-11 -202z" />
    <glyph glyph-name="m" unicode="m" horiz-adv-x="846" 
d="M435 189l43 -16v8zM142 -16q16 0 46.5 -2t45.5 -2q17 0 17 11t-26.5 15t-33.5 17q-4 7 -5 39l-76 -79h16q11 1 16 1zM690 146l23 -4l-13 9zM669 186h-7v-35l12 -2l9 4q13 -13 67 -17v15l-20 -8zM200 447q0 6 -1 9l1 -46v37zM650 145l12 6l-12 2v-8zM595 15q4 0 12 1h13
l-40 7q2 -8 15 -8zM475 250l-43 -16l43 7v9zM475 220l-43 -7h43v7zM475 240l-43 -28l43 16v12zM475 280l-43 -55l43 29v26zM475 190h-43l43 -7v7zM745 244l1 56l-72 -27v-53q24 9 71 24zM725 240h-3v-2zM729 240v1q-5 -1 -71 -24v-25h6l61 -43l21 8v88q-14 0 -17 -5z
M507 149v13l-43 16zM642 352q8 -17 8 -81l72 27l-1 -56l17 11v76q0 36 -18 64q-21 -9 -42 -19q-33 -15 -36 -22zM361 156v-14l45 30zM182 97l-89 -33q-1 -24 -18 -32q-6 -3 -32 -7q-16 -2 -16 -12q0 -12 17 -12q1 0 61 3l77 79v14zM366 94q0 -8 1 -22.5t1 -20.5
q0 -42 -39 -48q-27 -4 -27 -15t15 -11q9 0 26 1t25 1l43 172zM380 150v-26l45 56zM116 201v-11h31zM757 248v6l-14 -10zM219 169q-4 2 -57 21h-31v-51l88 15v15zM214 192v86l-29 3l-1 64l-104 6q6 -2 19 -2q21 -2 26 -25q1 -7 1 -40v-81q15 -5 31 -11h57zM763 4q22 -2 33 -2
l-5 26zM697 143l-12 -6q0 -8 1.5 -25.5t1.5 -25.5q0 -47 -40 -53q-27 -4 -27 -15q0 -1 1 -4q33 -6 39 -6q10 0 58 1q36 1 59 0l28 25l5 -27h11q16 -2 16 10t-29 16.5t-35 24.5q-1 5 -1 49q-55 39 -76 36zM712 140l53 -33v24zM433 188l43 -54v26zM465 66l-33 130l-42 -172
q6 0 18 1h18l-17 16zM461 39l-56 -25l17 -17l7 1q16 0 46.5 -2t45.5 -2q16 0 16 11t-28 15q-39 6 -39 50q0 7 1 21.5t1 22.5l-43 54zM183 148l-88 -15v-61l88 33v43zM387 215l45 17l-45 -8v-9zM453 318l-30 30l40 57q-4 7 -13 20q-26 39 -81 46l61 -246zM139 187l57 -20v20
h-57zM387 224l45 7h-45v-7zM456 289l-24 -93l43 54q0 79 9 100q17 42 83 42q13 0 26 -3l40 26l8 24q-19 3 -38 3q-49 0 -101 -43l-15 -15q-11 -10 -17 -10q-2 0 -4 1l-41 -57zM621 405q31 -6 43 -34q2 7 36 22q20 10 41 19q-25 35 -72 43l-8 -24zM387 233h45l-45 7v-7z
M387 253l45 -30l-45 57v-27zM248 422l8 -12q11 3 32 3q52 0 68 -46q7 -23 7 -90l45 -56l-61 245l-16 1q-40 3 -63 -8q-14 -7 -34.5 -28.5t-39.5 -32.5l-3 3l1 -24zM251 417l-8 12l-57 -45l-2 93q-2 7 -9 7q-6 0 -20 -16q-18 -21 -53 -41l90 -60q11 40 59 50zM188 281l28 -4
q0 41 3 54l-90 60q-15 -7 -29 -14q-24 -12 -24 -17q0 -10 7 -10l103 -6zM387 212l45 -8l-45 17v-9zM387 222l45 -16l-45 29v-13z" />
    <glyph glyph-name="n" unicode="n" horiz-adv-x="575" 
d="M396 288v-40l89 49v32q0 25 -7 45q-16 -12 -41 -41q-30 -35 -41 -45zM419 383q10 -22 10 -62q27 32 82 86q-10 24 -27 40q-34 -17 -45.5 -28.5t-19.5 -35.5zM151 148l-30 -53l56 31v29zM338 407q41 -8 55 -41q5 5 18 34q21 11 47 30q-31 30 -83 33q-23 -32 -37 -56z
M307 414q9 0 25 -2q14 24 37 56h-10q-53 0 -90 -27l5 -32q18 5 33 5zM556 26q0 8 -5 10l-2 -20q7 1 7 10zM395 219l10 3l-10 -9v-13l89 40v55l-89 -49v-27zM438 227v-6l10 8zM555 5q5 0 7 1l1 20q-2 2 -4 2l-26 -22q6 -1 19 -1h3zM413 135l26 -14l47 23l-73 18v-27zM429 187
v-23l72 -18l15 7l2 -2v13l-32 23h-57zM394 196h58l32 -23v67l-90 -40v-4zM426 74l-10 9q0 -17 -1 -26zM174 163l27 7v4l-14 11zM272 8q2 4 2 7v0l-1 1zM263 7l-2 -1l7 -8v2q0 5 -5 7zM266 31l3 1q-15 3 -45 11q-8 -14 -16 -30q34 -2 51 -2q14 0 15 13zM202 30q-16 7 -18 43
q1 -15 1 50l-57 -31l-52 -93q74 2 110 1q10 21 16 30zM85 72q0 -28 -6.5 -37t-33.5 -13t-27 -14q0 -12 17 -12q21 0 31 1l52 93zM414 -13l-14 26q-1 -1 -5 -3l-11 -17zM493 159l-15 -7l17 -5v10zM433 124l-26 14v-40l10 -10q-5 -18 -24 -43l13 -26q17 -4 47 -4l75 -3l26 22
q-8 3 -18 4q-30 4 -36 21q-3 7 -3 47v37l-17 4zM375 9l11 17l-28 -6q-20 -4 -20 -14q0 -11 16 -11q18 0 54 2l-3 5zM397 20l19 1l-23 5zM275 24v3l-1 -2zM123 436q-13 -9 -39 -23l32 -32zM120 395l54 44l22 -55q13 28 55 41l-6 32q-1 -1 -30 -24q-22 -19 -28 -19q-3 0 -3 19
q0 86 1 33q0 28 -11 28q-3 0 -23 -18q-23 -21 -26 -23l-8 -55zM115 382l69 -68q0 43 7 57l-22 54zM180 196h27v23l-9 3zM133 358l3 3l-2 3zM178 227l10 -2v28l-24 13l18 14l-65 12l-1 64l-59 6q8 -2 14 -2q21 -2 26 -25q1 -5 1 -40v-94h62zM158 179l14 -11v20h-27l-21 -30
l-41 24v-40l63 15zM105 313l65 -12l-18 -14l24 -13v41l-69 68l-3 -2v5l-31 31q-39 -17 -39 -23q0 -11 11 -12l59 -5zM124 166l21 30h-62v-6zM159 160l-63 -16v-55l33 18z" />
    <glyph glyph-name="o" unicode="o" horiz-adv-x="547" 
d="M401 230q42 21 46 21l1 58l-49 -31q3 -27 2 -48zM360 24l-4 8q-28 -25 -61 -25q-12 0 -23 4l-2 -17l6 -7q7 -1 22 -1q35 0 66 10l-19 4zM338 11l18 -5l5 2.5t4 1.5l-12 25zM246 12l7 -1l-6 7zM90 89l13 -13l15 29zM237 42l12 5q-18 6 -37 22l-16 -33q23 -9 51 -12l1 6z
M422 162l-42 -22q-9 -19 -17 -33l1 -2l-24 -38l12 -25q73 26 113 96l-13 15zM133 117l-35 -21l-14 -30q32 -30 76 -46l16 33q-27 26 -43 64zM466 257zM117 107l35 21q-4 10 -11 29zM485 142l13 -16q2 4 5 11zM96 148l-2 5l-6 -2zM233 19l11 -12l3 17h-2zM116 365l6 5l-4 4z
M146 164l-1 3l-65 -18l2 -5l-8 3l-12 -3q11 -23 32 -46l27 17zM155 428l-50 -40l28 -31q10 36 27 58zM147 189q0 3 -1 7.5t-2 6.5h-52l45 -29zM475 259q2 0 -47 -21q0 -10 -2 -26h10l61 -44q4 5 14 16q5 5 9 37q4 27 4 40v6q-1 4 -1 6zM532 275q-2 24 -5 38l-44 -51z
M423 348q4 -14 11 -47l49 30l-1 -57l44 51q-12 49 -45 85q-18 -20 -58 -62zM132 174l-44 29h-26l21 -50l64 18q-2 6 -4 18zM394 137l42 21l-32 9q-3 -10 -10 -30zM347 52l4 -8l24 37l-2 2q-11 -18 -26 -31zM423 162l29 -8l-13 16zM412 202h-10l-6 -33l32 -9l16 9l13 -17
l19 -5q8 18 11 27l-15 -16zM42 150q2 -3 4 -10l13 3zM113 221q-7 40 -4 85l-20 4l-1 63l-39 4q-36 -53 -36 -116v-10l48 -30h52zM99 312l20 -4q4 30 8 44l-28 31l-6 -5l1 10l-15 17q-11 -13 -20 -26l39 -4zM93 153l-20 50h25l-47 31q1 -38 19 -76l17 -7zM126 411
q-8 -7 -22 -21l15 -17zM374 397q15 -21 26 -56q20 21 57 62q-15 17 -33 30l-47 -31zM376 414l2 5l47 31q-31 23 -75 34l-18 -27q27 -15 44 -43zM110 401l50 41l4 -14q23 33 57 43l-3 22q-62 -11 -107 -49l-6 -38zM273 472q28 0 50 -13l18 27q-28 7 -61 7q-19 0 -37 -3l3 -22
q12 4 27 4z" />
    <glyph glyph-name="p" unicode="p" horiz-adv-x="581" 
d="M303 52l3 -22h7q4 -1 7 -1q1 0 2 1h1l-8 23h-6q-4 -1 -6 -1zM337 -5l8 -23q8 0 22 2l-16 23q-6 0 -14 -2zM268 -10q3 -1 8.5 -1.5t7.5 -0.5l3 21q-4 1 -11 2zM393 60q-15 -9 -26 -13l29 -23q29 9 46 17zM289 27l-3 -21q10 -2 16 -2l-3 22q-1 0 -5 1h-5zM247 -143l19 -26
l3 23q-8 1 -22 3zM333 419q38 -8 66 -34l1 3l75 48l-1 6q-45 34 -99 40zM544 303l-45 -36q-2 -48 -22 -87q63 40 111 47q12 36 12 75v8l-58 -85zM411 416l-1 -3q34 -31 47 -81q49 40 67 96q-19 25 -40 42l1 -6zM17 -171q0 -15 20 -15q4 0 12.5 1t12.5 1l12 33q-9 -3 -24 -5
q-33 -4 -33 -15zM157 454l-65 -53l93 -134v67q0 2 -13 58t-15 62zM447 304q9 -34 7 -74l44 36l-1 -78l57 85q-2 73 -40 126q-18 -57 -67 -95zM445 89q-19 -19 -33 -27l49 -19q24 12 49 32l-20 14h-45zM442 141q-12 -23 -25 -38h45l20 -14q51 41 70 100q-54 -9 -110 -48z
M270 -185h5q20 0 20 13q0 16 -27 16l-2 -23zM145 143l-27 -39h59q-6 13 -8 31zM56 411q0 -11 16 -13q12 -2 25 -3l-23 32q-18 -7 -18 -16zM129 67l-10 -29l32 12zM359 14l17 -24q10 1 30 6l-28 23q-12 -4 -19 -5zM84 413v-4l2 2zM176 59l-33 -12l-29 -85l83 68q0 5 2 11z
M208 39h4q2 -1 3 -1l23 18q-8 4 -17 13l-46 -17l23 -18q3 5 10 5zM204 27q4 -1 12 -4t12 -4l14 20q-10 4 -15 7zM126 243l73 -22l-24 -18l37 -29v54l-93 135l-2 -1q2 -11 2 -33l5 -1zM115 369l65 52l28 -119q0 60 3 72q8 37 46 49l-3 27q-27 -23 -36 -23q-8 0 -11 15
q-1 11 0 31q1 27 1 21q0 12 -9 12q-7 0 -18 -13q-25 -28 -61 -47l-11 -62q2 -6 6 -15zM245 28l-13 -20q3 0 9 -1.5t9 -2.5l8 21q-5 1 -13 3zM87 429l12 61q-15 -6 -45 -20l22 -32q8 -3 11 -9zM146 160l23 -9q-1 13 -1 38l-36 29l24 18l-73 22l-2 85l-5 1v-224h43zM301 424
q12 0 32 -4l42 63q-3 0 -8 1h-8q-45 0 -100 -39l3 -27q20 6 39 6zM215 -121q-15 29 -6 149l-83 -67q-5 -11 -10 -58q-4 -32 -25 -40l-11 -33q52 3 118 1q0 5 17 48zM98 -59v-19l10 26zM231 -180q-23 6 -30 19q-17 -43 -17 -47l66 -3v5zM106 33l-39 -14v-78l9 7zM114 104h-42
v-18l19 -16zM264 -196h4l-4 5v-5zM116 63l23 -18l46 17q-10 10 -16 23h-59l-23 -35l-20 16v-47l39 14z" />
    <glyph glyph-name="q" unicode="q" horiz-adv-x="583" 
d="M534 -178q16 0 16 13q0 4 -3 9l-25 -22h12zM93 374l10 8l-7 10zM110 51l22 32h-59zM185 401l-62 -49l25 -37q12 49 38 81zM409 112l22 18l-22 -8v-10zM166 31l30 11l-21 16zM379 -103l26 40l-26 37v-77zM161 9l28 -21l52 42q-5 2 -14 4zM494 476q0 13 -11 13q-6 0 -10 -6
l12 -54q1 12 5 29q4 12 4 18zM300 34l-5 -40q6 2 14 4l-4 36h-5zM249 37l-51 -43l8 -6q1 0 5 -1h6h4q3 1 4 1l32 47q-2 0 -8 2zM292 63l-32 -47q8 0 22 2l16 44zM285 26l-16 -44q6 1 16 3l5 40q-3 0 -5 1zM164 30l1 -1v1h-1zM310 43l4 -36q2 1 6 2.5t6 1.5l-11 31zM165 30
l-30 -11v-1q23 -10 52 -15l6 5zM220 11h7q5 -1 7 -1l-8 6zM146 47l21 -16l66 25q-9 3 -27 11q-2 2 -3 2h-63l-22 -32l-37 32h-8q25 -31 63 -50l1 1zM408 -20v-48l25 -37l-26 -40q0 -10 -1 -15l14 -38q23 -10 40 -16q35 -1 89 -4l24 22q-7 8 -24 8h-6q-4 -1 -5 -1
q-41 0 -41 65v95l-48 -25zM398 29q-6 -2 -22 -4l21 -17q10 6 16 6q10 0 10 -27l40 -34l49 25v8zM403 -186h18q11 1 17 1l-41 15zM381 -136q-5 -18 -21 -25l35 -14zM360 -176q-17 -2 -33 -5q-23 -3 -23 -15q0 -13 19 -13q15 0 39 2q30 2 39 2l-6 16zM321 59q-3 1 -7 1l11 -31
q8 4 13 6zM307 435q32 0 50 -17l17 26q-30 13 -78 13q-20 0 -30 -1l3 -27q18 6 38 6zM417 80h73l17 -13v70l-87 -48zM413 344v-102q19 35 86 100q0 69 4 103l-70 -45q-20 -50 -20 -56zM417 225v-50l86 70v80q-36 -36 -46 -47q-28 -31 -40 -53zM385 113l22 8l-23 -19
q0 -6 -1 -9l87 48v76l-85 -70v-34zM385 80q-7 -13 -24 -18l114 -43v49l-17 12h-73zM336 38l17 -25q3 2 8 4.5l7 3.5l-20 17h-12zM50 101q8 -12 13 -18h8zM104 250l14 -4q-2 20 -2 31q0 26 6 53l-25 36l-10 -8l4 18l-21 30q-23 -28 -35 -60l68 -15zM134 96l23 33
q-36 39 -42 95l-14 4l-2 81l-67 16q-15 -37 -15 -84q0 -102 58 -145h59zM125 427q-15 -12 -32 -31l21 -31zM119 381l62 50l1 -6q30 35 68 46l-3 26q-72 -7 -123 -45l-11 -62zM193 115l-23 -32h63q-24 13 -40 32zM398 342l20 56l69 45q1 1 1 3l-13 54l-14 -26
q-10 -18 -20 -18q-5 0 -25 10q-24 12 -28 13l-17 -26q20 -18 25 -52q2 -13 2 -59z" />
    <glyph glyph-name="r" unicode="r" horiz-adv-x="391" 
d="M151 311l-23 104l-44 -35l107 -156v15l-22 60zM188 347q0 11 1 17l-3 3zM183 358l3 -2l-1 6zM188 341l3 -3q2 18 5 29l-9 -19zM278 413l-7 -20q15 -14 21 -19q11 -7 26 -8q26 18 50 86q-15 19 -47 23l7 -30zM210 382q12 15 29 15q11 0 26 -17l8 20l49 32l-7 30q-3 1 -8 1
q-14 0 -38 -8t-30 -17q-14 -19 -29 -56zM312 348q1 -1 4 -1q24 0 41 15t17 39q0 20 -12 33q-10 -23 -32 -66q-8 -10 -18 -20zM145 119l25 36v8l-40 -33zM17 22q0 -12 13 -12h6q7 0 10 1l10 29q-12 -2 -23 -4q-16 -5 -16 -14zM137 151l40 32v5l-60 -22zM60 398l7 6l-4 6z
M111 170l21 8l-15 11zM86 204h78v5l-60 22zM239 41l27 -10l-5 14q-12 2 -18 2zM167 35l18 8l6 49q-1 -8 -1 68l-52 -145h22q15 -1 22 -1v1zM180 -2l1 -1l-1 2v-1zM183 22l3 28l-18 -8zM202 37q-13 12 -13 40l-6 -48zM246 13l3 6q-24 0 -35 11l-19 -8l-3 -29l1 -1
q46 -2 70 -2q9 0 13 2l-4 11zM288 -2q0 1 1 1v2q0 12 -15 14l5 -14zM186 179l-25 -36l-15 11l-51 -42q0 -36 -1 -42q-6 -20 -29 -25l-10 -29q78 3 79 3q55 151 52 160zM272 14q4 1 6 7l-10 4zM96 181l14 -11l60 22v4h-78l-13 -18v-20l10 4zM122 271l69 -57v8l-106 156l-7 -6
l2 13l-8 11q-32 -14 -32 -21q0 -10 12 -10q35 -1 44 -19q4 -9 4 -52l38 -11zM81 405q-6 -1 -11 -5l7 -11zM127 153l-20 15l-21 -7q-1 -3 -11 -31v-19zM96 244l60 -22v5l-69 57l16 12l-38 11v-89h13zM75 407l43 35l24 -104l18 -12l21 -61v68q0 8 -2 20l-2 3l1 4l-15 135
q-24 -22 -90 -65l-3 -17zM100 165v-26l10 30zM96 204v-19l13 19h-13zM238 451q-25 -18 -34 -31q-6 -8 -9 -8q-6 0 -6 15q0 5 1 17.5t1 18.5q0 25 -12 25q-3 -1 -5 -3l16 -135q11 27 22 53q14 34 26 48z" />
    <glyph glyph-name="s" unicode="s" horiz-adv-x="395" 
d="M188 11l1 18q-5 0 -15 2zM71 390l5 4l-3 6zM188 335l3 -3l-1 7zM49 153q-5 0 -8 -3l23 -10q-6 13 -15 13zM153 306l-9 45q-17 14 -17 38q0 9 5 19l-1 3l-40 -33l103 -166l3 -1l-28 85zM238 30l23 -11l-8 25q-4 -1 -15 -14zM282 123l36 18l-69 28q28 -19 33 -46zM303 226
l-57 -23l6 -3h20zM224 203l83 74q-13 9 -29 15l-55 -88zM334 135l17 -7l-6 12zM239 201l57 23l-31 -26h2q82 49 89 49q-18 18 -36 29l-83 -74zM241 187h58l50 -35l11 18q-3 37 -30 66q-7 0 -89 -49zM324 187h-59l-5 -3l4 3h-20q10 -7 30 -17l69 -29l10 6l7 -12l21 -9
q5 18 5 33v6q-1 4 -1 5l-12 -18zM247 187h-2l-3 -3zM148 30q-34 13 -54 50l-21 -63q33 -10 66 -15q1 6 9 28zM82 383l-5 -4l2 10l-16 25q-18 -22 -22 -47l46 -14l1 -52l44 -15l-15 -11q30 -28 69 -58zM95 88l-49 -44q2 -12 32 -22l20 62zM58 127l-31 -13q-2 -40 -2 -60
q0 -2 1 -7v-8l50 44q-8 14 -18 44zM47 137l-23 10q-5 -5 -5 -30l31 12q0 2 -1 4.5t-2 3.5zM163 -1q-8 1 -17 5q-9 -21 -10 -28q18 -2 28 -2h12l1 5zM325 135l-36 -18q2 -10 2 -15q0 -37 -33 -58l9 -25l4 -2q62 24 86 83l-15 28zM186 -4h4l-3 5zM353 124l15 -29q4 9 7 20z
M237 35l6 9q-28 -16 -53 -13l-2 -19l3 -4q38 2 69 13l-1 3zM190 311l2 5q-30 13 -42 24l9 -45l16 -11l28 -85l2 -1l-12 111zM268 -2q1 0 2 0.5t1 1.5l-4 1zM339 369h2q12 0 12 30q-5 -14 -14 -30zM302 413q3 -3 15 -28q9 -19 15 -19q2 1 8 14t6 16q3 14 3 46q0 19 -29 23
l7 -36zM240 292l-32 -99h1l55 88q-4 2 -12 5.5t-12 5.5zM193 315v-7l22 -21l-9 -90h1l32 98q-7 4 -22.5 10.5t-23.5 9.5zM192 321l11 -110l2 -1l9 90zM214 458q19 0 35 -6l16 24q-4 0 -18.5 2t-21.5 2q-24 0 -41 -4l2 -22q12 4 28 4zM86 393l41 33l1 -3q10 25 43 34l-3 22
q-44 -6 -76 -30l-9 -50zM87 441q-16 -12 -25 -24l16 -26zM297 406l24 16l-7 35l-46 6l-15 -24q27 -9 44 -33zM122 286l-44 15l-1 52l-47 14q-2 -16 -2 -23q0 -49 49 -81q18 -13 91 -42l-61 54z" />
    <glyph glyph-name="t" unicode="t" horiz-adv-x="295" 
d="M59 380l2 1l-1 2zM106 328l-17 110l-35 -28l88 -185l-24 94zM136 334l3 -2l-1 9zM155 206q1 1 7 14v13zM249 359l9 33h-3q8 -1 -24 -1h-28l-7 -31h26q18 -1 27 -1zM157 298l-17 16l10 -115q7 97 7 99zM157 283l-7 -88q2 4 7 28v60zM175 220v4l-7 -8zM170 201v4l-7 -4h7z
M68 201h70l-52 27zM257 366q13 0 14 17q1 2 1 4q0 11 -9 12l-8 -33h2zM37 347l-10 6q2 -4 10 -6zM174 181v4h-7zM107 147l38 45l-57 -30zM79 157l5 3l-4 3zM110 124l26 54l-38 -44zM159 207v6l-7 -14zM179 31l15 -11l-5 21q-1 0 -3 1zM134 -12l3 -1l-3 6v-5zM181 23l6 11
q-22 12 -24 62q-3 62 -7 71l11 -137l-22 -10l-3 -29l3 -6q21 -3 22 -3q11 0 35 6l-6 23zM124 34l14 6l11 147l-42 -167q12 -9 28 -14v5zM160 48l-11 137l-12 -147zM135 2l2 29l-13 -6zM195 15q3 1 8.5 3t8.5 3l-23 18zM214 19q14 5 35 21q26 18 26 29q0 8 -7 8
q-2 0 -23.5 -12t-37.5 -12q-12 0 -20 4l5 -21zM170 165v6l-7 9zM168 174l7 -8v4zM167 147v13q-3 7 -7 14zM77 155v-31l9 36zM59 385zM86 274l58 -67l-89 185l-1 -1l1 3h-1q-34 -15 -34 -25q0 -1 1 -2v-2q7 -5 34 -5q19 0 19 -28q0 -6 -1 -18t-1 -17l25 -14zM56 402l34 29
l18 -111l12 -8l24 -94l-9 114l-3 3q2 2 2 6l-10 133q-37 -53 -69 -69v-1zM81 242l51 -27l-57 67l11 9l-26 13v-89h2zM160 407q-3 5 -3 18q0 6 1 20t1 20q0 23 -12 23q-8 0 -17 -14l11 -133zM114 129l-12 9l-34 -39v-11q0 -48 30 -71l42 166zM69 152l-5 -3q-1 -3 -10 -36v-15
l34 39zM74 194v-3l2 3h-2zM142 332l17 -15v47q3 7 31 7l8 30q-34 0 -37 6l-19 -66v-9zM64 154l4 -3l58 31h-71l-2 -3v-36l10 5z" />
    <glyph glyph-name="u" unicode="u" horiz-adv-x="533" 
d="M371 9q3 0 11 2l-23 5q4 -7 12 -7zM408 189v-7h52l41 -29v77q3 0 -93 -41zM376 406q0 1 58 40l-3 34h-13q-36 0 -72 3l-17 -26q31 -6 38.5 -13.5t8.5 -37.5zM307 471q-16 0 -16 -11t23 -16l17 26q-8 1 -24 1zM369 394v-87q29 35 93 95v45q0 23 -13 23q-8 0 -24 -2l3 -34
q-59 -34 -59 -40zM364 292v-43l93 51v87q-20 -14 -48 -46q-31 -37 -45 -49zM359 215l5 1l-5 -4v-15q46 21 93 41v57l-93 -51v-29zM398 114l20 -10l47 23l-67 17v-30zM399 114l-20 11q-2 -19 -10 -33l14 -14l-9 -13q4 -5 2.5 -28t1.5 -30l23 -5q2 0 4 1t4 1l109 31
q15 4 15 12q0 9 -17 10q-29 1 -36.5 9t-7.5 36v29l-26 6zM462 151l-15 -8l26 -6v2zM285 36l3 -14l-49 -22l-2 -11l4 -5q45 12 91 46l-8 14q-15 -6 -39 -8zM349 78q3 0 5 -2l9 13l-15 14q-9 -14 -29 -23l8 -15q13 13 22 13zM389 182v-24l67 -17l15 8l11 -12v16l-41 29h-52z
M367 216v-2l4 3zM134 177l17 -13v22h-31l-20 -29l-42 23v-25q0 -2 1 -7v-8l63 16zM225 -15q1 0 3 0.5t3 1.5l-5 4zM158 167l-17 13l-12 -21l29 7v1zM135 159l-29 -7l-31 -53l61 33q-1 9 -1 27zM81 483l-10 -1q-12 0 -36.5 2t-37.5 2q-16 0 -16 -11q0 -12 28 -16t34.5 -14
t7.5 -39l18 -17zM58 381l3 2l-2 2zM141 216l-18 -26h31v23zM82 363l73 -71v71l-18 44zM70 298l66 -13l-18 -13l27 -15v40l-73 71l-3 -2l1 4l-18 18v-24l16 -1zM93 353l54 44l19 -44v84q0 14 -13 14q-9 0 -25.5 -1t-24.5 -1l-12 -94zM161 137l-60 -33l-17 -28q24 -46 78 -59
l34 64q-30 18 -35 56zM106 152l-63 -16q2 -27 10 -49l23 12zM47 70q4 -10 7 -15l16 28zM218 -3l9 4l6 37q-20 2 -37 11l-35 -64q18 -5 34 -5q9 0 29 4l1 6zM113 160l20 30h-62v-6zM238 67l-6 -37l49 22l-3 14q-6 -1 -17 -1q-7 0 -23 2zM132 221l13 -3v28l-27 14l18 14
l-66 13l-2 64l-16 2v-158h62zM225 -12l2 10l-9 -3z" />
    <glyph glyph-name="v" unicode="v" horiz-adv-x="498" 
d="M233 22l39 18l6 13l-20 121zM376 180q2 2 7 6q1 3 3.5 8.5t3.5 7.5l-37 -10l-5 -12h28zM225 -22q0 -2 10 -12q2 -1 5 -1q9 0 15 18l11 24l-39 -18zM263 158l-5 -1h5v1zM262 157l-4 -3l5 1zM261 175l-3 -6l4 4zM262 180l-4 -4l4 2v2zM143 196l115 -64l-161 160l31 -76
l32 -6zM20 451q-25 0 -25 -11t14 -12q31 -2 46 -22q6 -7 24 -49l12 91q-72 3 -71 3zM314 156l-4 -9l26 -14l7 16zM235 -34l-9 9q5 -7 9 -9zM246 424q0 11 -18 11h-13l4 -25q27 0 27 14zM308 126l23 -23l8 18l-26 15zM306 430q0 -7 7 -10l15 23h-3q-19 0 -19 -13zM291 124
q-11 36 -23 42l40 -76l11 25l-22 22zM293 26l20 45l-40 76zM339 177l3 6l-8 -6h5zM263 145h-5l6 -2zM206 84l52 52l-69 -39zM150 116l69 39l-86 -22q0 -8 17 -17zM264 163l-6 1l7 -4zM257 202l-6 13l4 -23zM265 209l-1 4l-2 -10zM190 281l-40 100l-53 -43l160 -161
q-15 29 -29 58q-25 45 -38 46zM252 180l-115 64l18 14l-33 6l26 -62l2 4zM73 361l2 -3l1 1zM403 413l32 20l-3 34h-4q-12 0 -37.5 1.5t-38.5 1.5h-1l-15 -22q21 -3 42 -5q24 -5 25 -30zM81 368l53 43l40 -100q16 -1 67 -103q2 25 -35.5 102.5t-37.5 104.5q0 23 35 25l-5 26
q-72 -4 -107 -3l-12 -92q0 -1 2 -3zM256 177l-102 26l-2 -4l9 -22h95zM172 149l86 22h-95zM247 157l-53 -101l22 -53l6 3zM173 106l-17 14l-8 -5l24 -58l53 101zM400 413v-1q0 -29 -45 -123q30 29 42 42q20 23 32 50q26 59 61 64q10 1 21 3t11 11q0 12 -15 12q-13 0 -39 -2
t-39 -2l4 -33zM363 177h-28l-4 -10l29 -7l6 13l-15 -7zM227 -10l2 12l-6 -3q2 -6 4 -9zM287 147l10 -10l-3 6zM333 176l-12 -11l15 7l1 4h-4zM345 225l43 24l37 85q-28 -29 -60 -64q-2 -4 -20 -45zM347 199l36 10l15 33l-43 -24zM144 133l7 -16l8 4z" />
    <glyph glyph-name="w" unicode="w" horiz-adv-x="778" 
d="M601 446q-21 0 -21 -14q0 -9 14.5 -13t21.5 -1l56 24q-7 0 -35 2q-22 2 -36 2zM440 276l78 50l-14 31l-65 -79zM427 375l-22 -85l2 -4l65 79q-22 51 -22 62q0 24 37.5 25t37.5 15q0 12 -18 12q-1 0 -58 -3l-53 -72zM513 266l-94 -15v-1h101zM420 232l2 -3l142 -91l-23 51
zM517 227l-108 16l120 -43zM487 280l-87 -31v-1l94 15zM399 316l8 -17l22 84l-30 29l52 73q-16 0 -48.5 -0.5t-48.5 -1.5l44 -168zM524 247h-101l1 -2l109 -17zM617 243l-14 -30l34 -6l14 31l-8 5h-26zM640 273l43 14q5 11 14.5 32.5t13.5 32.5l-43 -16zM400 249l87 31
l-9 20l-79 -50zM682 398q0 -14 -21 -56l44 16q17 41 28 51q15 15 51 20q15 4 15 14q0 12 -17 12q-12 0 -37 -2t-38 -2h-7l-56 -25q38 -2 38 -28zM603 246h26l8 -5l18 41l-42 -14zM174 396q0 33 66 33l-17 23h-17l-45 -37l-2 37q-54 0 -80 1l96 -62zM143 156l4 -9l17 16z
M225 271l-28 60l-63 8l-1 64l-79 4q15 -15 44 -80q17 -38 34 -77h78zM224 -1q7 -14 18 -14q9 0 17 18l77 166q-38 -43 -101 -122q-6 -29 -11 -48zM209 229l-8 18h-25l-20 -29l-53 18l13 -28l85 14zM152 218l20 29h-78l5 -11zM312 191l-28 -63l-29 63q-73 -16 -85 -40
q20 -45 62 -134q5 24 11 48q17 25 49 63l52 60q7 15 16 33zM226 219l-85 -13l18 -40q10 4 21 8q16 16 46 45zM590 170l-19 -44l-2 5l-31 -48l13 -15l27 -5l56 124l-39 -19zM549 59l8 19l-27 4zM588 214l-14 -31l5 -2l39 19l3 9zM573 129l-2 4l-142 91q1 -9 52 -70
q31 -36 61 -73zM536 53l8 12l-108 131l90 -199q8 -18 20 -18q8 0 19 22q5 13 11 26l-19 22zM551 56l-12 15l-8 -12zM215 247h25l-10 21zM325 222l41 15l2 4l-37 -6zM302 188l47 30l5 9l-41 -14zM300 231l37 6l2 4h-35zM202 208l-47 -46l68 24l-11 24zM214 224l-8 -8l10 2z
M119 346l63 -9q-8 17 -19 52l-96 62q-11 0 -33.5 1t-34.5 1q-16 0 -16 -11q0 -10 22 -14q26 -5 35 -14l78 -5zM299 247h35l1 2l-32 6zM262 423q43 0 62 -20q6 -7 32 -59q8 -16 8 -26q0 -8 -7 -24l23 -28l5 11l-44 169h-110l16 -23h15zM309 260l32 -5l1 3l-30 11zM183 469
h-48l2 -37zM316 274l30 -10l2 3l-27 17zM319 294l27 -17l3 5l-23 28z" />
    <glyph glyph-name="x" unicode="x" horiz-adv-x="572" 
d="M354 185l13 10h-78l130 -30l-23 30h-18zM322 229l63 58q-13 13 -13 20t5 9q35 43 69 85q48 51 93 56q38 4 38 17q0 11 -20 11q-12 0 -37.5 -1.5t-38.5 -1.5l1 -33q-27 -17 -55 -36q-24 -33 -55 -90zM411 191h-12l-12 -10zM412 197l-4 6l-13 -6h17zM392 11l-15 26l-13 -21
zM383 221l-14 18l-76 -40zM364 196h12l13 6l-7 9zM424 221l-4 6l-91 -21h78zM380 251l-14 19l-63 -58zM364 17l13 20l-10 18v-2q0 -20 -33.5 -21.5t-33.5 -16.5q0 -12 19 -12q13 0 38.5 1.5t37.5 1.5l-3 5zM-10 16q0 -13 22 -13q10 0 30 2l25 40q-21 -12 -52 -15
q-25 -3 -25 -14zM524 21q10 0 15 2l1 23l-2 1l-28 -25h7q4 -1 7 -1zM314 182l124 -64l22 12l-16 22zM555 31q0 7 -9 11l-1 -23q10 3 10 12zM38 463q-25 0 -25 -13q0 -10 15 -13q11 0 23 -1q23 -2 56 -38l7 62q-12 0 -37.5 1.5t-38.5 1.5zM289 473q0 13 -18 13q-5 0 -15 -1
t-15 -1l5 -28q13 2 26 3q17 3 17 14zM352 460q-18 0 -18 -12q0 -8 9 -11l16 23h-7zM309 175l107 -99l-27 -41l15 -26q14 -5 33 -5q49 0 95 -3l28 25q-34 8 -60 37l-44 60l-23 -12zM407 -8h19l-22 5zM172 -18q24 -2 35 -2q26 0 26 14q0 12 -45 16zM266 194l8 2h-9zM264 189
l7 4l-8 -2zM257 179l6 5l-7 -4zM303 290l-16 -93q35 68 105 184q26 17 55 36l-1 33h-9q-1 0 -79 3l-16 -23q16 -2 31 -4q19 -3 19 -18q0 -14 -79 -109l-29 38l-11 -18zM207 154l12 -9l19 25zM241 222q1 -3 18 -12l-44 41q2 -4 2 -7t-6 -9l28 -15zM235 206h9l-11 3zM226 204
l3 5l-33 8l-10 -13h40zM265 207l-28 14l-8 -11l33 -8zM269 202l12 -3l-15 8zM238 196h-40l-15 -19l49 12zM218 180l-49 -11l-7 -8l14 -11q12 5 31 16q5 7 11 14zM147 432l44 -99q14 -1 40 -45q16 -28 31 -57l-32 178l-10 14t-10 21q0 10 12 13l-5 28q-39 -3 -116 -1l-7 -62
l17 -19zM341 100l-37 65q1 -4 1.5 -9t1.5 -9q12 -16 34 -47zM300 313l-30 29l11 17l-29 38l32 -178zM414 62l-107 98q23 -45 51 -84q9 -18 29 -56zM212 304l-45 99l-36 -29q36 -45 72 -91q43 -55 80 -82q-16 29 -32 57q-26 44 -39 46zM263 160l1 -3l4 8zM274 146l3 -3l2 11z
M155 50q0 16 45 76l-12 10q-14 -6 -38 -20q-2 -1 -20 -25q-22 -29 -46 -43l-12 -7q-13 -22 -25 -40q29 2 58 2t58 -2q9 17 16 28q-24 4 -24 21zM140 121l37 19l-14 11zM293 138l5 -7l-3 17z" />
    <glyph glyph-name="y" unicode="y" horiz-adv-x="513" 
d="M322 127h15q2 1 15 12q7 10 7 16l-30 -12zM381 163l30 12q4 9 12 26.5t12 25.5q-19 -15 -41 -34q-6 -14 -13 -30zM382 128q2 1 3.5 2t3.5 2l4 9l-15 -13h4zM367 127l2 4l-7 -4h5zM536 417q0 11 -14 11q-7 0 -23 -2l-15 -33q8 8 32 11q20 3 20 13zM347 124h-4l-10 -7z
M339 173q14 11 41 34q2 2 63 130q-26 -25 -64 -70q-7 -11 -40 -94zM277 449q0 12 -16 12q-10 0 -15 -1l2 -25q23 0 28 7q1 2 1 7zM302 171l-21 -17l24 9zM305 162l-24 -9h27zM298 195l-17 -25l21 17zM325 118l10 8h-16l-5 -12l-5 12h-28l55 -20l8 20h-5zM311 187l-4 11
l-14 -36zM232 51q7 -15 11 -28l34 94zM186 -137h-33q-37 0 -37 -43q0 -38 50 -38q9 36 20 81zM258 -36l23 203l-34 -94q11 -33 11 -43q0 -22 -21 -63q-23 -46 -45 -47q-19 -76 -19 -80v0q40 -3 55 25q11 33 22 65l-17 23zM272 123l-63 -24l9 -20zM228 -126l17 -23q6 10 8 34
zM198 41l9 -22l45 66zM323 92l47 -39l7 18zM329 57l8 19l-47 39zM191 119l9 -23l63 23h-72zM328 17l10 25l-39 57zM257 -78l7 3l30 78l-14 122zM255 -105l8 24l-6 -3zM307 -31l16 40l-30 81zM263 176l-46 126l-24 16l-32 136h-9l-51 -42zM235 295l46 -126q-2 33 -11 95
q-1 5 -28 66q-23 53 -23 70q0 20 33 24l-3 25q-48 -2 -70 -2l32 -136zM404 406q-42 3 -43 3q-18 0 -18 -12q0 -10 31 -13l1 3zM188 158l13 -32h72zM297 189l-7 17l-6 -54zM432 393q0 -15 -30 -88l65 70q10 11 39 69q-45 -3 -78 -1l-30 -19l-1 -3q35 -2 35 -28zM100 410
l51 42q-8 0 -26 1h-26l-6 -33zM285 170q7 60 7 53q-8 20 -17 42zM102 429q-5 0 -15 1h-15l24 -34zM89 404l-6 -5q17 -39 49 -116l30 -9l-20 -16q0 -2 109 -91zM166 216l23 -56l85 -32zM128 270l10 -25l20 16zM57 449q-2 0 -8 1h-8q-24 0 -24 -12q0 -10 23 -13q27 -3 39 -21
l2 10zM88 405l-2 -10q1 0 1.5 -1.5t0.5 -2.5l6 5z" />
    <glyph glyph-name="z" unicode="z" horiz-adv-x="393" 
d="M241 222l29 44l-76 -61zM204 213l-12 34l5 -45zM0 361q0 -9 9 -9q5 0 25 23l-30 6q-4 -14 -4 -20zM215 202l-23 19l18 -26zM210 197l-18 26l12 -34zM363 35l-16 -14q15 1 16 14zM191 202l-42 -116q18 26 35 53q7 62 7 63zM43 399l7 6l-4 7zM233 28l27 -9l-7 19
q-10 -2 -15 -2zM154 30l15 -20l3 24q-10 2 -18 -4zM197 190l-5 45l-8 -63zM221 193l7 10h-36zM253 213l12 17l-47 -17h35zM222 182l5 8l-29 11zM364 141h-1l8 -3q-3 3 -7 3zM74 146l-57 -82l39 31zM13 38q0 -16 24 -16h6l31 87q-13 -10 -37 -31.5t-24 -39.5zM114 153l-20 15
l-20 -8q-9 -9 -21 -56zM123 21l-2 4q0 6 6.5 15.5t7.5 12.5l43 116l-36 -52l-15 12l-61 -49l-31 -87q27 0 79 2q0 1 4.5 12.5t4.5 13.5zM140 202l52 41l-71 -26zM101 181l10 -7l71 25h-69zM179 208l-55 20l-13 -20h68zM78 162l21 7l-10 8zM256 28l24 -1l-27 10zM156 44l8 3
q-25 0 -28 2q-8 -24 -10 -26q30 0 45 1v0zM366 126l19 -33q0 3 1 11v12q0 11 -4 13l-7 3q-5 0 -9 -6zM259 21l7 -19q29 -12 89 -12h1l16 14q2 10 2 66l-19 34q-2 -3 -4 -8q-16 -42 -32 -56t-60 -19zM234 17l5 8q-38 -2 -57 -2l-2 -24h84l-4 9zM116 409l-44 -35l1 -2
q19 16 46 21zM171 24zM192 223q29 20 76 61q11 12 49 68q46 67 46 80q0 9 -16 9q-9 -32 -37 -64l-50 -56q-5 -6 -68 -98zM260 423l-68 -187q22 34 68 99l50 56q28 32 37 64h-37zM190 343l-13 -18l10 -85l11 95zM157 284l35 -49l-24 65zM212 418q40 0 40 -6t-26 -44
q-14 -21 -29 -42l8 -8l-11 -94l69 186l50 32l-1 1h-86q-9 -11 -14 -25zM168 305l24 -65l-10 85zM210 402q5 14 14 25h-57l3 -25h40zM56 397l-1 2l-8 -6l3 13l-22 31l-18 -50l30 -6q7 9 16 16zM155 190l37 52l-52 -41zM119 248l-10 -15l54 -20zM129 274l-9 -14l44 -35z
M58 413l43 35l4 -15q16 3 49 5l-3 25h-52q-31 0 -31 17q0 11 -1 16l-14 -76zM81 458q1 8 -9 8q-8 0 -13 -13l-14 -39l22 -31z" />
    <glyph glyph-name="braceleft" unicode="{" horiz-adv-x="285" 
d="M163 205l22 -47q-5 30 -22 47zM108 114l13 -11l22 81l-2 1zM144 -33l20 9l-9 214h-1zM141 -71l2 49l-13 -6zM187 -15l-4 27l-6 -9zM190 366l-25 -96q25 28 25 96zM260 600q0 5 -4 8l-2 -18q6 3 6 10zM198 60v15q0 35 -4 51q-4 11 -23 51l-5 5zM130 -30l13 6l9 223l-1 1
l-35 -258q-1 -7 8 -26t15 -27q0 6 1 18.5t1 19.5q0 -12 -11 43zM104 138q0 -2 1 -7v-8l5 10zM145 193l-21 -81l-14 11q-5 -10 -5 -11q0 -12 -1 -59q-1 -37 -1 -60q2 -33 7 -59l36 258zM149 217l-2 2l-43 -41q4 -13 6 -26l6 -5zM142 426l3 -2l-1 18zM190 -14v49l-8 -13
q0 -26 8 -36zM102 237v2q8 2 22 8l-27 26l-22 -32l-9 15q-2 -1 -22 -8q-14 -5 -14 -10q0 -10 13 -10h83q-12 6 -24 9zM158 190l26 -186l8 13v50q-27 108 -32 121zM140 -100q6 -9 14 -17l-13 55zM208 -157q17 -4 38 -4q19 0 19 11q0 10 -21 14q-26 5 -37 31q-7 15 -10 48
q-3 30 -7 36zM179 -10l6 9l-27 187l9 -213l-20 -9q-2 -34 -2 -49q0 11 13 -54q20 -19 49 -25q-5 41 -10 81q-9 65 -18 73zM105 226h-83q39 -6 52 -48l42 41q-5 4 -11 7zM256 598l2 18q-6 3 -14 3h-4q-7 0 -11 -1l2 -28q9 2 25 8zM192 503l-32 -232l5 5l25 96q3 12 2 60
q-1 55 0 71zM200 564l-1 -9q1 2 2 5.5t1 4.5zM160 388l-14 15l6 -148l3 3zM145 424q-1 -7 1 -18l14 -14l-5 -130l3 3q14 95 39 285l2 1q9 27 30 35l-2 29q-27 -2 -47 -12q-11 -6 -23 -83zM92 286l27 -27l8 5l-32 70q-8 -49 -34 -66l9 -14zM182 629q-27 -14 -41 -34l6 -145
l24 162q5 8 11 17zM146 277l-17 129l-12 7l-7 93q-1 -4 -1 -13v-85q16 -61 34 -132zM147 253l-35 132q0 -44 -2 -65l32 -70zM131 386l18 -129l3 2l-7 147l-3 3q3 12 2 15l-6 145q-26 -36 -26 -83q0 -13 8 -93z" />
    <glyph glyph-name="bar" unicode="|" 
 />
    <glyph glyph-name="braceright" unicode="}" horiz-adv-x="285" 
d="M125 205l-23 -47q7 31 23 47zM180 114l-14 -11l-21 81l2 1zM143 -33l-19 9l9 214h1zM147 -71l-2 49l13 -6zM101 -15l4 27l6 -9zM98 366l25 -96q-25 28 -25 96zM27 600q0 5 5 8l2 -18q-7 4 -7 10zM90 60v15q0 35 5 51q3 11 22 51l5 5zM158 -30l-13 6l-9 224l36 -258
q1 -7 -8 -26t-15 -27q-2 24 -2 38q0 -12 11 43zM184 138v-7q-1 -5 -1 -8l-5 10zM143 193l21 -81l14 11q0 2 5 -11q0 -12 1 -59q1 -37 1 -60q-2 -33 -7 -59l-36 258zM139 217l2 2l43 -41q-4 -13 -6 -26l-6 -5zM146 426l-3 -2l1 18zM98 -14v49l8 -13q0 -26 -8 -36zM186 237v2
q-8 2 -22 8l26 26l23 -32l9 15q2 -1 22 -8q14 -5 14 -10q0 -10 -14 -10h-82q12 6 24 9zM130 190l-26 -186l-8 13v50q15 57 31 121zM148 -100q-7 -10 -15 -17l14 55zM79 -157q-16 -4 -37 -4q-20 0 -20 11q0 10 22 14q26 5 37 31q7 15 10 48q3 30 7 36zM109 -10l-6 9l27 187
l-9 -213l20 -9q0 -9 1 -25t1 -24q0 11 -13 -54q-20 -19 -49 -25q5 41 10 81q9 65 18 73zM183 226h82q-38 -6 -51 -48l-42 41q5 4 11 7zM32 598l-2 18q6 3 14 3h4q7 0 11 -1l-2 -28q-9 2 -25 8zM96 503l32 -232l-5 5l-26 96q-3 12 -2 60q2 57 1 71zM88 564l1 -9q0 2 -1 5.5
t-2 4.5zM127 388l15 15l-6 -148l-3 3zM143 424q-1 6 -1 -18l-14 -14l5 -130l-3 3q-14 95 -39 285l-2 1q-9 27 -30 35l2 29q27 -2 47 -12q11 -6 23 -83zM196 286l-27 -27l-8 5l32 70q8 -49 34 -66l-9 -14zM106 629q25 -13 41 -34l-6 -145l-24 162q-5 8 -11 17zM142 277
l17 129l12 7l7 93q1 -4 1 -13v-85q-29 -115 -35 -132zM141 253l35 132q0 -51 2 -65l-32 -70zM156 386l-17 -129l-3 2l7 147l3 3q-3 12 -3 15l7 145q26 -36 26 -83q0 -17 -3 -46q-4 -38 -5 -47z" />
    <glyph glyph-name="asciitilde" unicode="~" horiz-adv-x="600" 
 />
    <glyph glyph-name="Adieresis" unicode="&#xc4;" horiz-adv-x="617" 
 />
    <glyph glyph-name="Aring" unicode="&#xc5;" horiz-adv-x="617" 
 />
    <glyph glyph-name="Ccedilla" unicode="&#xc7;" horiz-adv-x="645" 
 />
    <glyph glyph-name="Eacute" unicode="&#xc9;" horiz-adv-x="528" 
 />
    <glyph glyph-name="Ntilde" unicode="&#xd1;" horiz-adv-x="718" 
 />
    <glyph glyph-name="Odieresis" unicode="&#xd6;" horiz-adv-x="751" 
 />
    <glyph glyph-name="Udieresis" unicode="&#xdc;" horiz-adv-x="679" 
 />
    <glyph glyph-name="aacute" unicode="&#xe1;" horiz-adv-x="448" 
 />
    <glyph glyph-name="agrave" unicode="&#xe0;" horiz-adv-x="448" 
 />
    <glyph glyph-name="acircumflex" unicode="&#xe2;" horiz-adv-x="448" 
 />
    <glyph glyph-name="adieresis" unicode="&#xe4;" horiz-adv-x="448" 
 />
    <glyph glyph-name="atilde" unicode="&#xe3;" horiz-adv-x="448" 
 />
    <glyph glyph-name="aring" unicode="&#xe5;" horiz-adv-x="448" 
 />
    <glyph glyph-name="ccedilla" unicode="&#xe7;" horiz-adv-x="493" 
 />
    <glyph glyph-name="eacute" unicode="&#xe9;" horiz-adv-x="492" 
 />
    <glyph glyph-name="egrave" unicode="&#xe8;" horiz-adv-x="492" 
 />
    <glyph glyph-name="ecircumflex" unicode="&#xea;" horiz-adv-x="492" 
 />
    <glyph glyph-name="edieresis" unicode="&#xeb;" horiz-adv-x="492" 
 />
    <glyph glyph-name="iacute" unicode="&#xed;" horiz-adv-x="264" 
 />
    <glyph glyph-name="igrave" unicode="&#xec;" horiz-adv-x="264" 
 />
    <glyph glyph-name="icircumflex" unicode="&#xee;" horiz-adv-x="264" 
 />
    <glyph glyph-name="idieresis" unicode="&#xef;" horiz-adv-x="264" 
 />
    <glyph glyph-name="ntilde" unicode="&#xf1;" horiz-adv-x="559" 
 />
    <glyph glyph-name="oacute" unicode="&#xf3;" horiz-adv-x="546" 
 />
    <glyph glyph-name="ograve" unicode="&#xf2;" horiz-adv-x="546" 
 />
    <glyph glyph-name="ocircumflex" unicode="&#xf4;" horiz-adv-x="546" 
 />
    <glyph glyph-name="odieresis" unicode="&#xf6;" horiz-adv-x="546" 
 />
    <glyph glyph-name="otilde" unicode="&#xf5;" horiz-adv-x="546" 
 />
    <glyph glyph-name="uacute" unicode="&#xfa;" horiz-adv-x="549" 
 />
    <glyph glyph-name="ugrave" unicode="&#xf9;" horiz-adv-x="549" 
 />
    <glyph glyph-name="ucircumflex" unicode="&#xfb;" horiz-adv-x="549" 
 />
    <glyph glyph-name="udieresis" unicode="&#xfc;" horiz-adv-x="549" 
 />
    <glyph glyph-name="dagger" unicode="&#x2020;" horiz-adv-x="492" 
 />
    <glyph glyph-name="degree" unicode="&#xb0;" horiz-adv-x="400" 
 />
    <glyph glyph-name="cent" unicode="&#xa2;" horiz-adv-x="530" 
 />
    <glyph glyph-name="sterling" unicode="&#xa3;" horiz-adv-x="530" 
 />
    <glyph glyph-name="section" unicode="&#xa7;" horiz-adv-x="461" 
 />
    <glyph glyph-name="bullet" unicode="&#x2022;" horiz-adv-x="500" 
d="M270 299l-9 19l4 -24zM317 326h18q35 26 41 26l1 30l-92 -56l48 14zM329 316h20l20 -14l1 40q-6 0 -41 -26zM320 317l-15 -10l44 -12l12 5v2l-20 15h-21zM263 284l-4 24l-5 -31zM276 301l-14 15l10 -19zM309 333l-48 -14h32zM375 300l-1 2v-3zM295 306l-24 7l19 -11z
M287 300l-18 11l13 -15zM311 314h-32l24 -6zM363 309l-10 -5l6 -4zM254 272l-1 -3l10 6l-1 4zM250 236l22 10l-6 41l-10 -6zM358 292l5 -1l3 7l-6 4l-2 -1v-9zM237 258l16 10l1 3zM354 280l5 12l-5 1v-13zM387 326l-8 -19l9 5q0 9 -1 14zM391 290q2 14 2 20v2l-10 -5l-3 -9z
M246 264l-16 -10l16 14l5 30q-44 -88 -44 -93l32 15zM300 242l13 20l-30 33l-6 -4zM292 308l-6 -4l7 -4l9 6zM298 297l30 -19l23 12l-44 13zM340 297l11 -3v9zM265 292l1 -4l7 4l-2 5zM326 315h-18l-8 -7l11 -3zM280 280l2 -5l7 4l-5 5zM287 291l4 -5l7 4l-6 5zM187 299
l-23 -7l7 -17zM251 389l10 -67l8 50zM252 397l18 -17l-7 -49l45 95q-24 11 -42 11q1 0 -19 -4zM219 392l7 1l-4 -3l8 -6l23 -47l-11 66l-32 31l27 6l-1 3q-21 -2 -36 -8l-3 -29zM215 439l33 -32l-6 37zM263 444q-3 1 -9 1q-7 0 -10 -1v-3zM228 386l-8 -1l4 -2zM181 325h59
l-49 14zM225 377l-14 -3l7 -7l10 7zM217 386l-10 -8l41 -45l-23 48zM190 370l56 -34l-41 45zM249 306l-25 -27l-9 7l-52 -32l16 -38l-32 28l-1 -2q15 -25 39 -38l20 9q0 5 44 93zM202 390l14 2l-21 14l2 29q-11 -6 -23 -14zM135 242l1 -1l2 3zM215 224l-19 -9q6 -4 16 -7z
M140 286l-4 -1q2 -8 4 -13v14zM194 322l10 13l49 -13l-56 33l15 12l-7 7l-30 -5l-1 34q-22 -17 -32 -42zM127 349q-7 -21 -7 -36q0 -9 4 -27l4 1zM204 381l-28 31h-1q0 -1 -1 -1l1 -35zM144 293l-10 26h46l-51 40q-2 -2 -4 -10l2 -61zM137 244zM335 401q-10 9 -25 17
l-46 -95q12 13 35.5 39t35.5 39zM184 225l-15 38l-16 -10zM268 324l91 55v-30l13 4q-9 28 -33 49q-12 -13 -35.5 -39t-35.5 -39zM228 287l25 28l-33 -21zM363 303l1 -1l10 5l8 19q-1 7 -5 21l-14 -4v-40zM380 294l-3 -7l14 -4v3zM270 195q25 2 45 13l-16 32zM274 282l-7 -4
l6 -41l-22 -10l-6 -38q5 -1 14 -1h9l30 46zM363 277v14l-11 3l-24 -12l-30 19l-7 -5l30 -32l-13 -20l15 -33q48 25 59 75l-14 4zM199 318l15 -12l44 13h-58zM157 256l16 10l-3 8zM166 288l-16 -23l3 -9l52 32l-11 8zM225 298l34 21l-44 -13zM186 319h-2l1 -1zM208 207
l-4 -17q20 -6 31 -7l6 39zM191 318l-2 1h-46l11 -26l23 6zM208 307l-15 11l-13 -19zM144 250l13 18l-7 17l-18 -5q0 -9 1.5 -14t4.5 -10zM138 254q1 -1 4 -7q3 1 3 2z" />
    <glyph glyph-name="paragraph" unicode="&#xb6;" horiz-adv-x="556" 
 />
    <glyph glyph-name="germandbls" unicode="&#xdf;" horiz-adv-x="577" 
 />
    <glyph glyph-name="registered" unicode="&#xae;" horiz-adv-x="800" 
 />
    <glyph glyph-name="copyright" unicode="&#xa9;" horiz-adv-x="800" 
 />
    <glyph glyph-name="trademark" unicode="&#x2122;" horiz-adv-x="990" 
 />
    <glyph glyph-name="acute" unicode="&#xb4;" 
 />
    <glyph glyph-name="dieresis" unicode="&#xa8;" 
 />
    <glyph glyph-name="AE" unicode="&#xc6;" horiz-adv-x="879" 
 />
    <glyph glyph-name="Oslash" unicode="&#xd8;" horiz-adv-x="751" 
 />
    <glyph glyph-name="plusminus" unicode="&#xb1;" horiz-adv-x="600" 
 />
    <glyph glyph-name="yen" unicode="&#xa5;" horiz-adv-x="530" 
 />
    <glyph glyph-name="mu" unicode="&#xb5;" horiz-adv-x="549" 
 />
    <glyph glyph-name="mu" unicode="&#x3bc;" horiz-adv-x="549" 
 />
    <glyph glyph-name="ordfeminine" unicode="&#xaa;" horiz-adv-x="307" 
 />
    <glyph glyph-name="ordmasculine" unicode="&#xba;" horiz-adv-x="307" 
 />
    <glyph glyph-name="ae" unicode="&#xe6;" horiz-adv-x="681" 
 />
    <glyph glyph-name="oslash" unicode="&#xf8;" horiz-adv-x="546" 
 />
    <glyph glyph-name="questiondown" unicode="&#xbf;" horiz-adv-x="353" 
 />
    <glyph glyph-name="exclamdown" unicode="&#xa1;" horiz-adv-x="295" 
 />
    <glyph glyph-name="logicalnot" unicode="&#xac;" horiz-adv-x="600" 
 />
    <glyph glyph-name="florin" unicode="&#x192;" horiz-adv-x="530" 
 />
    <glyph glyph-name="guillemotleft" unicode="&#xab;" horiz-adv-x="339" 
 />
    <glyph glyph-name="guillemotright" unicode="&#xbb;" horiz-adv-x="339" 
 />
    <glyph glyph-name="nonbreakingspace" unicode="&#xa0;" horiz-adv-x="265" 
 />
    <glyph glyph-name="Agrave" unicode="&#xc0;" horiz-adv-x="617" 
 />
    <glyph glyph-name="Atilde" unicode="&#xc3;" horiz-adv-x="617" 
 />
    <glyph glyph-name="Otilde" unicode="&#xd5;" horiz-adv-x="751" 
 />
    <glyph glyph-name="OE" unicode="&#x152;" horiz-adv-x="968" 
 />
    <glyph glyph-name="oe" unicode="&#x153;" horiz-adv-x="830" 
 />
    <glyph glyph-name="endash" unicode="&#x2013;" horiz-adv-x="419" 
d="M55 253q-18 -10 -39 -21v-51h23l38 72h-22zM19 255v-22l38 22h-38zM283 187l-14 29l-13 -26zM181 191l1 7l-5 -3zM265 224l14 28h-28zM283 194l71 -7l35 41l-3 -51h8v72h-113l-13 -27zM350 189l-71 6l9 -16h95l2 51zM261 181l12 26l-14 27h-30l3 -16l-36 -22l-1 -7
l26 -27h75l-8 17zM143 243h-81l-39 -73h91q-1 20 29 73zM222 231l-2 17h-27l-7 -38zM180 166h31l-26 27zM180 213l5 3l6 38h-29q-31 -44 -30 -72h47l5 27z" />
    <glyph glyph-name="emdash" unicode="&#x2014;" horiz-adv-x="890" 
d="M114 308q-39 -10 -84 -21v-51h49l85 72h-50zM36 310v-22l85 22h-85zM617 242l-32 29l-27 -26zM392 246l3 7l-12 -3zM578 279l29 28h-61zM616 249l156 -7l78 41l-6 -51h18v72h-249l-29 -27zM765 244l-157 6l19 -16h209l6 51zM568 236l27 26l-31 27h-66l6 -16l-79 -22
l-3 -7l59 -27h165l-19 17zM310 298h-180l-84 -73h199q0 28 65 73zM484 286l-6 17h-60l-14 -38zM391 221h68l-59 27zM390 268l11 3l14 38h-65q-20 -15 -56 -49l-9 -23h104l10 27z" />
    <glyph glyph-name="quotedblleft" unicode="&#x201c;" horiz-adv-x="418" 
d="M77 488l-2 -8l6 -15l16 23q-2 2 -2 4zM112 486q-6 0 -9 4l-16 -23l2 -3l42 23h-2zM143 403q12 4 19 8l-16 5zM175 432l-30 -14l-1 -3l16 -5q10 7 15 22zM64 443l6 -15l5 21zM140 416l5 2q0 3 12 25.5t12 23.5q-3 5 -12.5 11.5t-14.5 3.5l-42 -23l5 -12l-12 8l-6 -3
l-4 -21q16 -29 49 -29h9l3 13zM78 490l-9 -3l10 -12l2 8zM99 495l-4 -1l3 -6zM90 468l-7 15l-1 -8l7 -9zM101 519h-20l11 -25l4 1zM110 537l-8 6l-4 -22h10q0 11 2 16zM100 470l-7 8l-3 -11l5 -3l7 4l-1 3zM102 499q-3 6 -3 20h-10l-5 -25zM172 638q0 10 -8 10q-6 0 -24 -11
l4 -26q6 5 18 14q10 6 10 13zM92 462l6 3l-5 3zM105 610l18 -17q3 4 11 12l-5 25q-5 -3 -24 -20zM141 410l1 3l-4 -2zM174 476l-13 -25q-12 -20 -11 -23l29 13q2 4 2 12q0 15 -7 23zM127 567q4 8 9 13l-18 17q-1 -2 -5 -6v-25zM101 452l-5 12l-7 -4zM79 475l-11 12l-8 -2v-2
q0 -5 1 -8l16 -11zM91 468l-16 10q1 -7 4 -23l11 6zM61 496q-1 -4 -1 -11l8 2zM76 494l-10 25h19l5 22l7 -5q2 12 12 29l-13 -1l-1 25q-32 -39 -37 -88l8 -10zM247 488l-2 -8l6 -15l16 23q-2 2 -2 4zM282 486q-6 0 -9 4l-16 -23l2 -3l42 23h-2zM313 403q12 4 19 8l-16 5z
M345 432l-30 -14l-1 -3l16 -5q10 7 15 22zM234 443l6 -15l5 21zM310 416l5 2q0 3 12 25.5t12 23.5q-3 5 -12.5 11.5t-14.5 3.5l-42 -23l5 -12l-12 8l-6 -3l-4 -21q16 -29 49 -29h9l3 13zM248 490l-9 -3l10 -12l2 8zM269 495l-4 -1l3 -6zM260 468l-7 15l-1 -8l7 -9zM271 519
h-20l11 -25l4 1zM280 537l-8 6l-4 -22h10q0 11 2 16zM270 470l-7 8l-3 -11l5 -3l7 4l-1 3zM272 499q-3 6 -3 20h-10l-5 -25zM342 638q0 10 -8 10q-6 0 -24 -11l4 -26q6 5 18 14q10 6 10 13zM262 462l6 3l-5 3zM275 610l18 -17q3 4 11 12l-5 25q-5 -3 -24 -20zM311 410l1 3
l-4 -2zM344 476l-13 -25q-12 -20 -11 -23l29 13q2 4 2 12q0 15 -7 23zM297 567q4 8 9 13l-18 17q-1 -2 -5 -6v-25zM271 452l-5 12l-7 -4zM249 475l-11 12l-8 -2v-2q0 -5 1 -8l16 -11zM261 468l-16 10q1 -7 4 -23l11 6zM231 496q-1 -4 -1 -11l8 2zM246 494l-10 25h19l5 22
l7 -5q2 12 12 29l-13 -1l-1 25q-32 -39 -37 -88l8 -10z" />
    <glyph glyph-name="quotedblright" unicode="&#x201d;" horiz-adv-x="418" 
d="M333 562l1 7l-6 16l-16 -23q1 -2 3 -4zM297 564q5 0 9 -4l16 23l-1 3l-42 -23h1zM266 646q-11 -2 -18 -7l15 -5zM235 618l30 13v3l-15 5q-12 -7 -15 -21zM346 606q-4 10 -7 15l-4 -21zM269 633l-4 -2q0 -10 -25 -48q4 -6 13 -12t14 -3l42 23l-4 11l11 -8l6 4l5 20
q-17 30 -50 30q-6 0 -9 -1l-3 -12zM331 560l10 2l-10 13l-2 -9zM310 555l4 1l-2 6zM320 582l6 -15l2 8l-7 8zM309 530h19l-10 26l-4 -1zM300 512l7 -5l5 21h-10q0 -6 -2 -16zM310 580l7 -8l2 10l-5 4l-7 -4l2 -3zM308 551q3 -12 2 -20h10l6 24zM237 411q0 -9 9 -9
q10 0 24 11l-5 25q-5 -5 -16.5 -12.5t-11.5 -14.5zM317 588l-6 -4l5 -3zM304 440l-17 17q-2 -2 -5.5 -6t-5.5 -6l5 -25q8 5 23 20zM268 640l-1 -3l5 2zM235 573q25 44 25 49l-30 -13q-2 -8 -2 -13q0 -11 7 -23zM283 483q-3 -5 -9 -13l17 -17q4 4 5 6v25zM309 597l4 -11l7 3z
M331 575l10 -13l8 3l1 1v5q-1 3 -1 4l-16 10zM318 582l16 -11q0 14 -4 23l-10 -6zM349 553v12l-8 -3zM334 556l10 -26h-20l-4 -22l-8 6q-3 -16 -12 -29l14 1v-25q34 41 37 88l-8 9zM163 562l1 7l-6 16l-16 -23q1 -2 3 -4zM127 564q5 0 9 -4l16 23l-1 3l-42 -23h1zM96 646
q-11 -2 -18 -7l15 -5zM65 618l30 13v3l-15 5q-12 -7 -15 -21zM176 606q-4 10 -7 15l-4 -21zM99 633l-4 -2q0 -10 -25 -48q4 -6 13 -12t14 -3l42 23l-4 11l11 -8l6 4l5 20q-17 30 -50 30q-6 0 -9 -1l-3 -12zM161 560l10 2l-10 13l-2 -9zM140 555l4 1l-2 6zM150 582l6 -15l2 8
l-7 8zM139 530h19l-10 26l-4 -1zM130 512l7 -5l5 21h-10q0 -6 -2 -16zM140 580l7 -8l2 10l-5 4l-7 -4l2 -3zM138 551q3 -12 2 -20h10l6 24zM67 411q0 -9 9 -9q10 0 24 11l-5 25q-5 -5 -16.5 -12.5t-11.5 -14.5zM147 588l-6 -4l5 -3zM134 440l-17 17q-2 -2 -5.5 -6t-5.5 -6
l5 -25q8 5 23 20zM98 640l-1 -3l5 2zM65 573q25 44 25 49l-30 -13q-2 -8 -2 -13q0 -11 7 -23zM113 483q-3 -5 -9 -13l17 -17q4 4 5 6v25zM139 597l4 -11l7 3zM161 575l10 -13l8 3l1 1v5q-1 3 -1 4l-16 10zM148 582l16 -11q0 14 -4 23l-10 -6zM179 553v12l-8 -3zM164 556
l10 -26h-20l-4 -22l-8 6q-3 -16 -12 -29l14 1v-25q34 41 37 88l-8 9z" />
    <glyph glyph-name="quoteleft" unicode="&#x2018;" horiz-adv-x="236" 
d="M77 488l-2 -8l6 -15l16 23q-2 2 -2 4zM112 486q-6 0 -9 4l-16 -23l2 -3l42 23h-2zM143 403q12 4 19 8l-16 5zM175 432l-30 -14l-1 -3l16 -5q10 7 15 22zM64 443l6 -15l5 21zM140 416l5 2q0 3 12 25.5t12 23.5q-3 5 -12.5 11.5t-14.5 3.5l-42 -23l5 -12l-12 8l-6 -3
l-4 -21q16 -29 49 -29h9l3 13zM78 490l-9 -3l10 -12l2 8zM99 495l-4 -1l3 -6zM90 468l-7 15l-1 -8l7 -9zM101 519h-20l11 -25l4 1zM110 537l-8 6l-4 -22h10q0 11 2 16zM100 470l-7 8l-3 -11l5 -3l7 4l-1 3zM102 499q-3 6 -3 20h-10l-5 -25zM172 638q0 10 -8 10q-6 0 -24 -11
l4 -26q6 5 18 14q10 6 10 13zM92 462l6 3l-5 3zM105 610l18 -17q3 4 11 12l-5 25q-5 -3 -24 -20zM141 410l1 3l-4 -2zM174 476l-13 -25q-12 -20 -11 -23l29 13q2 4 2 12q0 15 -7 23zM127 567q4 8 9 13l-18 17q-1 -2 -5 -6v-25zM101 452l-5 12l-7 -4zM79 475l-11 12l-8 -2v-2
q0 -5 1 -8l16 -11zM91 468l-16 10q1 -7 4 -23l11 6zM61 496q-1 -4 -1 -11l8 2zM76 494l-10 25h19l5 22l7 -5q2 12 12 29l-13 -1l-1 25q-32 -39 -37 -88l8 -10z" />
    <glyph glyph-name="quoteright" unicode="&#x2019;" horiz-adv-x="228" 
d="M163 562l1 7l-6 16l-16 -23q1 -2 3 -4zM127 564q5 0 9 -4l16 23l-1 3l-42 -23h1zM96 646q-11 -2 -18 -7l15 -5zM65 618l30 13v3l-15 5q-12 -7 -15 -21zM176 606q-4 10 -7 15l-4 -21zM99 633l-4 -2q0 -10 -25 -48q4 -6 13 -12t14 -3l42 23l-4 11l11 -8l6 4l5 20
q-17 30 -50 30q-6 0 -9 -1l-3 -12zM161 560l10 2l-10 13l-2 -9zM140 555l4 1l-2 6zM150 582l6 -15l2 8l-7 8zM139 530h19l-10 26l-4 -1zM130 512l7 -5l5 21h-10q0 -6 -2 -16zM140 580l7 -8l2 10l-5 4l-7 -4l2 -3zM138 551q3 -12 2 -20h10l6 24zM67 411q0 -9 9 -9q10 0 24 11
l-5 25q-5 -5 -16.5 -12.5t-11.5 -14.5zM147 588l-6 -4l5 -3zM134 440l-17 17q-2 -2 -5.5 -6t-5.5 -6l5 -25q8 5 23 20zM98 640l-1 -3l5 2zM65 573q25 44 25 49l-30 -13q-2 -8 -2 -13q0 -11 7 -23zM113 483q-3 -5 -9 -13l17 -17q4 4 5 6v25zM139 597l4 -11l7 3zM161 575
l10 -13l8 3l1 1v5q-1 3 -1 4l-16 10zM148 582l16 -11q0 14 -4 23l-10 -6zM179 553v12l-8 -3zM164 556l10 -26h-20l-4 -22l-8 6q-3 -16 -12 -29l14 1v-25q34 41 37 88l-8 9z" />
    <glyph glyph-name="divide" unicode="&#xf7;" horiz-adv-x="600" 
 />
    <glyph glyph-name="ydieresis" unicode="&#xff;" horiz-adv-x="480" 
 />
    <glyph glyph-name="Ydieresis" unicode="&#x178;" horiz-adv-x="651" 
 />
    <glyph glyph-name="currency" unicode="&#xa4;" horiz-adv-x="530" 
 />
    <glyph glyph-name="guilsinglleft" unicode="&#x2039;" horiz-adv-x="214" 
 />
    <glyph glyph-name="guilsinglright" unicode="&#x203a;" horiz-adv-x="214" 
 />
    <glyph glyph-name="daggerdbl" unicode="&#x2021;" horiz-adv-x="492" 
 />
    <glyph glyph-name="periodcentered" unicode="&#xb7;" horiz-adv-x="265" 
 />
    <glyph glyph-name="periodcentered" unicode="&#x2219;" horiz-adv-x="265" 
 />
    <glyph glyph-name="quotesinglbase" unicode="&#x201a;" horiz-adv-x="269" 
 />
    <glyph glyph-name="quotedblbase" unicode="&#x201e;" horiz-adv-x="418" 
 />
    <glyph glyph-name="perthousand" unicode="&#x2030;" horiz-adv-x="1018" 
 />
    <glyph glyph-name="Acircumflex" unicode="&#xc2;" horiz-adv-x="617" 
 />
    <glyph glyph-name="Ecircumflex" unicode="&#xca;" horiz-adv-x="528" 
 />
    <glyph glyph-name="Aacute" unicode="&#xc1;" horiz-adv-x="617" 
 />
    <glyph glyph-name="Edieresis" unicode="&#xcb;" horiz-adv-x="528" 
 />
    <glyph glyph-name="Egrave" unicode="&#xc8;" horiz-adv-x="528" 
 />
    <glyph glyph-name="Iacute" unicode="&#xcd;" horiz-adv-x="316" 
 />
    <glyph glyph-name="Icircumflex" unicode="&#xce;" horiz-adv-x="316" 
 />
    <glyph glyph-name="Idieresis" unicode="&#xcf;" horiz-adv-x="316" 
 />
    <glyph glyph-name="Igrave" unicode="&#xcc;" horiz-adv-x="316" 
 />
    <glyph glyph-name="Oacute" unicode="&#xd3;" horiz-adv-x="751" 
 />
    <glyph glyph-name="Ocircumflex" unicode="&#xd4;" horiz-adv-x="751" 
 />
    <glyph glyph-name="Ograve" unicode="&#xd2;" horiz-adv-x="751" 
 />
    <glyph glyph-name="Uacute" unicode="&#xda;" horiz-adv-x="679" 
 />
    <glyph glyph-name="Ucircumflex" unicode="&#xdb;" horiz-adv-x="679" 
 />
    <glyph glyph-name="Ugrave" unicode="&#xd9;" horiz-adv-x="679" 
 />
    <glyph glyph-name="circumflex" unicode="&#x2c6;" 
 />
    <glyph glyph-name="tilde" unicode="&#x2dc;" 
 />
    <glyph glyph-name="macron" unicode="&#xaf;" 
 />
    <glyph glyph-name="macron" unicode="&#x2c9;" 
 />
    <glyph glyph-name="cedilla" unicode="&#xb8;" 
 />
    <glyph glyph-name="Scaron" unicode="&#x160;" horiz-adv-x="460" 
 />
    <glyph glyph-name="scaron" unicode="&#x161;" horiz-adv-x="393" 
 />
    <glyph glyph-name="brokenbar" unicode="&#xa6;" 
 />
    <glyph glyph-name="Eth" unicode="&#xd0;" horiz-adv-x="711" 
 />
    <glyph glyph-name="eth" unicode="&#xf0;" horiz-adv-x="546" 
 />
    <glyph glyph-name="Yacute" unicode="&#xdd;" horiz-adv-x="651" 
 />
    <glyph glyph-name="yacute" unicode="&#xfd;" horiz-adv-x="480" 
 />
    <glyph glyph-name="Thorn" unicode="&#xde;" horiz-adv-x="547" 
 />
    <glyph glyph-name="thorn" unicode="&#xfe;" horiz-adv-x="581" 
 />
    <glyph glyph-name="minus" unicode="&#xad;" horiz-adv-x="600" 
 />
    <glyph glyph-name="minus" unicode="&#x2212;" horiz-adv-x="600" 
 />
    <glyph glyph-name="multiply" unicode="&#xd7;" horiz-adv-x="600" 
 />
    <glyph glyph-name="onesuperior" unicode="&#xb9;" horiz-adv-x="360" 
 />
    <glyph glyph-name="twosuperior" unicode="&#xb2;" horiz-adv-x="360" 
 />
    <glyph glyph-name="threesuperior" unicode="&#xb3;" horiz-adv-x="360" 
 />
    <glyph glyph-name="onehalf" unicode="&#xbd;" horiz-adv-x="780" 
 />
    <glyph glyph-name="onequarter" unicode="&#xbc;" horiz-adv-x="780" 
 />
    <glyph glyph-name="threequarters" unicode="&#xbe;" horiz-adv-x="780" 
 />
    <glyph glyph-name="Lslash" unicode="&#x141;" horiz-adv-x="512" 
 />
    <glyph glyph-name="lslash" unicode="&#x142;" horiz-adv-x="279" 
 />
    <glyph glyph-name="Zcaron" unicode="&#x17d;" horiz-adv-x="582" 
 />
    <glyph glyph-name="zcaron" unicode="&#x17e;" horiz-adv-x="442" 
 />
    <glyph glyph-name="fraction" unicode="&#x2044;" horiz-adv-x="59" 
 />
    <glyph glyph-name="fi" unicode="&#xf001;" horiz-adv-x="549" 
 />
    <glyph glyph-name="fl" unicode="&#xf002;" horiz-adv-x="549" 
 />
    <glyph glyph-name="dotlessi" unicode="&#x131;" horiz-adv-x="264" 
 />
    <glyph glyph-name="breve" unicode="&#x2d8;" 
 />
    <glyph glyph-name="dotaccent" unicode="&#x2d9;" 
 />
    <glyph glyph-name="ring" unicode="&#x2da;" 
 />
    <glyph glyph-name="hungarumlaut" unicode="&#x2dd;" 
 />
    <glyph glyph-name="ogonek" unicode="&#x2db;" 
 />
    <glyph glyph-name="caron" unicode="&#x2c7;" 
 />
    <glyph glyph-name="glyph231" horiz-adv-x="265" 
 />
  </font>
</defs>
</svg>
